<svg width="16" height="16" viewBox="0 0 16 16" fill="none" xmlns="http://www.w3.org/2000/svg">
<path d="M6.5 1.5C6.5 1.22386 6.72386 1 7 1C7.27614 1 7.5 1.22386 7.5 1.5V2.1C7.5 3.7 8.8 5 10.4 5H11C11.2761 5 11.5 5.22386 11.5 5.5C11.5 5.77614 11.2761 6 11 6H10.4C8.8 6 7.5 7.3 7.5 8.9V9.5C7.5 9.77614 7.27614 10 7 10C6.72386 10 6.5 9.77614 6.5 9.5V8.9C6.5 7.3 5.2 6 3.6 6H3C2.72386 6 2.5 5.77614 2.5 5.5C2.5 5.22386 2.72386 5 3 5H3.6C5.2 5 6.5 3.7 6.5 2.1V1.5Z" fill="white"/>
<path d="M11.5 9.5C11.5 9.22386 11.7239 9 12 9C12.2761 9 12.5 9.22386 12.5 9.5C12.5 10.6 13.4 11.5 14.5 11.5C14.7761 11.5 15 11.7239 15 12C15 12.2761 14.7761 12.5 14.5 12.5C13.4 12.5 12.5 13.4 12.5 14.5C12.5 14.7761 12.2761 15 12 15C11.7239 15 11.5 14.7761 11.5 14.5C11.5 13.4 10.6 12.5 9.5 12.5C9.22386 12.5 9 12.2761 9 12C9 11.7239 9.22386 11.5 9.5 11.5C10.6 11.5 11.5 10.6 11.5 9.5Z" fill="white"/>
</svg>
