<svg width="16" height="16" viewBox="0 0 16 16" fill="none" xmlns="http://www.w3.org/2000/svg">
<g clip-path="url(#clip0_441_11038)">
<rect width="16" height="16" rx="8" fill="black"/>
<path d="M3.59701 5.89534L9.54291 2.52359L8.87886 2.14705L2.933 5.51875L2.93295 11.29L3.59642 11.6662L3.59701 5.89534ZM5.01129 6.69754L9.54575 4.12609L9.54584 4.97707L5.76143 7.12299V12.8938H7.08936L6.42551 12.5173V11.666L8.59068 12.8938H9.91795L6.42541 10.9133V10.0621L11.4192 12.8938H12.7463L10.5849 11.6682L13.0383 10.2767V4.50559L12.3748 4.12944L12.3743 9.90028L9.92092 11.2915L9.1704 10.8659L11.624 9.47454V3.70369L10.9602 3.32724L10.9601 9.09806L8.5063 10.4894L7.75601 10.064L10.2098 8.67252V2.99656L4.34723 6.32109L4.34717 12.092L5.01094 12.4683L5.01129 6.69754ZM9.54579 5.73341L9.54584 8.29206L7.08886 9.68564L6.42541 9.30942V7.5034C6.79032 7.29649 9.54588 5.72714 9.54579 5.73341Z" fill="white"/>
</g>
<defs>
<clipPath id="clip0_441_11038">
<rect width="16" height="16" fill="white"/>
</clipPath>
</defs>
</svg>
