<svg width="14" height="14" viewBox="0 0 14 14" fill="none" xmlns="http://www.w3.org/2000/svg">
<g clip-path="url(#clip0_3709_10940)">
<path fill-rule="evenodd" clip-rule="evenodd" d="M-4.45549e-06 7C-4.43885e-06 7.20711 0.167889 7.375 0.374996 7.375L6.62506 7.375L6.62506 13.625C6.62506 13.8321 6.79295 14 7.00006 14C7.20716 14 7.37506 13.8321 7.37506 13.625L7.37506 7.375L13.625 7.375C13.8321 7.375 14 7.20711 14 7C14 6.79289 13.8321 6.625 13.625 6.625L7.37506 6.625L7.37506 0.374999C7.37506 0.167893 7.20716 -3.65734e-07 7.00006 -6.25692e-07C6.79295 -2.03397e-07 6.62506 0.167893 6.62506 0.375L6.62506 6.625L0.374996 6.625C0.167889 6.625 -4.46158e-06 6.79289 -4.45549e-06 7Z" fill="white"/>
</g>
<defs>
<clipPath id="clip0_3709_10940">
<rect width="14" height="14" fill="white"/>
</clipPath>
</defs>
</svg>
