<svg width="14" height="14" viewBox="0 0 14 14" fill="none" xmlns="http://www.w3.org/2000/svg">
<g clip-path="url(#clip0_3709_10940)">
<path d="M6.2502 0.37504C6.2502 0.167934 6.41805 8.03273e-05 6.62516 8.03185e-05C6.83221 0.000150091 7.00012 0.167977 7.00012 0.37504L7.00012 6.2501L12.8227 6.2501C13.0297 6.2501 13.1975 6.4181 13.1977 6.62506C13.1977 6.83217 13.0298 7.00002 12.8227 7.00002L7.00012 7.00002L7.00012 12.8986C6.99994 13.1055 6.8321 13.2735 6.62516 13.2735C6.41816 13.2735 6.25038 13.1055 6.2502 12.8986L6.2502 7.00002L0.375136 7.00002C0.168029 7.00002 0.000176118 6.83217 0.000176109 6.62506C0.000341652 6.4181 0.168131 6.2501 0.375136 6.2501L6.2502 6.2501L6.2502 0.37504Z" fill="white"/>
</g>
<defs>
<clipPath id="clip0_3709_10940">
<rect width="14" height="14" fill="white"/>
</clipPath>
</defs>
</svg>
