<svg width="14" height="15" viewBox="0 0 14 15" fill="none" xmlns="http://www.w3.org/2000/svg">
<g clip-path="url(#clip0_3709_10940)">
<path fill-rule="evenodd" clip-rule="evenodd" d="M-4.45549e-06 7.66113C-4.43885e-06 7.86824 0.167889 8.03613 0.374996 8.03613L6.62506 8.03613L6.62506 14.2861C6.62506 14.4932 6.79295 14.6611 7.00006 14.6611C7.20716 14.6611 7.37506 14.4932 7.37506 14.2861L7.37506 8.03613L13.625 8.03613C13.8321 8.03613 14 7.86824 14 7.66113C14 7.45403 13.8321 7.28613 13.625 7.28613L7.37506 7.28613L7.37506 1.03613C7.37506 0.829026 7.20716 0.661132 7.00006 0.661132C6.79295 0.661133 6.62506 0.829026 6.62506 1.03613L6.62506 7.28613L0.374996 7.28613C0.167889 7.28613 -4.46158e-06 7.45403 -4.45549e-06 7.66113Z" fill="white"/>
</g>
<defs>
<clipPath id="clip0_3709_10940">
<rect width="14" height="14" fill="white" transform="translate(0 0.661133)"/>
</clipPath>
</defs>
</svg>
