<svg width="14" height="15" viewBox="0 0 14 15" fill="none" xmlns="http://www.w3.org/2000/svg">
<g clip-path="url(#clip0_4667_21746)">
<path d="M13 2.66113C13.5523 2.66113 14 3.10885 14 3.66113V7.29102C14.0064 7.3184 14.0107 7.34665 14.0107 7.37598C14.0107 7.44744 14.0067 7.51672 14 7.58398V8.66113C14 10.8703 12.2091 12.6611 10 12.6611H1L0.897461 12.6562C0.393331 12.6049 0 12.1788 0 11.6611V3.66113C1.28851e-07 3.10885 0.447715 2.66113 1 2.66113H13ZM1 3.41113C0.861929 3.41113 0.75 3.52306 0.75 3.66113V11.6611C0.75 11.7992 0.861929 11.9111 1 11.9111H7.72461C7.76413 11.8969 7.80619 11.8877 7.85059 11.8877L8.04395 11.8818C8.47571 11.8564 8.78287 11.7457 9.00488 11.5986C9.25841 11.4306 9.4306 11.1959 9.54688 10.9189C9.78782 10.3449 9.77195 9.6433 9.75684 9.13965C9.74628 8.78734 10.0323 8.49755 10.3887 8.50977L10.8174 8.52441C11.2787 8.53514 11.8217 8.52556 12.292 8.4082C12.6014 8.33094 12.8436 8.21483 13.0049 8.05664C13.1289 7.9349 13.2209 7.77231 13.25 7.53711V3.66113C13.25 3.52306 13.1381 3.41113 13 3.41113H1Z" fill="white"/>
</g>
<defs>
<clipPath id="clip0_4667_21746">
<rect width="14" height="14" fill="white" transform="translate(0 0.661133)"/>
</clipPath>
</defs>
</svg>
