<svg width="14" height="15" viewBox="0 0 14 15" fill="none" xmlns="http://www.w3.org/2000/svg">
<g clip-path="url(#clip0_4667_21746)">
<path d="M1 3.03613H13C13.3452 3.03613 13.625 3.31595 13.625 3.66113V8.66113C13.625 10.6632 12.002 12.2861 10 12.2861H1C0.654822 12.2861 0.375 12.0063 0.375 11.6611V3.66113C0.375 3.31595 0.654822 3.03613 1 3.03613Z" stroke="white" stroke-width="0.75"/>
<path d="M7.85086 12.2627C10.2243 12.2627 10.1618 10.111 10.1323 9.1284C10.1282 8.9904 10.2381 8.88006 10.376 8.88491C11.3827 8.92029 13.6357 9.0527 13.6357 7.37595" stroke="white" stroke-width="0.75" stroke-linecap="round"/>
<path d="M13.1035 8.64762L10.6253 8.94957C10.5162 8.96286 10.4286 9.0458 10.4094 9.15397L10.1179 10.7935C10.1137 10.8172 10.1061 10.8401 10.0953 10.8616L9.67348 11.7048C9.59031 11.871 9.71118 12.0667 9.89706 12.0667H10.7402C10.7879 12.0667 10.8345 12.053 10.8747 12.0274L12.6783 10.8769C12.7266 10.846 12.7629 10.7995 12.781 10.7451L13.3709 8.97482C13.429 8.80065 13.2858 8.62542 13.1035 8.64762Z" fill="white"/>
</g>
<defs>
<clipPath id="clip0_4667_21746">
<rect width="14" height="14" fill="white" transform="translate(0 0.661133)"/>
</clipPath>
</defs>
</svg>
