<svg width="12" height="12" viewBox="0 0 12 12" fill="none" xmlns="http://www.w3.org/2000/svg">
<g clip-path="url(#clip0_6110_64)">
<path d="M8.26953 1.67309C8.1441 1.54768 7.94097 1.54786 7.81543 1.67309C7.69011 1.79862 7.69 2.00173 7.81543 2.12719L10.9033 5.2141L0.171877 5.21508L0.107424 5.22094C-0.0390214 5.25094 -0.149423 5.38105 -0.149412 5.53637C-0.14934 5.69156 -0.0388963 5.82078 0.107424 5.85082L0.171877 5.85766L10.9043 5.85668L7.81543 8.94555C7.68991 9.07107 7.68991 9.2751 7.81543 9.40063C7.94096 9.52578 8.14412 9.52596 8.26953 9.40063L11.9053 5.76391C12.0308 5.63838 12.0308 5.43533 11.9053 5.30981L8.26953 1.67309Z" fill="white"/>
</g>
<defs>
<clipPath id="clip0_6110_64">
<rect width="12" height="12" fill="white" transform="matrix(-1 0 0 1 12 0)"/>
</clipPath>
</defs>
</svg>
