<svg width="14" height="14" viewBox="0 0 14 14" fill="none" xmlns="http://www.w3.org/2000/svg">
<path d="M7.00027 1.62109L7.07547 1.62891C7.08954 1.63178 7.10304 1.63622 7.11649 1.64062C7.17226 1.65876 7.22379 1.68934 7.2659 1.73145L10.7659 5.23535C10.9116 5.38188 10.9111 5.61849 10.7649 5.76465C10.6184 5.91092 10.381 5.91105 10.2346 5.76465L7.37527 2.90234L7.37723 11.9961C7.37723 12.2031 7.20919 12.3709 7.00223 12.3711C6.79515 12.3711 6.62727 12.2032 6.62723 11.9961L6.62527 2.90234L3.76492 5.76562C3.61862 5.91168 3.38205 5.91157 3.23563 5.76562C3.08919 5.61932 3.0885 5.38189 3.23465 5.23535L6.72488 1.74121C6.79338 1.66732 6.89159 1.62111 7.00027 1.62109Z" fill="white"/>
</svg>
