<svg width="14" height="14" viewBox="0 0 14 14" fill="none" xmlns="http://www.w3.org/2000/svg">
<g clip-path="url(#clip0_3709_10941)">
<path d="M4.35156 2.49316C4.49793 2.3468 4.73537 2.34697 4.88184 2.49316C5.02828 2.63961 5.02828 2.87699 4.88184 3.02344L1.28027 6.625L13.6299 6.62598C13.8367 6.62611 14.0046 6.79417 14.0049 7.00098C14.0049 7.20799 13.8369 7.37584 13.6299 7.37598L1.27832 7.375L4.88184 10.9785C5.02828 11.125 5.02828 11.3623 4.88184 11.5088C4.73537 11.655 4.49793 11.6552 4.35156 11.5088L0.109375 7.2666C-0.0370715 7.12016 -0.0370716 6.8818 0.109375 6.73535L4.35156 2.49316Z" fill="white"/>
</g>
<defs>
<clipPath id="clip0_3709_10941">
<rect width="14" height="14" fill="white"/>
</clipPath>
</defs>
</svg>
