<svg width="12" height="12" viewBox="0 0 12 12" fill="none" xmlns="http://www.w3.org/2000/svg">
<g clip-path="url(#clip0_3709_10941)">
<path d="M3.72984 1.62927C3.85537 1.50379 4.05941 1.50378 4.18492 1.62927C4.31024 1.75479 4.31034 1.95888 4.18492 2.08435L1.09801 5.17028L11.8275 5.17126L11.892 5.17712C12.0384 5.20708 12.1487 5.33731 12.1488 5.49255C12.1487 5.64777 12.0383 5.77698 11.892 5.807L11.8275 5.81384L1.09508 5.81286L4.18492 8.9027C4.31005 9.0282 4.31017 9.23138 4.18492 9.35681C4.0594 9.48233 3.85537 9.48233 3.72984 9.35681L0.0941018 5.72009C-0.0314 5.59456 -0.0314159 5.3915 0.0941018 5.26599L3.72984 1.62927Z" fill="white"/>
</g>
<defs>
<clipPath id="clip0_3709_10941">
<rect width="12" height="12" fill="white"/>
</clipPath>
</defs>
</svg>
