<svg width="14" height="14" viewBox="0 0 14 14" fill="none" xmlns="http://www.w3.org/2000/svg">
<path d="M7.00027 12.3789L7.07547 12.3711C7.08954 12.3682 7.10304 12.3638 7.11649 12.3594C7.17226 12.3412 7.22379 12.3107 7.2659 12.2686L10.7659 8.76465C10.9116 8.61812 10.9111 8.38151 10.7649 8.23535C10.6184 8.08908 10.381 8.08895 10.2346 8.23535L7.37527 11.0977L7.37723 2.00391C7.37723 1.79692 7.20919 1.62909 7.00223 1.62891C6.79515 1.62891 6.62727 1.79682 6.62723 2.00391L6.62527 11.0977L3.76492 8.23438C3.61862 8.08832 3.38205 8.08843 3.23563 8.23438C3.08919 8.38068 3.0885 8.61811 3.23465 8.76465L6.72488 12.2588C6.79338 12.3327 6.89159 12.3789 7.00027 12.3789Z" fill="white"/>
</svg>
