<svg width="14" height="14" viewBox="0 0 14 14" fill="none" xmlns="http://www.w3.org/2000/svg">
<path d="M13 2C13.5523 2 14 2.44772 14 3V11C14 11.5523 13.5523 12 13 12H1L0.897461 11.9951C0.393331 11.9438 0 11.5177 0 11V3C1.28851e-07 2.44772 0.447715 2 1 2H13ZM1 2.75C0.861929 2.75 0.75 2.86193 0.75 3V8.06836C0.899099 8.1549 1 8.31519 1 8.5C1 8.68463 0.898864 8.84406 0.75 8.93066V11C0.75 11.1381 0.861929 11.25 1 11.25H13C13.1381 11.25 13.25 11.1381 13.25 11V3C13.25 2.86193 13.1381 2.75 13 2.75H2.93066C2.84406 2.89886 2.68463 3 2.5 3C2.31537 3 2.15594 2.89886 2.06934 2.75H1ZM2.5 10C2.77614 10 3 10.2239 3 10.5C3 10.7761 2.77614 11 2.5 11C2.22386 11 2 10.7761 2 10.5C2 10.2239 2.22386 10 2.5 10ZM2.5 8C2.77614 8 3 8.22386 3 8.5C3 8.77614 2.77614 9 2.5 9C2.22386 9 2 8.77614 2 8.5C2 8.22386 2.22386 8 2.5 8ZM4.5 8C4.77614 8 5 8.22386 5 8.5C5 8.77614 4.77614 9 4.5 9C4.22386 9 4 8.77614 4 8.5C4 8.22386 4.22386 8 4.5 8ZM6.5 8C6.77614 8 7 8.22386 7 8.5C7 8.77614 6.77614 9 6.5 9C6.22386 9 6 8.77614 6 8.5C6 8.22386 6.22386 8 6.5 8ZM8.5 8C8.77614 8 9 8.22386 9 8.5C9 8.77614 8.77614 9 8.5 9C8.22386 9 8 8.77614 8 8.5C8 8.22386 8.22386 8 8.5 8ZM10.5 8C10.7761 8 11 8.22386 11 8.5C11 8.77614 10.7761 9 10.5 9C10.2239 9 10 8.77614 10 8.5C10 8.22386 10.2239 8 10.5 8ZM12.5 8C12.7761 8 13 8.22386 13 8.5C13 8.77614 12.7761 9 12.5 9C12.2239 9 12 8.77614 12 8.5C12 8.22386 12.2239 8 12.5 8ZM2.5 6C2.77614 6 3 6.22386 3 6.5C3 6.77614 2.77614 7 2.5 7C2.22386 7 2 6.77614 2 6.5C2 6.22386 2.22386 6 2.5 6ZM2.5 4C2.77614 4 3 4.22386 3 4.5C3 4.77614 2.77614 5 2.5 5C2.22386 5 2 4.77614 2 4.5C2 4.22386 2.22386 4 2.5 4Z" fill="white"/>
</svg>
