<svg width="10" height="10" viewBox="0 0 10 10" fill="none" xmlns="http://www.w3.org/2000/svg">
<path fill-rule="evenodd" clip-rule="evenodd" d="M0.0886 0.2157L0.2157 0.0886C0.3338 -0.0295 0.5254 -0.0295 0.6435 0.0886L5 4.4451L9.3565 0.0886C9.4746 -0.0295 9.6662 -0.0295 9.7843 0.0886L9.9114 0.2157C10.0295 0.3338 10.0295 0.5254 9.9114 0.6435L5.5549 5L9.9114 9.3565C10.0295 9.4746 10.0295 9.6662 9.9114 9.7843L9.7843 9.9114C9.6662 10.0295 9.4746 10.0295 9.3565 9.9114L5 5.5549L0.6435 9.9114C0.5254 10.0295 0.3338 10.0295 0.2157 9.9114L0.0886 9.7843C-0.0295 9.6662 -0.0295 9.4746 0.0886 9.3565L4.4451 5L0.0886 0.6435C-0.0295 0.5254 -0.0295 0.3338 0.0886 0.2157Z" fill="white"/>
</svg>
