<svg width="14" height="14" viewBox="0 0 14 14" fill="none" xmlns="http://www.w3.org/2000/svg">
<path fill-rule="evenodd" clip-rule="evenodd" d="M2.05026 2.05026C1.90382 2.19671 1.90382 2.43415 2.05026 2.58059L6.46973 7.00005L2.05031 11.4195C1.90386 11.5659 1.90386 11.8034 2.05031 11.9498C2.19675 12.0962 2.43419 12.0962 2.58064 11.9498L7.00006 7.53039L11.4194 11.9498C11.5659 12.0962 11.8033 12.0962 11.9498 11.9498C12.0962 11.8033 12.0962 11.5659 11.9498 11.4194L7.53039 7.00006L11.9498 2.58064C12.0962 2.43419 12.0962 2.19675 11.9498 2.05031C11.8034 1.90386 11.5659 1.90386 11.4195 2.05031L7.00005 6.46973L2.58059 2.05026C2.43415 1.90382 2.19671 1.90382 2.05026 2.05026Z" fill="white"/>
</svg>
