<svg width="14" height="14" viewBox="0 0 14 14" fill="none" xmlns="http://www.w3.org/2000/svg">
<path d="M9.73392 3.73535C9.88036 3.5889 10.1177 3.5889 10.2642 3.73535C10.4105 3.88181 10.4106 4.11923 10.2642 4.26562L7.53079 6.99805L10.2652 9.7334C10.4116 9.87985 10.4116 10.1172 10.2652 10.2637C10.1187 10.4097 9.88121 10.41 9.73489 10.2637L7.00052 7.5293L4.26614 10.2637C4.11974 10.4099 3.88227 10.4099 3.73587 10.2637C3.58948 10.1173 3.5896 9.87986 3.73587 9.7334L6.47025 6.99902L3.73685 4.26562C3.59064 4.1193 3.59082 3.88179 3.73685 3.73535C3.88329 3.5889 4.12165 3.5889 4.2681 3.73535L7.00052 6.46777L9.73392 3.73535Z" fill="white"/>
</svg>
