<svg width="14" height="15" viewBox="0 0 14 15" fill="none" xmlns="http://www.w3.org/2000/svg">
<path fill-rule="evenodd" clip-rule="evenodd" d="M2.05026 2.7114C1.90382 2.85784 1.90382 3.09528 2.05026 3.24173L6.46973 7.66119L2.05031 12.0806C1.90386 12.2271 1.90386 12.4645 2.05031 12.6109C2.19675 12.7574 2.43419 12.7574 2.58064 12.6109L7.00006 8.19152L11.4194 12.6109C11.5659 12.7573 11.8033 12.7573 11.9498 12.6109C12.0962 12.4644 12.0962 12.227 11.9498 12.0806L7.53039 7.66119L11.9498 3.24177C12.0962 3.09532 12.0962 2.85789 11.9498 2.71144C11.8034 2.56499 11.5659 2.56499 11.4195 2.71144L7.00005 7.13086L2.58059 2.7114C2.43415 2.56495 2.19671 2.56495 2.05026 2.7114Z" fill="white"/>
</svg>
