<svg width="14" height="14" viewBox="0 0 14 14" fill="none" xmlns="http://www.w3.org/2000/svg">
<g clip-path="url(#clip0_5370_3062)">
<path d="M8.59961 7.77539C11.7497 7.77539 13.4192 9.47029 13.9463 10.7334C13.9844 10.8249 13.9847 10.9278 13.9473 11.0195C13.4195 12.3081 11.7472 13.9795 8.59961 13.9795C5.45227 13.9794 3.78069 12.3081 3.25293 11.0195C3.21542 10.9278 3.21576 10.8249 3.25391 10.7334C3.781 9.47034 5.4498 7.77553 8.59961 7.77539ZM8.59961 8.52539C5.88511 8.52552 4.4909 9.90015 4.01074 10.8789C4.4893 11.8708 5.88118 13.2294 8.59961 13.2295C11.3182 13.2295 12.7099 11.8708 13.1885 10.8789C12.7082 9.90013 11.3141 8.52539 8.59961 8.52539ZM10 0C11.6569 0 13 1.34315 13 3V8.38965C12.7717 8.215 12.5217 8.05081 12.25 7.90039V3C12.25 1.75736 11.2426 0.75 10 0.75H8.875V7.0293C8.78441 7.02663 8.69237 7.02539 8.59961 7.02539C8.43812 7.0254 8.27991 7.02912 8.125 7.03711V0.75H4.875V7.94238C4.6025 8.09819 4.35258 8.26821 4.125 8.44824V0.75H3C1.75736 0.75 0.75 1.75736 0.75 3V10C0.75 11.2426 1.75736 12.25 3 12.25H3.09277C3.27967 12.5067 3.50132 12.7596 3.75781 13H3C1.34315 13 0 11.6569 0 10V3C0 1.34315 1.34315 0 3 0H10ZM8.63867 9.72168C9.26761 9.72168 9.77815 10.2315 9.77832 10.8604C9.77832 11.4894 9.26772 12 8.63867 12C8.0098 11.9998 7.5 11.4893 7.5 10.8604C7.50017 10.2316 8.0099 9.72188 8.63867 9.72168Z" fill="white"/>
</g>
<defs>
<clipPath id="clip0_5370_3062">
<rect width="14" height="14" fill="white"/>
</clipPath>
</defs>
</svg>
