<svg width="14" height="15" viewBox="0 0 14 15" fill="none" xmlns="http://www.w3.org/2000/svg">
<g clip-path="url(#clip0_5370_3062)">
<path d="M7.50005 11.5218C7.50005 10.8928 8.01 10.3828 8.63905 10.3828C9.2681 10.3828 9.77804 10.8928 9.77804 11.5218C9.77804 12.1509 9.2681 12.6608 8.63905 12.6608C8.01 12.6608 7.50005 12.1509 7.50005 11.5218Z" fill="white"/>
<path fill-rule="evenodd" clip-rule="evenodd" d="M4.01106 11.5402C4.48964 12.5321 5.88131 13.8911 8.6 13.8911C11.3187 13.8911 12.7104 12.5321 13.1889 11.5402C12.7088 10.5614 11.3147 9.18652 8.6 9.18652C5.88525 9.18652 4.49124 10.5614 4.01106 11.5402ZM3.25392 11.3944C3.78104 10.1313 5.44994 8.43652 8.6 8.43652C11.7501 8.43652 13.419 10.1313 13.9461 11.3944C13.9843 11.486 13.9846 11.5891 13.947 11.6809C13.4192 12.9695 11.7476 14.6411 8.6 14.6411C5.45241 14.6411 3.78076 12.9695 3.25298 11.6809C3.21535 11.5891 3.21569 11.486 3.25392 11.3944Z" fill="white"/>
<path fill-rule="evenodd" clip-rule="evenodd" d="M3 1.41113H10C11.2426 1.41113 12.25 2.41849 12.25 3.66113V8.56121C12.5218 8.71169 12.7717 8.87641 13 9.05113V3.66113C13 2.00428 11.6569 0.661133 10 0.661133H3C1.34315 0.661133 0 2.00428 0 3.66113V10.6611C0 12.318 1.34315 13.6611 3 13.6611H3.75754C3.50105 13.4207 3.27974 13.1678 3.09285 12.9111H3C1.75736 12.9111 0.75 11.9038 0.75 10.6611V3.66113C0.75 2.41849 1.75736 1.41113 3 1.41113Z" fill="white"/>
<path fill-rule="evenodd" clip-rule="evenodd" d="M4.125 9.10945C4.3526 8.92939 4.60246 8.75921 4.875 8.60338L4.875 0.661133H4.125V9.10945Z" fill="white"/>
<path fill-rule="evenodd" clip-rule="evenodd" d="M8.125 7.69864C8.28003 7.69064 8.43835 7.68652 8.59998 7.68652C8.69274 7.68652 8.78441 7.68788 8.875 7.69055L8.875 0.661133H8.125V7.69864Z" fill="white"/>
</g>
<defs>
<clipPath id="clip0_5370_3062">
<rect width="14" height="14" fill="white" transform="translate(0 0.661133)"/>
</clipPath>
</defs>
</svg>
