<svg width="14" height="14" viewBox="0 0 14 14" fill="none" xmlns="http://www.w3.org/2000/svg">
<path d="M9.68675 1.53711C10.075 1.37631 10.5031 1.33403 10.9153 1.41602C11.3272 1.49811 11.7062 1.70006 12.0032 1.99707C12.3001 2.2941 12.5022 2.67305 12.5842 3.08496C12.6661 3.49709 12.6239 3.92527 12.4631 4.31348C12.3023 4.70148 12.0301 5.03321 11.6809 5.2666C11.3315 5.50006 10.9204 5.62496 10.5002 5.625H9.12523V8.375H10.5002C10.9204 8.37504 11.3315 8.49994 11.6809 8.7334C12.03 8.96681 12.3023 9.29855 12.4631 9.68652C12.6239 10.0747 12.6662 10.5029 12.5842 10.915C12.5021 11.327 12.3002 11.7059 12.0032 12.0029C11.7061 12.3 11.3272 12.5019 10.9153 12.584C10.5032 12.666 10.075 12.6236 9.68675 12.4629C9.29878 12.3021 8.96704 12.0298 8.73363 11.6807C8.50017 11.3313 8.37527 10.9202 8.37523 10.5V9.125H5.62523V10.5C5.62518 10.9202 5.50029 11.3313 5.26683 11.6807C5.03344 12.0299 4.70171 12.3021 4.31371 12.4629C3.9255 12.6237 3.49732 12.6659 3.08519 12.584C2.67327 12.5019 2.29433 12.2999 1.9973 12.0029C1.70029 11.7059 1.49833 11.327 1.41624 10.915C1.33426 10.5029 1.37654 10.0748 1.53734 9.68652C1.69817 9.29845 1.9703 8.96682 2.31956 8.7334C2.66901 8.49992 3.07996 8.375 3.50023 8.375H4.87523V5.625H3.50023C3.08005 5.625 2.66896 5.49999 2.31956 5.2666C1.97039 5.03324 1.69818 4.70143 1.53734 4.31348C1.37652 3.92524 1.3343 3.49712 1.41624 3.08496C1.4983 2.67294 1.70023 2.29414 1.9973 1.99707C2.29437 1.7 2.67317 1.49807 3.08519 1.41602C3.49735 1.33407 3.92547 1.3763 4.31371 1.53711C4.70166 1.69795 5.03347 1.97016 5.26683 2.31934C5.50022 2.66873 5.62523 3.07982 5.62523 3.5V4.875H8.37523V3.5C8.37523 3.07974 8.50015 2.66878 8.73363 2.31934C8.96705 1.97008 9.29868 1.69794 9.68675 1.53711ZM3.50023 9.125C3.22842 9.125 2.9626 9.20551 2.73656 9.35645C2.51047 9.50751 2.3338 9.72242 2.22972 9.97363C2.12569 10.2249 2.09855 10.5019 2.1516 10.7686C2.20472 11.0351 2.33541 11.2805 2.52757 11.4727C2.71977 11.6648 2.96517 11.7956 3.23167 11.8486C3.49832 11.9016 3.77543 11.8745 4.0266 11.7705C4.27774 11.6664 4.49274 11.4897 4.64378 11.2637C4.7947 11.0377 4.87518 10.7718 4.87523 10.5V9.125H3.50023ZM9.12523 10.5C9.12527 10.7718 9.20576 11.0377 9.35667 11.2637C9.50773 11.4896 9.72275 11.6665 9.97386 11.7705C10.225 11.8745 10.5022 11.9017 10.7688 11.8486C11.0353 11.7955 11.2807 11.6648 11.4729 11.4727C11.6651 11.2805 11.7957 11.0351 11.8489 10.7686C11.9019 10.5019 11.8747 10.2248 11.7707 9.97363C11.6667 9.72252 11.4899 9.50751 11.2639 9.35645C11.0379 9.20553 10.772 9.12504 10.5002 9.125H9.12523V10.5ZM5.62523 8.375H8.37523V5.625H5.62523V8.375ZM3.23167 2.15137C2.96506 2.20446 2.7198 2.33511 2.52757 2.52734C2.33534 2.71957 2.20469 2.96483 2.1516 3.23145C2.09859 3.49812 2.12567 3.77517 2.22972 4.02637C2.33381 4.27746 2.51055 4.49254 2.73656 4.64355C2.96255 4.7944 3.2285 4.875 3.50023 4.875H4.87523V3.5C4.87523 3.22827 4.79463 2.96233 4.64378 2.73633C4.49277 2.51032 4.27769 2.33358 4.0266 2.22949C3.7754 2.12544 3.49834 2.09836 3.23167 2.15137ZM10.7688 2.15137C10.5021 2.09832 10.2251 2.12546 9.97386 2.22949C9.72265 2.33357 9.50774 2.51024 9.35667 2.73633C9.20574 2.96237 9.12523 3.22819 9.12523 3.5V4.875H10.5002C10.772 4.87496 11.0379 4.79447 11.2639 4.64355C11.4899 4.49251 11.6667 4.27751 11.7707 4.02637C11.8748 3.7752 11.9018 3.49809 11.8489 3.23145C11.7958 2.96494 11.665 2.71954 11.4729 2.52734C11.2807 2.33518 11.0353 2.20449 10.7688 2.15137Z" fill="white"/>
</svg>
