<svg width="14" height="15" viewBox="0 0 14 15" fill="none" xmlns="http://www.w3.org/2000/svg">
<path d="M8.75 4.16113V11.1611C8.75 11.5073 8.85264 11.8456 9.04493 12.1334C9.23722 12.4212 9.51053 12.6455 9.83031 12.7779C10.1501 12.9104 10.5019 12.945 10.8414 12.8775C11.1809 12.81 11.4927 12.6433 11.7374 12.3986C11.9822 12.1538 12.1489 11.842 12.2164 11.5025C12.2839 11.1631 12.2492 10.8112 12.1168 10.4914C11.9843 10.1717 11.76 9.89835 11.4722 9.70606C11.1845 9.51377 10.8461 9.41113 10.5 9.41113H3.5C3.15388 9.41113 2.81554 9.51377 2.52775 9.70606C2.23997 9.89835 2.01566 10.1717 1.88321 10.4914C1.75076 10.8112 1.7161 11.1631 1.78363 11.5025C1.85115 11.842 2.01782 12.1538 2.26256 12.3986C2.50731 12.6433 2.81913 12.81 3.15859 12.8775C3.49806 12.945 3.84993 12.9104 4.1697 12.7779C4.48947 12.6455 4.76278 12.4212 4.95507 12.1334C5.14736 11.8456 5.25 11.5073 5.25 11.1611V4.16113C5.25 3.81502 5.14736 3.47667 4.95507 3.18889C4.76278 2.9011 4.48947 2.6768 4.1697 2.54434C3.84993 2.41189 3.49806 2.37724 3.15859 2.44476C2.81913 2.51228 2.50731 2.67895 2.26256 2.9237C2.01782 3.16844 1.85115 3.48026 1.78363 3.81973C1.7161 4.15919 1.75076 4.51106 1.88321 4.83083C2.01566 5.1506 2.23997 5.42391 2.52775 5.61621C2.81554 5.8085 3.15388 5.91113 3.5 5.91113H10.5C10.8461 5.91113 11.1845 5.8085 11.4722 5.61621C11.76 5.42391 11.9843 5.1506 12.1168 4.83083C12.2492 4.51106 12.2839 4.15919 12.2164 3.81973C12.1489 3.48026 11.9822 3.16844 11.7374 2.9237C11.4927 2.67895 11.1809 2.51228 10.8414 2.44476C10.5019 2.37724 10.1501 2.41189 9.83031 2.54434C9.51053 2.6768 9.23722 2.9011 9.04493 3.18889C8.85264 3.47667 8.75 3.81502 8.75 4.16113Z" stroke="white" stroke-width="0.75" stroke-linecap="round" stroke-linejoin="round"/>
</svg>
