<svg width="14" height="14" viewBox="0 0 14 14" fill="none" xmlns="http://www.w3.org/2000/svg">
<path d="M2.125 4.37305C2.26307 4.37305 2.375 4.48498 2.375 4.62305V9.37695C2.375 9.51502 2.26307 9.62695 2.125 9.62695H1.875C1.73693 9.62695 1.625 9.51502 1.625 9.37695V4.62305C1.625 4.48498 1.73693 4.37305 1.875 4.37305H2.125ZM12.125 4.37305C12.2631 4.37305 12.375 4.48498 12.375 4.62305V9.37695C12.375 9.51502 12.2631 9.62695 12.125 9.62695H11.875C11.7369 9.62695 11.625 9.51502 11.625 9.37695V4.62305C11.625 4.48498 11.7369 4.37305 11.875 4.37305H12.125ZM6.47461 4.52539C6.66986 4.33014 6.98638 4.33017 7.18164 4.52539L9.30371 6.64648C9.49867 6.84169 9.49867 7.15831 9.30371 7.35352L7.18164 9.47461C6.98638 9.66983 6.66986 9.66986 6.47461 9.47461L4.35352 7.35352C4.1583 7.15826 4.1583 6.84174 4.35352 6.64648L6.47461 4.52539Z" fill="white"/>
</svg>
