<svg width="14" height="14" viewBox="0 0 14 14" fill="none" xmlns="http://www.w3.org/2000/svg">
<path d="M2.5127 4.37305C2.65077 4.37305 2.7627 4.48498 2.7627 4.62305V9.37695C2.7627 9.51502 2.65077 9.62695 2.5127 9.62695H2.2627C2.12474 9.62682 2.0127 9.51494 2.0127 9.37695V4.62305C2.0127 4.48506 2.12474 4.37318 2.2627 4.37305H2.5127ZM11.7373 4.37305C11.8754 4.37305 11.9873 4.48498 11.9873 4.62305V9.37695C11.9873 9.51502 11.8754 9.62695 11.7373 9.62695H11.4873C11.3493 9.62689 11.2373 9.51498 11.2373 9.37695V4.62305C11.2373 4.48502 11.3493 4.37311 11.4873 4.37305H11.7373ZM6.64648 4.52539C6.84175 4.33013 7.15825 4.33013 7.35352 4.52539L9.47461 6.64648C9.66987 6.84175 9.66987 7.15825 9.47461 7.35352L7.35352 9.47461C7.15825 9.66987 6.84175 9.66987 6.64648 9.47461L4.52539 7.35352C4.33013 7.15825 4.33013 6.84175 4.52539 6.64648L6.64648 4.52539Z" fill="white"/>
</svg>
