<svg width="14" height="14" viewBox="0 0 14 14" fill="none" xmlns="http://www.w3.org/2000/svg">
<path d="M12.25 7.5C13.1562 7.5 13.9017 8.18873 13.9912 9.07129L14 9.25V11.25C14 12.1562 13.3113 12.9017 12.4287 12.9912L12.25 13H1.75C0.843826 13 0.0982962 12.3113 0.00878906 11.4287L0 11.25V9.25C7.39322e-08 8.2835 0.783501 7.5 1.75 7.5H12.25ZM1.75 8.25L1.64746 8.25488C1.14333 8.30621 0.75 8.73232 0.75 9.25V11.25C0.75 11.7677 1.14333 12.1938 1.64746 12.2451L1.75 12.25H12.25C12.8023 12.25 13.25 11.8023 13.25 11.25V9.25C13.25 8.73232 12.8567 8.30621 12.3525 8.25488L12.25 8.25H1.75ZM12.25 1C13.1562 1 13.9017 1.68873 13.9912 2.57129L14 2.75V4.75C14 5.65617 13.3113 6.4017 12.4287 6.49121L12.25 6.5H1.75C0.843826 6.5 0.0982962 5.81127 0.00878906 4.92871L0 4.75V2.75C7.39322e-08 1.7835 0.783501 1 1.75 1H12.25ZM1.75 1.75L1.64746 1.75488C1.14333 1.80621 0.75 2.23232 0.75 2.75V4.75C0.75 5.26768 1.14333 5.69379 1.64746 5.74512L1.75 5.75H12.25L12.3525 5.74512C12.823 5.69722 13.1972 5.32297 13.2451 4.85254L13.25 4.75V2.75C13.25 2.23232 12.8567 1.80621 12.3525 1.75488L12.25 1.75H1.75Z" fill="white"/>
</svg>
