<svg width="14" height="14" viewBox="0 0 14 14" fill="none" xmlns="http://www.w3.org/2000/svg">
<g clip-path="url(#clip0_3709_10914)">
<path d="M2.58398 1.04395C3.44517 1.04442 4.00391 1.79776 4.00391 2.54395V4.5C4.00391 4.75207 4.06949 4.86831 4.1084 4.91211C4.13554 4.94243 4.20907 5.00777 4.42969 5.00781H12.5742C13.4356 5.0081 13.9941 5.76153 13.9941 6.50781V11.457C13.9941 12.2033 13.4355 12.9567 12.5742 12.957H1.41113C0.549563 12.957 -0.00967578 12.2034 -0.00976562 11.457V2.54395C-0.00976562 1.79752 0.549494 1.04395 1.41113 1.04395H2.58398ZM1.41113 1.79395L1.34277 1.79785C1.00491 1.83614 0.741211 2.15553 0.741211 2.54395V11.457L0.754883 11.6084C0.813047 11.9256 1.05008 12.17 1.34277 12.2031L1.41113 12.207H12.5742L12.6426 12.2031C12.9351 12.1698 13.1724 11.9255 13.2305 11.6084L13.2441 11.457V6.50781C13.2441 6.11958 12.9802 5.80025 12.6426 5.76172L12.5742 5.75781H4.42969L4.28711 5.75195C3.6437 5.69721 3.30069 5.26597 3.25781 4.6377L3.25391 4.5V2.54395C3.25391 2.15588 2.98977 1.83661 2.65234 1.79785L2.58398 1.79395H1.41113ZM7.86133 1C8.66739 1.0003 9.32129 1.65383 9.32129 2.45996C9.32129 3.26609 8.66739 3.91963 7.86133 3.91992H6.78125C6.02541 3.91992 5.40397 3.34546 5.3291 2.60938L5.32129 2.45996L5.3291 2.31055C5.40397 1.57446 6.02541 1 6.78125 1H7.86133ZM12.5342 1C13.3403 1.00026 13.9941 1.65381 13.9941 2.45996C13.9941 3.26611 13.3403 3.91966 12.5342 3.91992H11.4541C10.6983 3.91989 10.0768 3.34545 10.002 2.60938L9.99414 2.45996L10.002 2.31055C10.0768 1.57447 10.6983 1.00003 11.4541 1H12.5342ZM6.78125 1.75L6.6377 1.76465C6.3144 1.83102 6.07129 2.11703 6.07129 2.45996C6.07129 2.80289 6.3144 3.0889 6.6377 3.15527L6.78125 3.16992H7.86133L8.00391 3.15527C8.281 3.09853 8.49975 2.88056 8.55664 2.60352L8.57129 2.45996C8.57129 2.1169 8.32738 1.83088 8.00391 1.76465L7.86133 1.75H6.78125ZM11.4541 1.75C11.062 1.75003 10.7441 2.06788 10.7441 2.45996C10.7441 2.80318 10.9878 3.08922 11.3115 3.15527L11.4541 3.16992H12.5342C12.9261 3.16966 13.2441 2.8519 13.2441 2.45996C13.2441 2.06802 12.9261 1.75026 12.5342 1.75H11.4541Z" fill="white"/>
</g>
<defs>
<clipPath id="clip0_3709_10914">
<rect width="14" height="14" fill="white"/>
</clipPath>
</defs>
</svg>
