<svg width="14" height="14" viewBox="0 0 14 14" fill="none" xmlns="http://www.w3.org/2000/svg">
<g clip-path="url(#clip0_3709_10913)">
<path d="M12.25 8.02539C13.1561 8.02539 13.9017 8.71417 13.9912 9.59668L14 9.77539V11.25C14 12.1562 13.3113 12.9017 12.4287 12.9912L12.25 13H1.75C0.783501 13 -4.29265e-08 12.2165 0 11.25V9.77539C5.72503e-05 8.80894 0.783536 8.02539 1.75 8.02539H12.25ZM1.75 8.77539C1.19775 8.77539 0.750057 9.22315 0.75 9.77539V11.25C0.75 11.7677 1.14333 12.1938 1.64746 12.2451L1.75 12.25H12.25C12.8023 12.25 13.25 11.8023 13.25 11.25V9.77539C13.2499 9.22315 12.8022 8.77539 12.25 8.77539H1.75ZM12.25 1C13.1562 1 13.9017 1.68873 13.9912 2.57129L14 2.75V4.24219C14 5.20869 13.2165 5.99219 12.25 5.99219H1.75C0.783501 5.99219 -7.39322e-08 5.20869 0 4.24219V2.75C7.39322e-08 1.7835 0.783501 1 1.75 1H12.25ZM1.75 1.75C1.19771 1.75 0.75 2.19772 0.75 2.75V4.24219C0.75 4.75985 1.14335 5.18596 1.64746 5.2373L1.75 5.24219H12.25C12.8023 5.24219 13.25 4.79447 13.25 4.24219V2.75C13.25 2.19772 12.8023 1.75 12.25 1.75H1.75Z" fill="white"/>
</g>
<defs>
<clipPath id="clip0_3709_10913">
<rect width="14" height="14" fill="white"/>
</clipPath>
</defs>
</svg>
