<svg width="14" height="14" viewBox="0 0 14 14" fill="none" xmlns="http://www.w3.org/2000/svg">
<g clip-path="url(#clip0_3709_10914)">
<path d="M3.14941 1.04395C3.95693 1.04429 4.49812 1.70658 4.5625 2.4043L4.56934 2.54395V4.16602C4.56934 4.41809 4.63492 4.53433 4.67383 4.57812C4.70084 4.60837 4.77423 4.67375 4.99512 4.67383H12.5742C13.4356 4.67411 13.9941 5.42755 13.9941 6.17383V11.457C13.9941 12.2033 13.4355 12.9567 12.5742 12.957H1.41113C0.549563 12.957 -0.00869919 12.2034 -0.00878906 11.457V2.54395C-0.00878906 1.79752 0.549495 1.04395 1.41113 1.04395H3.14941ZM1.41113 1.79395L1.34277 1.79785C1.00491 1.83614 0.741211 2.15553 0.741211 2.54395V11.457L0.754883 11.6084C0.813047 11.9256 1.05008 12.17 1.34277 12.2031L1.41113 12.207H12.5742L12.6426 12.2031C12.9351 12.1698 13.1724 11.9255 13.2305 11.6084L13.2441 11.457V6.17383C13.2441 5.78559 12.9802 5.46625 12.6426 5.42773L12.5742 5.42383H4.99512L4.85254 5.41797C4.2092 5.36316 3.86607 4.932 3.82324 4.30371L3.81934 4.16602V2.54395C3.81934 2.15581 3.55529 1.83652 3.21777 1.79785L3.14941 1.79395H1.41113ZM7.86133 1C8.66739 1.0003 9.32129 1.65383 9.32129 2.45996C9.32129 3.21564 8.7466 3.83702 8.01074 3.91211L7.86133 3.91992H6.78125C6.02541 3.91992 5.40397 3.34546 5.3291 2.60938L5.32129 2.45996L5.3291 2.31055C5.40397 1.57446 6.02541 1 6.78125 1H7.86133ZM12.5342 1C13.2898 1.00025 13.9115 1.57459 13.9863 2.31055L13.9941 2.45996C13.9941 3.21568 13.4195 3.83707 12.6836 3.91211L12.5342 3.91992H11.4541C10.6983 3.91989 10.0768 3.34545 10.002 2.60938L9.99414 2.45996L10.002 2.31055C10.0768 1.57447 10.6983 1.00003 11.4541 1H12.5342ZM6.78125 1.75L6.6377 1.76465C6.3144 1.83102 6.07129 2.11703 6.07129 2.45996C6.07129 2.80289 6.3144 3.0889 6.6377 3.15527L6.78125 3.16992H7.86133L8.00391 3.15527C8.281 3.09854 8.49975 2.88056 8.55664 2.60352L8.57129 2.45996C8.57129 2.1169 8.32738 1.83088 8.00391 1.76465L7.86133 1.75H6.78125ZM11.4541 1.75L11.3115 1.76465C10.9878 1.8307 10.7441 2.11674 10.7441 2.45996C10.7441 2.80318 10.9878 3.08922 11.3115 3.15527L11.4541 3.16992H12.5342L12.6777 3.15527C12.9544 3.09827 13.1726 2.88027 13.2295 2.60352L13.2441 2.45996C13.2441 2.11719 13.0008 1.8312 12.6777 1.76465L12.5342 1.75H11.4541Z" fill="white"/>
</g>
<defs>
<clipPath id="clip0_3709_10914">
<rect width="14" height="14" fill="white"/>
</clipPath>
</defs>
</svg>
