<svg width="14" height="15" viewBox="0 0 14 15" fill="none" xmlns="http://www.w3.org/2000/svg">
<g clip-path="url(#clip0_3709_10914)">
<path d="M3.14893 2.08008C3.76463 2.08016 4.19385 2.6248 4.19385 3.20508V4.82715L4.19775 4.94043C4.21506 5.19322 4.29031 5.37261 4.39307 5.48828C4.5044 5.61347 4.68775 5.70988 4.99463 5.70996H12.5737L12.687 5.71582C13.2416 5.77772 13.6187 6.29087 13.6187 6.83496V12.1182C13.6186 12.6984 13.1894 13.2432 12.5737 13.2432H1.41064C0.794928 13.2432 0.365811 12.6984 0.365723 12.1182V3.20508C0.365723 2.62476 0.794864 2.08008 1.41064 2.08008H3.14893Z" stroke="white" stroke-width="0.75"/>
<rect x="8.94574" y="2.03613" width="2.16992" height="3.25" rx="1.08496" transform="rotate(90 8.94574 2.03613)" stroke="white" stroke-width="0.75"/>
<rect x="13.6187" y="2.03613" width="2.16992" height="3.25" rx="1.08496" transform="rotate(90 13.6187 2.03613)" stroke="white" stroke-width="0.75"/>
</g>
<defs>
<clipPath id="clip0_3709_10914">
<rect width="14" height="14" fill="white" transform="translate(0 0.661133)"/>
</clipPath>
</defs>
</svg>
