<svg width="14" height="14" viewBox="0 0 14 14" fill="none" xmlns="http://www.w3.org/2000/svg">
<g clip-path="url(#clip0_3709_10912)">
<path d="M4.6084 1C5.03952 1.00024 5.41699 1.18469 5.66992 1.5C5.90845 1.79761 6.00098 2.16344 6.00098 2.5V11.5C6.00098 12.3281 5.32896 12.9995 4.50098 13H1.50293C0.674502 13 0.00195312 12.3284 0.00195312 11.5V2.5C0.00195312 2.33317 -0.0101905 1.8929 0.251953 1.53027C0.561579 1.10252 1.05778 1 1.50293 1H4.6084ZM12.501 1C13.329 1.00053 14.001 1.6719 14.001 2.5V11.5C14.001 12.3281 13.329 12.9995 12.501 13H9.50098C8.67255 13 8.00098 12.3284 8.00098 11.5V2.5C8.00098 1.67157 8.67255 1 9.50098 1H12.501ZM1.50293 1.75L1.37695 1.75391C0.784183 1.79226 0.75293 2.11164 0.75293 2.5V11.5C0.75293 11.8882 1.04781 12.2075 1.42578 12.2461L1.50293 12.25H4.50098L4.57715 12.2461C4.92977 12.2101 5.21106 11.9298 5.24707 11.5771L5.25098 11.5V2.5C5.25098 2.11187 5.04962 1.79257 4.68359 1.75391L4.6084 1.75H1.50293ZM9.50098 1.75L9.42383 1.75391C9.04563 1.7923 8.75098 2.11167 8.75098 2.5V11.5L8.75391 11.5771C8.78995 11.9299 9.07099 12.2103 9.42383 12.2461L9.50098 12.25H12.501L12.5771 12.2461C12.9298 12.2101 13.2111 11.9298 13.2471 11.5771L13.251 11.5V2.5C13.251 2.11183 12.9551 1.79253 12.5771 1.75391L12.501 1.75H9.50098Z" fill="white"/>
</g>
<defs>
<clipPath id="clip0_3709_10912">
<rect width="14" height="14" fill="white"/>
</clipPath>
</defs>
</svg>
