<svg width="14" height="14" viewBox="0 0 14 14" fill="none" xmlns="http://www.w3.org/2000/svg">
<g clip-path="url(#clip0_3709_10912)">
<path d="M5.00293 1C5.83113 1.00026 6.50293 1.67174 6.50293 2.5V11.5C6.50293 12.3283 5.83113 12.9997 5.00293 13H1.50293C0.674502 13 0.00195312 12.3284 0.00195312 11.5V2.5C0.00195325 1.67157 0.674502 1 1.50293 1H5.00293ZM12.501 1C13.329 1.00053 14.001 1.6719 14.001 2.5V11.5C14.001 12.3281 13.329 12.9995 12.501 13H9.00098C8.17255 13 7.50098 12.3284 7.50098 11.5V2.5C7.50098 1.67157 8.17255 1 9.00098 1H12.501ZM1.50293 1.75L1.42578 1.75391C1.04781 1.79253 0.75293 2.11183 0.75293 2.5V11.5C0.75293 11.8882 1.04781 12.2075 1.42578 12.2461L1.50293 12.25H5.00293C5.41692 12.2497 5.75293 11.9141 5.75293 11.5V2.5C5.75293 2.08595 5.41692 1.75026 5.00293 1.75H1.50293ZM9.00098 1.75L8.92383 1.75391C8.54563 1.7923 8.25098 2.11167 8.25098 2.5V11.5L8.25391 11.5771C8.28995 11.9299 8.57099 12.2103 8.92383 12.2461L9.00098 12.25H12.501L12.5771 12.2461C12.9298 12.2101 13.2111 11.9298 13.2471 11.5771L13.251 11.5V2.5C13.251 2.11183 12.9551 1.79253 12.5771 1.75391L12.501 1.75H9.00098Z" fill="white"/>
</g>
<defs>
<clipPath id="clip0_3709_10912">
<rect width="14" height="14" fill="white"/>
</clipPath>
</defs>
</svg>
