<svg width="14" height="14" viewBox="0 0 14 14" fill="none" xmlns="http://www.w3.org/2000/svg">
<g clip-path="url(#clip0_3709_10915)">
<path d="M4.2627 8.02051C5.22908 8.02064 6.0127 8.80409 6.0127 9.77051V11.25C6.0127 12.1559 5.32451 12.9013 4.44238 12.9912L4.2627 13H1.74023C0.773736 13 -0.00976564 12.2165 -0.00976562 11.25V9.77051C-0.0097656 8.80401 0.773737 8.02051 1.74023 8.02051H4.2627ZM12.2344 8.02051C13.2006 8.02087 13.9844 8.80423 13.9844 9.77051V11.25C13.9844 12.1559 13.2953 12.9014 12.4131 12.9912L12.2344 13H9.74121C8.83505 13 8.08952 12.3113 8 11.4287L7.99121 11.25V9.77051C7.99121 8.80401 8.77472 8.02051 9.74121 8.02051H12.2344ZM1.74023 8.77051L1.6377 8.77539C1.13357 8.82673 0.740234 9.25284 0.740234 9.77051V11.25C0.740234 11.7677 1.13357 12.1938 1.6377 12.2451L1.74023 12.25H4.2627C4.81487 12.2499 5.2627 11.8022 5.2627 11.25V9.77051C5.2627 9.25282 4.86939 8.8267 4.36523 8.77539L4.2627 8.77051H1.74023ZM9.74121 8.77051L9.63867 8.77539C9.13455 8.82673 8.74121 9.25284 8.74121 9.77051V11.25C8.74121 11.8023 9.18893 12.25 9.74121 12.25H12.2344L12.3359 12.2451C12.8065 12.1973 13.1806 11.823 13.2285 11.3525L13.2344 11.25V9.77051C13.2344 9.25273 12.8402 8.82659 12.3359 8.77539L12.2344 8.77051H9.74121ZM4.2627 1C5.22908 1.00013 6.0127 1.78358 6.0127 2.75V4.21973C6.01267 5.18612 5.22907 5.96959 4.2627 5.96973H1.74023C0.773751 5.96973 -0.0097418 5.1862 -0.00976562 4.21973V2.75C-0.0097656 1.7835 0.773736 1 1.74023 1H4.2627ZM12.2344 1C13.2006 1.00036 13.9844 1.78373 13.9844 2.75V4.21973C13.9844 5.18598 13.2006 5.96936 12.2344 5.96973H9.74121C8.77473 5.96972 7.99123 5.1862 7.99121 4.21973V2.75C7.99121 1.7835 8.77472 1 9.74121 1H12.2344ZM1.74023 1.75C1.18795 1.75 0.740234 2.19772 0.740234 2.75V4.21973L0.745117 4.32227C0.793047 4.79266 1.16729 5.16695 1.6377 5.21484L1.74023 5.21973H4.2627L4.36523 5.21484C4.83567 5.16697 5.20988 4.79268 5.25781 4.32227L5.2627 4.21973V2.75C5.2627 2.1978 4.81487 1.75013 4.2627 1.75H1.74023ZM9.74121 1.75C9.18893 1.75 8.74121 2.19772 8.74121 2.75V4.21973L8.74609 4.32227C8.79402 4.79266 9.16827 5.16695 9.63867 5.21484L9.74121 5.21973H12.2344L12.3359 5.21484C12.8065 5.16708 13.1806 4.79275 13.2285 4.32227L13.2344 4.21973V2.75C13.2344 2.23222 12.8402 1.80608 12.3359 1.75488L12.2344 1.75H9.74121Z" fill="white"/>
</g>
<defs>
<clipPath id="clip0_3709_10915">
<rect width="14" height="14" fill="white"/>
</clipPath>
</defs>
</svg>
