<svg width="14" height="14" viewBox="0 0 14 14" fill="none" xmlns="http://www.w3.org/2000/svg">
<g clip-path="url(#clip0_3709_10915)">
<path d="M4.74023 7.5C5.6463 7.50012 6.39195 8.18881 6.48145 9.07129L6.49023 9.25V11.25C6.49023 12.1561 5.80139 12.9016 4.91895 12.9912L4.74023 13H1.74023C0.834069 13 0.088542 12.3113 -0.000976562 11.4287L-0.00976562 11.25V9.25C-0.0097656 8.2835 0.773736 7.5 1.74023 7.5H4.74023ZM12.2344 7.5C13.1402 7.50034 13.8851 8.18897 13.9746 9.07129L13.9844 9.25V11.25C13.9844 12.1559 13.2953 12.9014 12.4131 12.9912L12.2344 13H9.23438C8.32822 13 7.5827 12.3112 7.49316 11.4287L7.48438 11.25V9.25C7.48438 8.2835 8.26788 7.5 9.23438 7.5H12.2344ZM1.74023 8.25L1.6377 8.25488C1.13357 8.30621 0.740234 8.73232 0.740234 9.25V11.25C0.740234 11.7677 1.13357 12.1938 1.6377 12.2451L1.74023 12.25H4.74023C5.29241 12.2499 5.74023 11.8022 5.74023 11.25V9.25C5.74023 8.6978 5.29241 8.25013 4.74023 8.25H1.74023ZM9.23438 8.25L9.13184 8.25488C8.6275 8.30602 8.23438 8.73218 8.23438 9.25V11.25L8.23926 11.3525C8.2872 11.8231 8.66123 12.1974 9.13184 12.2451L9.23438 12.25H12.2344L12.3359 12.2451C12.8065 12.1973 13.1806 11.823 13.2285 11.3525L13.2344 11.25V9.25C13.2344 8.73222 12.8402 8.30608 12.3359 8.25488L12.2344 8.25H9.23438ZM4.74023 1C5.6463 1.00012 6.39195 1.68881 6.48145 2.57129L6.49023 2.75V4.75C6.49023 5.65609 5.80139 6.40159 4.91895 6.49121L4.74023 6.5H1.74023C0.834069 6.5 0.088542 5.81126 -0.000976562 4.92871L-0.00976562 4.75V2.75C-0.0097656 1.7835 0.773736 1 1.74023 1H4.74023ZM12.2344 1C13.1402 1.00034 13.8851 1.68897 13.9746 2.57129L13.9844 2.75V4.75C13.9844 5.65595 13.2953 6.4014 12.4131 6.49121L12.2344 6.5H9.23438C8.32822 6.5 7.5827 5.81124 7.49316 4.92871L7.48438 4.75V2.75C7.48438 1.7835 8.26788 1 9.23438 1H12.2344ZM1.74023 1.75L1.6377 1.75488C1.13357 1.80621 0.740234 2.23232 0.740234 2.75V4.75C0.740234 5.26768 1.13357 5.69379 1.6377 5.74512L1.74023 5.75H4.74023C5.2578 5.74988 5.68403 5.35659 5.73535 4.85254L5.74023 4.75V2.75C5.74023 2.23241 5.34679 1.80633 4.84277 1.75488L4.74023 1.75H1.74023ZM9.23438 1.75L9.13184 1.75488C8.6275 1.80602 8.23438 2.23218 8.23438 2.75V4.75L8.23926 4.85254C8.2872 5.32308 8.66123 5.6974 9.13184 5.74512L9.23438 5.75H12.2344L12.3359 5.74512C12.8065 5.69735 13.1806 5.32304 13.2285 4.85254L13.2344 4.75V2.75C13.2344 2.23222 12.8402 1.80608 12.3359 1.75488L12.2344 1.75H9.23438Z" fill="white"/>
</g>
<defs>
<clipPath id="clip0_3709_10915">
<rect width="14" height="14" fill="white"/>
</clipPath>
</defs>
</svg>
