<svg width="14" height="14" viewBox="0 0 14 14" fill="none" xmlns="http://www.w3.org/2000/svg">
<path d="M10.1543 1.00391C11.7395 1.08418 13 2.39487 13 4V7.02148L12.9961 7.17578C12.9185 8.70998 11.6885 9.93988 10.1543 10.0176L10 10.0215H9.99902L9.99609 10.1543C9.91838 11.6883 8.68834 12.9184 7.1543 12.9961L7 13H4L3.8457 12.9961C2.31166 12.9184 1.08163 11.6883 1.00391 10.1543L1 10L1 7C1 5.39489 2.26055 4.08421 3.8457 4.00391L4 4H3.97852L3.99316 3.70313C4.13729 2.2361 5.33802 1.0792 6.82422 1.00391L6.97852 1L10 1L10.1543 1.00391ZM4 5C2.89543 5 2 5.89543 2 7L2 10C2 11.1046 2.89543 12 4 12H7C8.10457 12 9 11.1046 9 10V7C9 5.89543 8.10457 5 7 5L4 5ZM7.1543 4.00391C8.73945 4.08421 10 5.39489 10 7L10 9.02148C11.1045 9.02135 12 8.12597 12 7.02148V4C12 2.89551 11.1045 2.00013 10 2H6.97852C5.87395 2 4.97852 2.89543 4.97852 4L7 4L7.1543 4.00391Z" fill="white"/>
</svg>
