<svg width="14" height="14" viewBox="0 0 14 14" fill="none" xmlns="http://www.w3.org/2000/svg">
<path d="M7 5.875C10.1066 5.875 12.625 4.86764 12.625 3.625C12.625 2.38236 10.1066 1.375 7 1.375C3.8934 1.375 1.375 2.38236 1.375 3.625C1.375 4.86764 3.8934 5.875 7 5.875Z" stroke="white" stroke-width="0.75" stroke-linecap="round" stroke-linejoin="round"/>
<path d="M10.7207 5.3125L10.8455 4.95889C10.7647 4.93037 10.6766 4.93037 10.5958 4.95889L10.7207 5.3125ZM3.27931 5.3125L3.40415 4.95889C3.32337 4.93037 3.23525 4.93037 3.15447 4.95889L3.27931 5.3125ZM7 6.25C8.46024 6.25 9.80627 6.03302 10.8455 5.66611L10.5958 4.95889C9.65192 5.29214 8.39289 5.5 7 5.5V6.25ZM3.15447 5.66611C4.19373 6.03302 5.53976 6.25 7 6.25V5.5C5.60711 5.5 4.34807 5.29214 3.40415 4.95889L3.15447 5.66611ZM3.15447 4.95889C2.54454 5.17423 2.02134 5.44784 1.64352 5.77557C1.26641 6.10268 1 6.51613 1 7H1.75C1.75 6.81185 1.85186 6.5877 2.13496 6.34213C2.41734 6.09718 2.8463 5.86306 3.40415 5.66611L3.15447 4.95889ZM1 7C1 7.447 1.22802 7.8349 1.55937 8.14826C1.88994 8.46087 2.34814 8.72513 2.88325 8.93917C3.95555 9.36809 5.4112 9.625 7 9.625V8.875C5.48219 8.875 4.12535 8.62823 3.1618 8.24281C2.67898 8.04969 2.31342 7.8291 2.07471 7.60334C1.83678 7.37833 1.75 7.17432 1.75 7H1ZM7 9.625C8.5888 9.625 10.0444 9.36809 11.1167 8.93917C11.6519 8.72513 12.1101 8.46087 12.4406 8.14826C12.772 7.8349 13 7.447 13 7H12.25C12.25 7.17432 12.1632 7.37833 11.9253 7.60334C11.6866 7.8291 11.321 8.04969 10.8382 8.24281C9.87465 8.62823 8.51781 8.875 7 8.875V9.625ZM13 7C13 6.51613 12.7336 6.10268 12.3565 5.77557C11.9787 5.44784 11.4555 5.17423 10.8455 4.95889L10.5958 5.66611C11.1537 5.86306 11.5827 6.09718 11.865 6.34213C12.1481 6.5877 12.25 6.81185 12.25 7H13Z" fill="white"/>
<path d="M3.27931 8.6875L3.40415 8.33389C3.32337 8.30537 3.23525 8.30537 3.15447 8.33389L3.27931 8.6875ZM10.7207 8.6875L10.8455 8.33389C10.7647 8.30537 10.6766 8.30537 10.5958 8.33389L10.7207 8.6875ZM3.15447 9.04111C4.19373 9.40802 5.53976 9.625 7 9.625V8.875C5.60711 8.875 4.34808 8.66714 3.40415 8.33389L3.15447 9.04111ZM7 9.625C8.46024 9.625 9.80627 9.40802 10.8455 9.04111L10.5958 8.33389C9.65192 8.66714 8.39289 8.875 7 8.875V9.625ZM13 10.375C13 9.89113 12.7336 9.47768 12.3565 9.15057C11.9787 8.82284 11.4555 8.54923 10.8455 8.33389L10.5958 9.04111C11.1537 9.23806 11.5827 9.47218 11.865 9.71713C12.1481 9.9627 12.25 10.1869 12.25 10.375H13ZM7 13C8.5888 13 10.0444 12.7431 11.1167 12.3142C11.6519 12.1001 12.1101 11.8359 12.4406 11.5233C12.772 11.2099 13 10.822 13 10.375H12.25C12.25 10.5493 12.1632 10.7533 11.9253 10.9783C11.6866 11.2041 11.321 11.4247 10.8382 11.6178C9.87465 12.0032 8.51781 12.25 7 12.25V13ZM1 10.375C1 10.822 1.22802 11.2099 1.55937 11.5233C1.88994 11.8359 2.34814 12.1001 2.88325 12.3142C3.95555 12.7431 5.4112 13 7 13V12.25C5.48219 12.25 4.12535 12.0032 3.1618 11.6178C2.67898 11.4247 2.31342 11.2041 2.07471 10.9783C1.83678 10.7533 1.75 10.5493 1.75 10.375H1ZM3.15447 8.33389C2.54454 8.54922 2.02134 8.82284 1.64352 9.15057C1.26641 9.47768 1 9.89113 1 10.375H1.75C1.75 10.1869 1.85186 9.9627 2.13496 9.71713C2.41734 9.47218 2.8463 9.23806 3.40415 9.04111L3.15447 8.33389Z" fill="white"/>
<path d="M7 4.1875C7.77665 4.1875 8.40625 3.93566 8.40625 3.625C8.40625 3.31434 7.77665 3.0625 7 3.0625C6.22335 3.0625 5.59375 3.31434 5.59375 3.625C5.59375 3.93566 6.22335 4.1875 7 4.1875Z" fill="white"/>
</svg>
