<svg width="14" height="14" viewBox="0 0 14 14" fill="none" xmlns="http://www.w3.org/2000/svg">
<path d="M7 1C8.5888 1 10.0449 1.25663 11.1172 1.68555C11.6521 1.89953 12.1099 2.16408 12.4404 2.47656C12.7718 2.78993 13 3.178 13 3.625C13 4.072 12.7718 4.46007 12.4404 4.77344C12.2291 4.97322 11.9653 5.15259 11.6631 5.3125C11.9274 5.45219 12.1615 5.60628 12.3564 5.77539C12.7336 6.1025 13 6.51613 13 7C13 7.447 12.7718 7.83507 12.4404 8.14844C12.2291 8.34822 11.9653 8.52759 11.6631 8.6875C11.9274 8.82719 12.1615 8.98128 12.3564 9.15039C12.7336 9.4775 13 9.89113 13 10.375C13 10.822 12.7718 11.2101 12.4404 11.5234C12.1099 11.8359 11.6521 12.1005 11.1172 12.3145C10.0449 12.7434 8.5888 13 7 13C5.4112 13 3.95511 12.7434 2.88281 12.3145C2.34793 12.1005 1.89006 11.8359 1.55957 11.5234C1.22822 11.2101 1 10.822 1 10.375C1 9.89114 1.26645 9.4775 1.64355 9.15039C1.83835 8.98144 2.07189 8.82708 2.33594 8.6875C2.03399 8.52769 1.77069 8.34805 1.55957 8.14844C1.22822 7.83507 1 7.447 1 7C1 6.51613 1.26645 6.1025 1.64355 5.77539C1.83835 5.60644 2.07189 5.45208 2.33594 5.3125C2.03399 5.15269 1.77069 4.97305 1.55957 4.77344C1.22822 4.46007 1 4.072 1 3.625C1 3.178 1.22822 2.78993 1.55957 2.47656C1.89006 2.16408 2.34793 1.89953 2.88281 1.68555C3.95511 1.25663 5.4112 1 7 1ZM10.7109 9.08594C10.4595 9.1695 10.1912 9.24299 9.90918 9.30859C9.90234 9.31019 9.89552 9.31189 9.88867 9.31348C9.75249 9.34486 9.61308 9.37348 9.4707 9.40039C9.46224 9.402 9.45379 9.40368 9.44531 9.40527C9.30825 9.43085 9.1686 9.45432 9.02637 9.47559C9.00329 9.47907 8.98023 9.48296 8.95703 9.48633C8.82677 9.50505 8.69462 9.52212 8.56055 9.53711C8.51199 9.5426 8.46309 9.54677 8.41406 9.55176C8.30029 9.5632 8.18546 9.57432 8.06934 9.58301C7.99396 9.58872 7.9181 9.59314 7.8418 9.59766C7.73997 9.6036 7.6375 9.61047 7.53418 9.61426C7.3581 9.62081 7.17994 9.625 7 9.625C6.81973 9.625 6.64125 9.62082 6.46484 9.61426C6.36152 9.61046 6.25905 9.60361 6.15723 9.59766C6.08092 9.59314 6.00506 9.58872 5.92969 9.58301C5.81357 9.57431 5.69873 9.5632 5.58496 9.55176C5.53459 9.54664 5.48444 9.54178 5.43457 9.53613C5.31754 9.523 5.20202 9.50817 5.08789 9.49219C5.03615 9.48488 4.9847 9.47761 4.93359 9.46973C4.80755 9.45045 4.68347 9.42991 4.56152 9.40723C4.54618 9.40435 4.5309 9.40136 4.51562 9.39844C4.37763 9.37218 4.24251 9.34394 4.11035 9.31348C4.10319 9.31182 4.09601 9.31026 4.08887 9.30859C3.80684 9.24294 3.53854 9.16955 3.28711 9.08594C2.78643 9.27358 2.39694 9.4894 2.13477 9.7168C1.85166 9.96236 1.75 10.1869 1.75 10.375C1.75 10.5493 1.83642 10.7536 2.07422 10.9785C2.31294 11.2043 2.67929 11.425 3.16211 11.6182C4.12564 12.0035 5.4824 12.25 7 12.25C8.5176 12.25 9.87436 12.0035 10.8379 11.6182C11.3207 11.425 11.6871 11.2043 11.9258 10.9785C12.1636 10.7536 12.25 10.5493 12.25 10.375C12.25 10.1869 12.1483 9.96236 11.8652 9.7168C11.6028 9.48914 11.2124 9.27372 10.7109 9.08594ZM10.7109 5.71094C10.4595 5.7945 10.1912 5.86799 9.90918 5.93359C9.90234 5.93519 9.89552 5.93689 9.88867 5.93848C9.75249 5.96986 9.61308 5.99848 9.4707 6.02539C9.46224 6.027 9.45379 6.02868 9.44531 6.03027C9.30825 6.05585 9.1686 6.07931 9.02637 6.10059C9.00329 6.10407 8.98023 6.10796 8.95703 6.11133C8.82677 6.13005 8.69462 6.14712 8.56055 6.16211C8.51199 6.1676 8.46309 6.17177 8.41406 6.17676C8.30029 6.1882 8.18546 6.19932 8.06934 6.20801C7.99396 6.21372 7.9181 6.21814 7.8418 6.22266C7.73997 6.2286 7.6375 6.23547 7.53418 6.23926C7.3581 6.24581 7.17994 6.25 7 6.25C6.81973 6.25 6.64125 6.24582 6.46484 6.23926C6.36152 6.23546 6.25905 6.22861 6.15723 6.22266C6.08092 6.21814 6.00506 6.21372 5.92969 6.20801C5.81357 6.19931 5.69873 6.1882 5.58496 6.17676C5.53459 6.17164 5.48444 6.16678 5.43457 6.16113C5.31754 6.148 5.20202 6.13317 5.08789 6.11719C5.03615 6.10988 4.9847 6.10261 4.93359 6.09473C4.80755 6.07545 4.68347 6.05491 4.56152 6.03223C4.54618 6.02935 4.5309 6.02636 4.51562 6.02344C4.37763 5.99718 4.24251 5.96894 4.11035 5.93848C4.10319 5.93682 4.09601 5.93526 4.08887 5.93359C3.80684 5.86794 3.53854 5.79455 3.28711 5.71094C2.78643 5.89858 2.39694 6.1144 2.13477 6.3418C1.85166 6.58736 1.75 6.81185 1.75 7C1.75 7.17428 1.83642 7.37857 2.07422 7.60352C2.31294 7.82927 2.67929 8.05004 3.16211 8.24316C4.12564 8.62849 5.4824 8.875 7 8.875C8.5176 8.875 9.87436 8.62849 10.8379 8.24316C11.3207 8.05004 11.6871 7.82927 11.9258 7.60352C12.1636 7.37857 12.25 7.17428 12.25 7C12.25 6.81185 12.1483 6.58736 11.8652 6.3418C11.6028 6.11414 11.2124 5.89872 10.7109 5.71094ZM7 1.75C5.4824 1.75 4.12564 1.99651 3.16211 2.38184C2.67929 2.57496 2.31294 2.79573 2.07422 3.02148C1.83642 3.24643 1.75 3.45072 1.75 3.625C1.75 3.79928 1.83642 4.00357 2.07422 4.22852C2.31294 4.45427 2.67929 4.67504 3.16211 4.86816C4.12564 5.25349 5.4824 5.5 7 5.5C8.5176 5.5 9.87436 5.25349 10.8379 4.86816C11.3207 4.67504 11.6871 4.45427 11.9258 4.22852C12.1636 4.00357 12.25 3.79928 12.25 3.625C12.25 3.45072 12.1636 3.24643 11.9258 3.02148C11.6871 2.79573 11.3207 2.57496 10.8379 2.38184C9.87436 1.99651 8.5176 1.75 7 1.75ZM7 3.0625C7.77665 3.0625 8.40625 3.31434 8.40625 3.625C8.40625 3.93566 7.77665 4.1875 7 4.1875C6.22335 4.1875 5.59375 3.93566 5.59375 3.625C5.59375 3.31434 6.22335 3.0625 7 3.0625Z" fill="white"/>
</svg>
