<svg width="14" height="14" viewBox="0 0 14 14" fill="none" xmlns="http://www.w3.org/2000/svg">
<path d="M5.625 2C5.83211 2 6 2.16789 6 2.375C6 2.58211 5.83211 2.75 5.625 2.75H3C2.86193 2.75 2.75 2.86193 2.75 3V11C2.75 11.1381 2.86193 11.25 3 11.25H11C11.1381 11.25 11.25 11.1381 11.25 11V8.375C11.25 8.16789 11.4179 8 11.625 8C11.8321 8 12 8.16789 12 8.375V11L11.9951 11.1025C11.9472 11.573 11.573 11.9472 11.1025 11.9951L11 12H3L2.89746 11.9951C2.42703 11.9472 2.05278 11.573 2.00488 11.1025L2 11V3C2 2.48232 2.39333 2.05621 2.89746 2.00488L3 2H5.625ZM11.6221 1.99805C11.7035 1.99798 11.784 2.02553 11.8516 2.07813C11.8598 2.08451 11.8683 2.09061 11.876 2.09766C11.8797 2.10105 11.8841 2.10384 11.8877 2.10742C11.8914 2.11112 11.894 2.11633 11.8975 2.12012C11.9083 2.13187 11.9185 2.14416 11.9277 2.15723C11.9311 2.16203 11.9344 2.16695 11.9375 2.17188C11.9748 2.2301 11.9971 2.29872 11.9971 2.37305V6.37305C11.9971 6.58011 11.8291 6.74798 11.6221 6.74805C11.4152 6.7478 11.2471 6.58 11.2471 6.37305V3.27832L7.2334 7.29199L7.1748 7.33984C7.02925 7.43614 6.83135 7.42016 6.70312 7.29199C6.57511 7.16376 6.55901 6.96581 6.65527 6.82031L6.70312 6.76172L10.7168 2.74805H7.62207C7.41517 2.7478 7.24707 2.58 7.24707 2.37305C7.24707 2.16609 7.41517 1.99829 7.62207 1.99805H11.6221Z" fill="white"/>
</svg>
