<svg width="14" height="14" viewBox="0 0 14 14" fill="none" xmlns="http://www.w3.org/2000/svg">
<path d="M11.1651 2.75374C10.3767 2.39655 9.54441 2.14314 8.68945 2C8.57246 2.20696 8.4666 2.4199 8.37232 2.63792C7.46162 2.50212 6.5355 2.50212 5.6248 2.63792C5.53048 2.41992 5.42462 2.20699 5.30767 2C4.45217 2.14435 3.6193 2.39836 2.8301 2.7556C1.26332 5.0495 0.838594 7.28643 1.05096 9.49159C1.9685 10.1624 2.99549 10.6726 4.08729 11C4.33313 10.6728 4.55067 10.3257 4.7376 9.96233C4.38255 9.83111 4.03988 9.66921 3.71353 9.47852C3.79942 9.41687 3.88342 9.35336 3.96459 9.29172C4.91419 9.73363 5.95062 9.96276 6.99998 9.96276C8.04934 9.96276 9.08577 9.73363 10.0354 9.29172C10.1175 9.35803 10.2015 9.42154 10.2864 9.47852C9.95945 9.66952 9.61615 9.83173 9.26047 9.96326C9.44717 10.3264 9.66472 10.6733 9.91078 11C11.0035 10.674 12.0313 10.164 12.949 9.49253C13.1982 6.93524 12.5233 4.71887 11.1651 2.75374ZM5.00659 8.13543C4.4148 8.13543 3.92589 7.60398 3.92589 6.95019C3.92589 6.29639 4.39781 5.76027 5.0047 5.76027C5.61159 5.76027 6.09672 6.29639 6.08634 6.95019C6.07596 7.60398 5.6097 8.13543 5.00659 8.13543ZM8.99337 8.13543C8.40064 8.13543 7.91362 7.60398 7.91362 6.95019C7.91362 6.29639 8.38554 5.76027 8.99337 5.76027C9.6012 5.76027 10.0826 6.29639 10.0722 6.95019C10.0618 7.60398 9.59648 8.13543 8.99337 8.13543Z" fill="white"/>
</svg>
