<svg width="14" height="15" viewBox="0 0 14 15" fill="none" xmlns="http://www.w3.org/2000/svg">
<g clip-path="url(#clip0_5666_2907)">
<path d="M9 7.66113V11.6611" stroke="white" stroke-width="0.75" stroke-linecap="round" stroke-linejoin="round"/>
<path d="M7 9.66113H11" stroke="white" stroke-width="0.75" stroke-linecap="round" stroke-linejoin="round"/>
<path d="M12.3333 4.99414H5.66659C4.93021 4.99414 4.33325 5.59109 4.33325 6.32747V12.9941C4.33325 13.7305 4.93021 14.3275 5.66659 14.3275H12.3333C13.0696 14.3275 13.6666 13.7305 13.6666 12.9941V6.32747C13.6666 5.59109 13.0696 4.99414 12.3333 4.99414Z" stroke="white" stroke-width="0.75" stroke-linecap="round" stroke-linejoin="round"/>
<path d="M1.66659 10.3275C0.933252 10.3275 0.333252 9.72747 0.333252 8.99414V2.32747C0.333252 1.59414 0.933252 0.994141 1.66659 0.994141H8.33325C9.06659 0.994141 9.66659 1.59414 9.66659 2.32747" stroke="white" stroke-width="0.75" stroke-linecap="round" stroke-linejoin="round"/>
</g>
<defs>
<clipPath id="clip0_5666_2907">
<rect width="14" height="14" fill="white" transform="translate(0 0.661133)"/>
</clipPath>
</defs>
</svg>
