<svg width="14" height="14" viewBox="0 0 14 14" fill="none" xmlns="http://www.w3.org/2000/svg">
<path d="M7 1.625C9.96853 1.625 12.375 4.03147 12.375 7C12.375 9.96853 9.96853 12.375 7 12.375C4.03147 12.375 1.625 9.96853 1.625 7C1.625 4.03147 4.03147 1.625 7 1.625ZM4.00586 10.5244C4.81273 11.2106 5.85784 11.625 7 11.625C9.55432 11.625 11.625 9.55432 11.625 7C11.625 5.85761 11.2098 4.8128 10.5234 4.00586L4.00586 10.5244ZM7 2.375C4.44568 2.375 2.375 4.44568 2.375 7C2.375 8.14167 2.789 9.18643 3.47461 9.99316L9.99316 3.47559C9.18637 2.78973 8.14189 2.375 7 2.375Z" fill="white"/>
</svg>
