<svg width="14" height="14" viewBox="0 0 14 14" fill="none" xmlns="http://www.w3.org/2000/svg">
<g clip-path="url(#clip0_5666_2907)">
<path d="M12.333 3.95801C13.2764 3.95801 14.0408 4.72268 14.041 5.66602V12.333C14.041 13.2765 13.2765 14.041 12.333 14.041H5.66602C4.72279 14.0407 3.95801 13.2763 3.95801 12.333V5.66602C3.95818 4.72287 4.7229 3.95832 5.66602 3.95801H12.333ZM5.66602 4.70801C5.13711 4.70832 4.70818 5.13708 4.70801 5.66602V12.333C4.70801 12.8621 5.137 13.2907 5.66602 13.291H12.333C12.8623 13.291 13.291 12.8623 13.291 12.333V5.66602C13.2908 5.13689 12.8622 4.70801 12.333 4.70801H5.66602ZM9 6.625C9.20711 6.625 9.375 6.79289 9.375 7V8.625H11C11.2071 8.625 11.375 8.79289 11.375 9C11.375 9.20711 11.2071 9.375 11 9.375H9.375V11C9.375 11.2071 9.20711 11.375 9 11.375C8.79289 11.375 8.625 11.2071 8.625 11V9.375H7C6.79289 9.375 6.625 9.20711 6.625 9C6.625 8.79289 6.79289 8.625 7 8.625H8.625V7C8.625 6.79289 8.79289 6.625 9 6.625ZM8.33301 -0.0419922C9.27334 -0.0419922 10.0408 0.725724 10.041 1.66602C10.041 1.87312 9.87312 2.04102 9.66602 2.04102C9.45917 2.04071 9.29102 1.87293 9.29102 1.66602C9.29084 1.13994 8.85913 0.708008 8.33301 0.708008H1.66602C1.14016 0.708319 0.708186 1.14013 0.708008 1.66602V8.33301C0.708008 8.85905 1.14005 9.2907 1.66602 9.29102C1.87301 9.29102 2.04084 9.45906 2.04102 9.66602C2.04102 9.87312 1.87312 10.041 1.66602 10.041C0.725835 10.0407 -0.0419922 9.27326 -0.0419922 8.33301V1.66602C-0.041815 0.725914 0.725944 -0.0416822 1.66602 -0.0419922H8.33301Z" fill="white"/>
</g>
<defs>
<clipPath id="clip0_5666_2907">
<rect width="14" height="14" fill="white"/>
</clipPath>
</defs>
</svg>
