<svg width="14" height="14" viewBox="0 0 14 14" fill="none" xmlns="http://www.w3.org/2000/svg">
<path d="M10.8887 1.625C11.7094 1.625 12.375 2.29057 12.375 3.11133V10.8887C12.375 11.7094 11.7094 12.375 10.8887 12.375H3.11133C2.29057 12.375 1.625 11.7094 1.625 10.8887V3.11133C1.625 2.29057 2.29057 1.625 3.11133 1.625H10.8887ZM3.11133 2.375C2.70479 2.375 2.375 2.70479 2.375 3.11133V10.8887C2.375 11.2952 2.70479 11.625 3.11133 11.625H10.8887C11.2952 11.625 11.625 11.2952 11.625 10.8887V3.11133C11.625 2.70479 11.2952 2.375 10.8887 2.375H3.11133ZM7 3.95801C7.20711 3.95801 7.375 4.1259 7.375 4.33301V6.625H9.66602C9.87312 6.625 10.041 6.79289 10.041 7C10.041 7.20711 9.87312 7.375 9.66602 7.375H7.375V9.66602C7.375 9.87312 7.20711 10.041 7 10.041C6.79289 10.041 6.625 9.87312 6.625 9.66602V7.375H4.33301C4.12601 7.37487 3.95801 7.20703 3.95801 7C3.95801 6.79297 4.12601 6.62513 4.33301 6.625H6.625V4.33301C6.625 4.1259 6.79289 3.95801 7 3.95801Z" fill="white"/>
</svg>
