<svg width="14" height="14" viewBox="0 0 14 14" fill="none" xmlns="http://www.w3.org/2000/svg">
<g clip-path="url(#clip0_5681_18159)">
<path d="M6.99954 0.125C7.09889 0.125 7.19486 0.164194 7.26517 0.234375L9.26517 2.23438C9.41161 2.38082 9.41161 2.61918 9.26517 2.76562C9.1187 2.91184 8.88029 2.91199 8.73392 2.76562L7.37454 1.40625V6.625H12.5933L11.2339 5.26562C11.0878 5.11924 11.0878 4.88076 11.2339 4.73438C11.3803 4.58801 11.6187 4.58816 11.7652 4.73438L13.7652 6.73438C13.9116 6.88082 13.9116 7.11918 13.7652 7.26562L11.7652 9.26562C11.6187 9.41184 11.3803 9.41199 11.2339 9.26562C11.0878 9.11924 11.0878 8.88076 11.2339 8.73438L12.5933 7.375H7.37454V12.5938L8.73392 11.2344C8.88029 11.088 9.1187 11.0882 9.26517 11.2344C9.41161 11.3808 9.41161 11.6192 9.26517 11.7656L7.26517 13.7656C7.19486 13.8358 7.09889 13.875 6.99954 13.875C6.90025 13.8749 6.80413 13.8358 6.73392 13.7656L4.73392 11.7656C4.58778 11.6192 4.58778 11.3808 4.73392 11.2344C4.88029 11.088 5.1187 11.0882 5.26517 11.2344L6.62454 12.5938V7.375H1.40579L2.76517 8.73438C2.91161 8.88082 2.91161 9.11918 2.76517 9.26562C2.6187 9.41184 2.38029 9.41199 2.23392 9.26562L0.233915 7.26562C0.087775 7.11924 0.087775 6.88076 0.233915 6.73438L2.23392 4.73438C2.38029 4.58801 2.6187 4.58816 2.76517 4.73438C2.91161 4.88082 2.91161 5.11918 2.76517 5.26562L1.40579 6.625H6.62454V1.40625L5.26517 2.76562C5.1187 2.91184 4.88029 2.91199 4.73392 2.76562C4.58778 2.61924 4.58778 2.38076 4.73392 2.23438L6.73392 0.234375L6.79153 0.188477C6.8526 0.1477 6.92503 0.125093 6.99954 0.125Z" fill="white"/>
</g>
<defs>
<clipPath id="clip0_5681_18159">
<rect width="14" height="14" fill="white"/>
</clipPath>
</defs>
</svg>
