<svg width="14" height="14" viewBox="0 0 14 14" fill="none" xmlns="http://www.w3.org/2000/svg">
<path d="M5.2513 7.58366C5.57347 7.58366 5.83464 7.32249 5.83464 7.00033C5.83464 6.67816 5.57347 6.41699 5.2513 6.41699C4.92914 6.41699 4.66797 6.67816 4.66797 7.00033C4.66797 7.32249 4.92914 7.58366 5.2513 7.58366Z" fill="white" stroke="white" stroke-width="0.4" stroke-linecap="round" stroke-linejoin="round"/>
<path d="M9.33333 7.58366C9.6555 7.58366 9.91667 7.32249 9.91667 7.00033C9.91667 6.67816 9.6555 6.41699 9.33333 6.41699C9.01117 6.41699 8.75 6.67816 8.75 7.00033C8.75 7.32249 9.01117 7.58366 9.33333 7.58366Z" fill="white" stroke="white" stroke-width="0.4" stroke-linecap="round" stroke-linejoin="round"/>
<path d="M5.2513 3.49967C5.57347 3.49967 5.83464 3.23851 5.83464 2.91634C5.83464 2.59418 5.57347 2.33301 5.2513 2.33301C4.92914 2.33301 4.66797 2.59418 4.66797 2.91634C4.66797 3.23851 4.92914 3.49967 5.2513 3.49967Z" fill="white" stroke="white" stroke-width="0.4" stroke-linecap="round" stroke-linejoin="round"/>
<path d="M9.33333 3.49967C9.6555 3.49967 9.91667 3.23851 9.91667 2.91634C9.91667 2.59418 9.6555 2.33301 9.33333 2.33301C9.01117 2.33301 8.75 2.59418 8.75 2.91634C8.75 3.23851 9.01117 3.49967 9.33333 3.49967Z" fill="white" stroke="white" stroke-width="0.4" stroke-linecap="round" stroke-linejoin="round"/>
<path d="M5.2513 11.6667C5.57347 11.6667 5.83464 11.4055 5.83464 11.0833C5.83464 10.7612 5.57347 10.5 5.2513 10.5C4.92914 10.5 4.66797 10.7612 4.66797 11.0833C4.66797 11.4055 4.92914 11.6667 5.2513 11.6667Z" fill="white" stroke="white" stroke-width="0.4" stroke-linecap="round" stroke-linejoin="round"/>
<path d="M9.33333 11.6667C9.6555 11.6667 9.91667 11.4055 9.91667 11.0833C9.91667 10.7612 9.6555 10.5 9.33333 10.5C9.01117 10.5 8.75 10.7612 8.75 11.0833C8.75 11.4055 9.01117 11.6667 9.33333 11.6667Z" fill="white" stroke="white" stroke-width="0.4" stroke-linecap="round" stroke-linejoin="round"/>
</svg>
