<svg width="14" height="14" viewBox="0 0 14 14" fill="none" xmlns="http://www.w3.org/2000/svg">
<path d="M9.1084 1.87415C9.91451 1.1855 11.1246 1.19714 11.918 1.93372C12.7823 2.73643 12.8222 4.09209 12.0068 4.94446L11.2266 5.75892L11.2236 5.76282L5.76661 11.3097C5.72018 11.3568 5.66146 11.3909 5.59766 11.4083L2.09864 12.3615C1.9681 12.397 1.82853 12.36 1.7334 12.2638C1.63827 12.1674 1.60237 12.0268 1.63965 11.8966L2.59083 8.5763L2.62696 8.49036C2.6425 8.4638 2.66187 8.43925 2.6836 8.41712L8.14063 2.87024L8.95215 2.02161L9.1084 1.87415ZM3.28516 8.87415L2.54297 11.463L5.30274 10.7111L10.418 5.51185L8.41895 3.6554L3.28516 8.87415ZM11.4082 2.48352C10.8963 2.00809 10.1148 2.00081 9.59473 2.44544L9.49415 2.54017L8.94141 3.11731L10.9395 4.97376L11.4648 4.42591C11.9908 3.87606 11.9656 3.00142 11.4082 2.48352Z" fill="white"/>
</svg>
