<svg width="14" height="15" viewBox="0 0 14 15" fill="none" xmlns="http://www.w3.org/2000/svg">
<path fill-rule="evenodd" clip-rule="evenodd" d="M7 3.03613C7 3.24324 6.83211 3.41113 6.625 3.41113H5C3.75736 3.41113 2.75 4.41849 2.75 5.66113V9.66113C2.75 10.9038 3.75736 11.9111 5 11.9111H9C10.2426 11.9111 11.25 10.9038 11.25 9.66113V8.03613C11.25 7.82903 11.4179 7.66113 11.625 7.66113C11.8321 7.66113 12 7.82903 12 8.03613V9.66113C12 11.318 10.6569 12.6611 9 12.6611H5C3.34315 12.6611 2 11.318 2 9.66113V5.66113C2 4.00428 3.34315 2.66113 5 2.66113H6.625C6.83211 2.66113 7 2.82903 7 3.03613Z" fill="white"/>
<path d="M6.5 6.66113L10.75 2.41113C11.1642 1.99692 11.8358 1.99692 12.25 2.41113C12.6642 2.82535 12.6642 3.49692 12.25 3.91113L8 8.16113L6 8.66113L6.5 6.66113Z" stroke="white" stroke-width="0.75"/>
</svg>
