<svg width="14" height="14" viewBox="0 0 14 14" fill="none" xmlns="http://www.w3.org/2000/svg">
<g clip-path="url(#clip0_5821_233)">
<path d="M7.00001 11.6663C8.23769 11.6663 9.42467 11.1747 10.2998 10.2995C11.175 9.42434 11.6667 8.23735 11.6667 6.99967C11.6667 5.762 11.175 4.57501 10.2998 3.69984C9.42467 2.82467 8.23769 2.33301 7.00001 2.33301C5.76233 2.33301 4.57535 2.82467 3.70018 3.69984C2.82501 4.57501 2.33334 5.762 2.33334 6.99967C2.33334 8.23735 2.82501 9.42434 3.70018 10.2995C4.57535 11.1747 5.76233 11.6663 7.00001 11.6663Z" stroke="white" stroke-width="0.75" stroke-linecap="round" stroke-linejoin="round"/>
<path d="M7 1.16699V2.33366" stroke="white" stroke-width="0.75" stroke-linecap="round" stroke-linejoin="round"/>
<path d="M7 12.8337V11.667" stroke="white" stroke-width="0.75" stroke-linecap="round" stroke-linejoin="round"/>
<path d="M9.91668 12.0521L9.33334 11.043" stroke="white" stroke-width="0.75" stroke-linecap="round" stroke-linejoin="round"/>
<path d="M4.08334 1.94824L4.62263 2.88256" stroke="white" stroke-width="0.75" stroke-linecap="round" stroke-linejoin="round"/>
<path d="M12.0517 9.91634L11.0425 9.33301" stroke="white" stroke-width="0.75" stroke-linecap="round" stroke-linejoin="round"/>
<path d="M1.94833 4.08301L2.9575 4.66634" stroke="white" stroke-width="0.75" stroke-linecap="round" stroke-linejoin="round"/>
<path d="M12 7L13 7" stroke="white" stroke-width="0.75" stroke-linecap="round" stroke-linejoin="round"/>
<path d="M1.16666 7H2.33332" stroke="white" stroke-width="0.75" stroke-linecap="round" stroke-linejoin="round"/>
<path d="M12.0517 4.08301L11.0425 4.66634" stroke="white" stroke-width="0.75" stroke-linecap="round" stroke-linejoin="round"/>
<path d="M1.94833 9.91634L2.9575 9.33301" stroke="white" stroke-width="0.75" stroke-linecap="round" stroke-linejoin="round"/>
<path d="M9.91668 1.94824L9.33334 2.95741" stroke="white" stroke-width="0.75" stroke-linecap="round" stroke-linejoin="round"/>
<path d="M3.75856 11.8642C3.65503 12.0436 3.71651 12.2729 3.89588 12.3764C4.07525 12.48 4.30459 12.4185 4.40812 12.2391L3.75856 11.8642ZM4.36558 10.8125L4.06207 11.3384L4.71163 11.7133L5.01514 11.1875L4.36558 10.8125ZM4.06207 11.3384L3.75856 11.8642L4.40812 12.2391L4.71163 11.7133L4.06207 11.3384Z" fill="white"/>
</g>
<defs>
<clipPath id="clip0_5821_233">
<rect width="14" height="14" fill="white"/>
</clipPath>
</defs>
</svg>
