<svg width="14" height="14" viewBox="0 0 14 14" fill="none" xmlns="http://www.w3.org/2000/svg">
<path d="M6.29211 2.05078C6.6826 1.66029 7.31662 1.66037 7.70715 2.05078L11.9493 6.29297C12.3399 6.68349 12.3399 7.31748 11.9493 7.70801L7.70715 11.9502L7.63098 12.0186C7.26432 12.3176 6.73486 12.3177 6.36829 12.0186L6.29211 11.9502L2.04993 7.70801C1.68393 7.3419 1.66128 6.76188 1.98157 6.36914L2.04993 6.29297L6.29211 2.05078ZM7.1759 2.58105C7.09057 2.49604 6.9593 2.4851 6.86243 2.54883L6.82239 2.58105L2.5802 6.82324C2.48298 6.92079 2.483 7.0792 2.5802 7.17676L6.82239 11.4199L6.86243 11.4521C6.95922 11.5158 7.09057 11.5047 7.1759 11.4199L11.4191 7.17676C11.5041 7.09143 11.515 6.96018 11.4513 6.86328L11.4191 6.82324L7.1759 2.58105ZM6.64661 5.23242C6.84187 5.03716 7.15838 5.03716 7.35364 5.23242L8.7677 6.64648C8.96288 6.84175 8.96293 7.15828 8.7677 7.35352L7.35364 8.76758C7.1584 8.96281 6.84188 8.96276 6.64661 8.76758L5.23254 7.35352C5.03728 7.15825 5.03728 6.84175 5.23254 6.64648L6.64661 5.23242Z" fill="white"/>
</svg>
