<svg width="14" height="14" viewBox="0 0 14 14" fill="none" xmlns="http://www.w3.org/2000/svg">
<g clip-path="url(#clip0_5821_233)">
<path d="M7 0.791992C7.20711 0.791992 7.375 0.959885 7.375 1.16699V1.97266C8.00838 2.01988 8.62314 2.18558 9.18848 2.45801L9.5918 1.76074C9.69539 1.58152 9.92522 1.52058 10.1045 1.62402C10.2833 1.72778 10.3446 1.95665 10.2412 2.13574L9.83691 2.83301C10.0958 3.00928 10.3398 3.20996 10.5645 3.43457C10.789 3.65914 10.9898 3.90327 11.166 4.16211L11.8643 3.75879C12.0435 3.65542 12.2734 3.71632 12.377 3.89551C12.4801 4.07447 12.4187 4.30342 12.2402 4.40723L11.54 4.81152C11.8125 5.37704 11.9782 5.99149 12.0254 6.625H13C13.2071 6.625 13.375 6.79289 13.375 7C13.375 7.20711 13.2071 7.375 13 7.375H12.0254C11.9781 8.00826 11.8124 8.6223 11.54 9.1875L12.2402 9.5918C12.4189 9.6956 12.4803 9.92545 12.377 10.1045C12.2733 10.2835 12.0434 10.3445 11.8643 10.2412L11.166 9.83691C10.9898 10.0957 10.789 10.3399 10.5645 10.5645C10.3398 10.7891 10.0958 10.9897 9.83691 11.166L10.2412 11.8643C10.3448 12.0435 10.2836 12.2732 10.1045 12.377C9.92535 12.4803 9.6955 12.4192 9.5918 12.2402L9.1875 11.54C8.6223 11.8123 8.00823 11.9782 7.375 12.0254V12.834C7.37482 13.0409 7.207 13.209 7 13.209C6.793 13.209 6.62518 13.0409 6.625 12.834V12.0254C5.99125 11.9781 5.37622 11.8127 4.81055 11.54L4.71094 11.7129L4.4082 12.2393C4.30463 12.4185 4.07483 12.4795 3.89551 12.376C3.71663 12.2724 3.65467 12.0434 3.75781 11.8643L4.06152 11.3379L4.16113 11.165C3.90274 10.989 3.6588 10.7887 3.43457 10.5645C3.21011 10.34 3.01017 10.0956 2.83398 9.83691L2.13574 10.2412C1.95666 10.3445 1.72777 10.2833 1.62402 10.1045C1.52042 9.92521 1.5815 9.69545 1.76074 9.5918L2.45801 9.1875C2.18583 8.62247 2.02186 8.00798 1.97461 7.375H1.16699C0.959885 7.375 0.791992 7.20711 0.791992 7C0.791992 6.79289 0.959885 6.625 1.16699 6.625H1.97461C2.02185 5.99145 2.1855 5.37609 2.45801 4.81055L1.76074 4.40723C1.58155 4.30355 1.52044 4.07476 1.62402 3.89551C1.72767 3.71628 1.95647 3.65521 2.13574 3.75879L2.83301 4.16113C3.00915 3.90249 3.21017 3.65899 3.43457 3.43457C3.6588 3.21035 3.90274 3.01004 4.16113 2.83398L3.75781 2.13574C3.65457 1.9565 3.71643 1.72659 3.89551 1.62305C4.07481 1.51966 4.30466 1.58153 4.4082 1.76074L4.81055 2.45801C5.37614 2.18542 5.99137 2.01993 6.625 1.97266V1.16699C6.625 0.959885 6.79289 0.791992 7 0.791992ZM7 2.70898C6.99738 2.70898 6.99479 2.70806 6.99219 2.70801C5.8569 2.71016 4.76777 3.16192 3.96484 3.96484C3.16195 4.76783 2.71007 5.85686 2.70801 6.99219C2.70806 6.99479 2.70898 6.99739 2.70898 7C2.70898 7.00229 2.70805 7.00456 2.70801 7.00684C2.7099 8.14232 3.16189 9.23106 3.96484 10.0342C4.76961 10.8389 5.8619 11.2909 7 11.291C8.13802 11.2909 9.22943 10.8388 10.0342 10.0342C10.8389 9.22941 11.2909 8.1381 11.291 7C11.291 5.86178 10.839 4.76969 10.0342 3.96484C9.23098 3.16182 8.14244 2.70981 7.00684 2.70801C7.00456 2.70805 7.00229 2.70898 7 2.70898Z" fill="white"/>
</g>
<defs>
<clipPath id="clip0_5821_233">
<rect width="14" height="14" fill="white"/>
</clipPath>
</defs>
</svg>
