<svg width="14" height="15" viewBox="0 0 14 15" fill="none" xmlns="http://www.w3.org/2000/svg">
<path fill-rule="evenodd" clip-rule="evenodd" d="M7 13.9111C8.6576 13.9111 10.2473 13.2527 11.4194 12.0806C12.5915 10.9084 13.25 9.31874 13.25 7.66113C13.25 6.00353 12.5915 4.41382 11.4194 3.24172C10.2473 2.06961 8.6576 1.41113 7 1.41113C5.3424 1.41113 3.75268 2.06961 2.58058 3.24172C1.40848 4.41382 0.75 6.00353 0.75 7.66113C0.75 9.31874 1.40848 10.9084 2.58058 12.0806C3.75269 13.2527 5.3424 13.9111 7 13.9111ZM11.9497 12.6109C10.637 13.9236 8.85652 14.6611 7 14.6611C5.14349 14.6611 3.36301 13.9236 2.05025 12.6109C0.737498 11.2981 0 9.51765 0 7.66113C0 5.80462 0.737498 4.02414 2.05025 2.71139C3.36301 1.39863 5.14349 0.661133 7 0.661133C8.85652 0.661133 10.637 1.39863 11.9497 2.71139C13.2625 4.02414 14 5.80462 14 7.66113C14 9.51765 13.2625 11.2981 11.9497 12.6109ZM10.2652 4.39597C10.4116 4.54241 10.4116 4.77985 10.2652 4.9263L7.53033 7.66113L10.2652 10.396C10.4116 10.5424 10.4116 10.7799 10.2652 10.9263C10.1187 11.0727 9.88128 11.0727 9.73483 10.9263L7 8.19146L4.26516 10.9263C4.11872 11.0727 3.88128 11.0727 3.73483 10.9263C3.58839 10.7799 3.58839 10.5424 3.73483 10.396L6.46967 7.66113L3.73484 4.9263C3.58839 4.77985 3.58839 4.54241 3.73484 4.39597C3.88128 4.24952 4.11872 4.24952 4.26516 4.39597L7 7.1308L9.73483 4.39597C9.88128 4.24952 10.1187 4.24952 10.2652 4.39597Z" fill="white"/>
</svg>
