<svg width="14" height="14" viewBox="0 0 14 14" fill="none" xmlns="http://www.w3.org/2000/svg">
<path d="M7 0C8.85652 0 10.6374 0.73705 11.9502 2.0498C13.2629 3.36256 14 5.14348 14 7C14 8.85652 13.2629 10.6374 11.9502 11.9502C10.6374 13.2629 8.85652 14 7 14C5.14348 14 3.36256 13.2629 2.0498 11.9502C0.73705 10.6374 0 8.85652 0 7C9.47121e-08 5.14348 0.73705 3.36256 2.0498 2.0498C3.36256 0.73705 5.14348 9.47115e-08 7 0ZM7.03418 9C6.76902 9 6.51467 9.10551 6.32715 9.29297C6.13961 9.4805 6.03418 9.73478 6.03418 10C6.03418 10.2652 6.13961 10.5195 6.32715 10.707C6.51467 10.8945 6.76902 11 7.03418 11C7.29931 10.9999 7.55373 10.8945 7.74121 10.707C7.92867 10.5195 8.03418 10.2652 8.03418 10C8.03418 9.73484 7.92867 9.48049 7.74121 9.29297C7.55373 9.10549 7.29931 9.00006 7.03418 9ZM7 3C6.78061 3 6.57022 3.08712 6.41504 3.24219C6.25994 3.39729 6.17297 3.60782 6.17285 3.82715V7.17285C6.17297 7.39218 6.25994 7.60271 6.41504 7.75781C6.57022 7.91287 6.78062 8 7 8C7.21939 8 7.42978 7.91288 7.58496 7.75781C7.74006 7.60271 7.82703 7.39218 7.82715 7.17285V3.82715C7.82703 3.60782 7.74006 3.39729 7.58496 3.24219C7.42978 3.08713 7.21938 3 7 3Z" fill="white"/>
</svg>
