<svg width="14" height="14" viewBox="0 0 14 14" fill="none" xmlns="http://www.w3.org/2000/svg">
<path fill-rule="evenodd" clip-rule="evenodd" d="M7 13.25C8.6576 13.25 10.2473 12.5915 11.4194 11.4194C12.5915 10.2473 13.25 8.6576 13.25 7C13.25 5.3424 12.5915 3.75269 11.4194 2.58058C10.2473 1.40848 8.6576 0.75 7 0.75C5.3424 0.75 3.75268 1.40848 2.58058 2.58058C1.40848 3.75268 0.75 5.3424 0.75 7C0.75 8.6576 1.40848 10.2473 2.58058 11.4194C3.75269 12.5915 5.3424 13.25 7 13.25ZM11.9497 11.9497C10.637 13.2625 8.85652 14 7 14C5.14349 14 3.36301 13.2625 2.05025 11.9497C0.737498 10.637 0 8.85652 0 7C0 5.14349 0.737498 3.36301 2.05025 2.05025C3.36301 0.737498 5.14349 0 7 0C8.85652 0 10.637 0.737498 11.9497 2.05025C13.2625 3.36301 14 5.14349 14 7C14 8.85652 13.2625 10.637 11.9497 11.9497ZM10.2652 3.73483C10.4116 3.88128 10.4116 4.11872 10.2652 4.26516L7.53033 7L10.2652 9.73484C10.4116 9.88128 10.4116 10.1187 10.2652 10.2652C10.1187 10.4116 9.88128 10.4116 9.73483 10.2652L7 7.53033L4.26516 10.2652C4.11872 10.4116 3.88128 10.4116 3.73483 10.2652C3.58839 10.1187 3.58839 9.88128 3.73483 9.73483L6.46967 7L3.73484 4.26516C3.58839 4.11872 3.58839 3.88128 3.73484 3.73483C3.88128 3.58839 4.11872 3.58839 4.26516 3.73483L7 6.46967L9.73483 3.73483C9.88128 3.58839 10.1187 3.58839 10.2652 3.73483Z" fill="white"/>
</svg>
