<svg width="14" height="14" viewBox="0 0 14 14" fill="none" xmlns="http://www.w3.org/2000/svg">
<path d="M7.00032 1.62109C7.02606 1.6211 7.05166 1.6237 7.07649 1.62891C7.15168 1.64429 7.2184 1.6823 7.26985 1.73535L10.265 4.7334C10.4113 4.87989 10.4114 5.11828 10.265 5.26465C10.1185 5.41068 9.88097 5.40999 9.7347 5.26367L7.3763 2.90332L7.37727 6.99609V11.0928L9.7347 8.73535C9.881 8.58905 10.1185 8.58832 10.265 8.73438C10.4113 8.88073 10.4122 9.11914 10.2659 9.26562L7.27669 12.2539C7.20827 12.3276 7.11173 12.3749 7.00325 12.375L7.00227 12.374V12.375C6.99406 12.375 6.98601 12.3726 6.97786 12.3721C6.94585 12.3699 6.91538 12.3642 6.88606 12.3545C6.83052 12.3363 6.77863 12.3066 6.73665 12.2646L3.7347 9.26465C3.58871 9.11831 3.58872 8.88173 3.7347 8.73535C3.88102 8.58898 4.11847 8.58824 4.26497 8.73438L6.62727 11.0957V6.99609L6.6263 2.90137L4.26497 5.26465C4.11861 5.41078 3.88111 5.41075 3.7347 5.26465C3.58839 5.11831 3.58855 4.88085 3.7347 4.73438L6.73079 1.73535C6.74876 1.71673 6.76888 1.70014 6.79036 1.68555C6.83167 1.65748 6.87818 1.63782 6.92708 1.62793L7.00032 1.62109Z" fill="white"/>
</svg>
