<svg width="14" height="14" viewBox="0 0 14 14" fill="none" xmlns="http://www.w3.org/2000/svg">
<path d="M5.625 2C5.83211 2 6 2.16789 6 2.375C6 2.58211 5.83211 2.75 5.625 2.75H3C2.86193 2.75 2.75 2.86193 2.75 3V11C2.75 11.1381 2.86193 11.25 3 11.25H11C11.1381 11.25 11.25 11.1381 11.25 11V8.375C11.25 8.16789 11.4179 8 11.625 8C11.8321 8 12 8.16789 12 8.375V11L11.9951 11.1025C11.9472 11.573 11.573 11.9472 11.1025 11.9951L11 12H3L2.89746 11.9951C2.42703 11.9472 2.05278 11.573 2.00488 11.1025L2 11V3C2 2.48232 2.39333 2.05621 2.89746 2.00488L3 2H5.625ZM11.6973 2.00488C11.7035 2.0062 11.7097 2.00917 11.7158 2.01074C11.7325 2.01502 11.7495 2.01974 11.7656 2.02637C11.7729 2.02942 11.78 2.03364 11.7871 2.03711C11.8231 2.05475 11.8577 2.07755 11.8877 2.10742C11.9223 2.14194 11.9497 2.18367 11.9688 2.22949C11.9877 2.27536 11.998 2.32417 11.998 2.37305V6.37305C11.998 6.57994 11.8299 6.74769 11.623 6.74805C11.4159 6.74805 11.248 6.58015 11.248 6.37305V3.27734L7.2334 7.29199C7.08701 7.43838 6.84959 7.43826 6.70312 7.29199C6.55702 7.14552 6.55679 6.90805 6.70312 6.76172L10.7168 2.74805H7.62305C7.41594 2.74805 7.24805 2.58015 7.24805 2.37305C7.24805 2.16594 7.41594 1.99805 7.62305 1.99805H11.623C11.6478 1.99808 11.6729 1.99999 11.6973 2.00488Z" fill="white"/>
</svg>
