<svg width="14" height="14" viewBox="0 0 14 14" fill="none" xmlns="http://www.w3.org/2000/svg">
<path d="M3 12V3C3 2.92238 3.01807 2.84582 3.05279 2.77639C3.0875 2.70697 3.1379 2.64657 3.2 2.6C3.71929 2.21053 4.35089 2 5 2C6.5 2 7.5 3 8.6665 3C9.33317 3 9.84433 2.86667 10.2 2.6C10.2743 2.54429 10.3626 2.51036 10.4551 2.50202C10.5476 2.49368 10.6406 2.51126 10.7236 2.55279C10.8067 2.59431 10.8765 2.65815 10.9253 2.73713C10.9741 2.81612 11 2.90714 11 3V8C11 8.07762 10.9819 8.15418 10.9472 8.22361C10.9125 8.29303 10.8621 8.35343 10.8 8.4C10.2807 8.78947 9.64911 9 9 9C7.5 9 6.5 8 5 8C4.26206 8.00002 3.55001 8.27202 3 8.764" stroke="white" stroke-linecap="round" stroke-linejoin="round"/>
</svg>
