<svg width="14" height="14" viewBox="0 0 14 14" fill="none" xmlns="http://www.w3.org/2000/svg">
<path d="M11.1328 0C11.3399 6.59562e-05 11.5078 0.167934 11.5078 0.375V13.625C11.5078 13.8321 11.3399 13.9999 11.1328 14C10.9257 14 10.7578 13.8321 10.7578 13.625V0.375C10.7578 0.167893 10.9257 0 11.1328 0ZM2.49219 0.338867C2.49219 0.116288 2.76141 0.00409985 2.91895 0.161133L9.58105 6.82324C9.67857 6.92079 9.67842 7.07912 9.58105 7.17676L2.91895 13.8389L2.85547 13.8857C2.72091 13.9551 2.54998 13.8845 2.50391 13.7402L2.49219 13.6621V0.338867ZM3.24219 12.4551L8.69629 7L3.24219 1.54492V12.4551Z" fill="white"/>
</svg>
