<svg width="12" height="12" viewBox="0 0 12 12" fill="none" xmlns="http://www.w3.org/2000/svg">
<path d="M9.5424 0C9.71983 5.29161e-05 9.86362 0.143866 9.86369 0.321289V11.6787C9.86362 11.8561 9.71983 11.9999 9.5424 12C9.36493 12 9.22119 11.8562 9.22112 11.6787V0.321289C9.22119 0.143833 9.36493 0 9.5424 0ZM2.13615 0.290039C2.13627 0.0992829 2.36739 0.00389665 2.50237 0.138672L8.21233 5.84863C8.29577 5.93225 8.29573 6.06772 8.21233 6.15137L2.50237 11.8613L2.44768 11.9014C2.31303 11.9712 2.13615 11.8771 2.13615 11.71V0.290039ZM2.77873 10.6758L7.45451 6L2.77873 1.32422V10.6758Z" fill="white"/>
</svg>
