<svg width="14" height="15" viewBox="0 0 14 15" fill="none" xmlns="http://www.w3.org/2000/svg">
<g clip-path="url(#clip0_4553_14693)">
<mask id="mask0_4553_14693" style="mask-type:luminance" maskUnits="userSpaceOnUse" x="1" y="1" width="13" height="12">
<path d="M13.04 1.66113H1V12.9486H13.04V1.66113Z" fill="white"/>
</mask>
<g mask="url(#mask0_4553_14693)">
<mask id="mask1_4553_14693" style="mask-type:luminance" maskUnits="userSpaceOnUse" x="1" y="1" width="13" height="12">
<path d="M13.04 1.66113H1V12.9486H13.04V1.66113Z" fill="white"/>
</mask>
<g mask="url(#mask1_4553_14693)">
<path fill-rule="evenodd" clip-rule="evenodd" d="M7.00207 1.66113C3.68309 1.66113 1 4.24785 1 7.44798C1 10.006 2.71914 12.1713 5.10403 12.9377C5.40223 12.9953 5.51144 12.8132 5.51144 12.66C5.51144 12.5258 5.50161 12.066 5.50161 11.5868C3.83198 11.9318 3.48429 10.897 3.48429 10.897C3.21597 10.2263 2.81841 10.054 2.81841 10.054C2.27194 9.69948 2.85821 9.69948 2.85821 9.69948C3.46439 9.73781 3.78247 10.2935 3.78247 10.2935C4.31898 11.1748 5.18352 10.9258 5.53133 10.7725C5.58097 10.3988 5.74007 10.1402 5.90901 9.99648C4.57736 9.86232 3.17629 9.36415 3.17629 7.14133C3.17629 6.509 3.41463 5.99165 3.7923 5.5893C3.7327 5.44562 3.52399 4.8515 3.852 4.05632C3.852 4.05632 4.35878 3.903 5.50148 4.65032C5.99071 4.52364 6.49526 4.45921 7.00207 4.45867C7.50885 4.45867 8.02547 4.52581 8.50253 4.65032C9.64535 3.903 10.1521 4.05632 10.1521 4.05632C10.4801 4.8515 10.2713 5.44562 10.2117 5.5893C10.5993 5.99165 10.8278 6.509 10.8278 7.14133C10.8278 9.36415 9.42677 9.85268 8.08516 9.99648C8.30387 10.1785 8.49257 10.5233 8.49257 11.0695C8.49257 11.8455 8.48273 12.4683 8.48273 12.6599C8.48273 12.8132 8.59207 12.9953 8.89014 12.9378C11.275 12.1712 12.9942 10.006 12.9942 7.44798C13.004 4.24785 10.3111 1.66113 7.00207 1.66113Z" fill="white"/>
</g>
</g>
</g>
<defs>
<clipPath id="clip0_4553_14693">
<rect width="12.04" height="11.2875" fill="white" transform="translate(1 1.66113)"/>
</clipPath>
</defs>
</svg>
