<svg width="14" height="14" viewBox="0 0 14 14" fill="none" xmlns="http://www.w3.org/2000/svg">
<path fill-rule="evenodd" clip-rule="evenodd" d="M7.00207 1C3.68309 1 1 3.58672 1 6.78684C1 9.34487 2.71914 11.5102 5.10403 12.2766C5.40223 12.3342 5.51144 12.1521 5.51144 11.9988C5.51144 11.8647 5.50161 11.4048 5.50161 10.9257C3.83198 11.2707 3.48429 10.2359 3.48429 10.2359C3.21597 9.56521 2.81841 9.39284 2.81841 9.39284C2.27194 9.03835 2.85821 9.03835 2.85821 9.03835C3.46439 9.07668 3.78247 9.63235 3.78247 9.63235C4.31898 10.5137 5.18352 10.2647 5.53133 10.1114C5.58097 9.7377 5.74007 9.47903 5.90901 9.33535C4.57736 9.20119 3.17629 8.70301 3.17629 6.4802C3.17629 5.84786 3.41463 5.33052 3.7923 4.92817C3.7327 4.78449 3.52399 4.19036 3.852 3.39518C3.852 3.39518 4.35878 3.24186 5.50148 3.98919C5.99071 3.86251 6.49526 3.79808 7.00207 3.79754C7.50885 3.79754 8.02547 3.86467 8.50253 3.98919C9.64535 3.24186 10.1521 3.39518 10.1521 3.39518C10.4801 4.19036 10.2713 4.78449 10.2117 4.92817C10.5993 5.33052 10.8278 5.84786 10.8278 6.4802C10.8278 8.70301 9.42677 9.19155 8.08516 9.33535C8.30387 9.51736 8.49257 9.86222 8.49257 10.4084C8.49257 11.1844 8.48273 11.8072 8.48273 11.9987C8.48273 12.1521 8.59207 12.3342 8.89014 12.2767C11.275 11.5101 12.9942 9.34487 12.9942 6.78684C13.004 3.58672 10.3111 1 7.00207 1Z" fill="white"/>
</svg>
