<svg width="14" height="14" viewBox="0 0 14 14" fill="none" xmlns="http://www.w3.org/2000/svg">
<g clip-path="url(#clip0_3963_2834)">
<path d="M13.6104 9.25488C13.8175 9.25488 13.9854 9.42278 13.9854 9.62988V10.6289C13.985 12.491 12.4754 14.001 10.6133 14.001H9.61426C9.40747 14.0008 9.23959 13.8327 9.23926 13.626C9.23926 13.419 9.40727 13.2511 9.61426 13.251H10.6133C12.0612 13.251 13.235 12.0768 13.2354 10.6289V9.62988C13.2354 9.42286 13.4034 9.25502 13.6104 9.25488ZM0.375 9.23926C0.582043 9.23926 0.749896 9.40724 0.75 9.61426V10.6133C0.750198 12.0612 1.92409 13.2353 3.37207 13.2354H4.37109L4.44629 13.2432C4.61729 13.278 4.746 13.4291 4.74609 13.6104C4.74592 13.7915 4.6172 13.9427 4.44629 13.9775L4.37109 13.9854H3.37207C1.50988 13.9853 0.000197701 12.4754 0 10.6133V9.61426C0.000104063 9.40726 0.167985 9.23929 0.375 9.23926ZM10.8018 0.0195312C12.5837 0.109631 14.001 1.5834 14.001 3.3877V4.38672C14.0005 4.59337 13.8327 4.76159 13.626 4.76172C13.4192 4.76169 13.2514 4.59344 13.251 4.38672V3.3877C13.251 2.02997 12.2188 0.912456 10.8965 0.77832L10.6289 0.765625H9.62988C9.42307 0.765592 9.25532 0.59734 9.25488 0.390625C9.25488 0.183539 9.4228 0.015658 9.62988 0.015625H10.6289L10.8018 0.0195312ZM4.46191 0.0078125C4.63274 0.0428213 4.76172 0.19382 4.76172 0.375C4.76155 0.556022 4.63263 0.707207 4.46191 0.742188L4.38672 0.75H3.3877C1.93959 0.750033 0.765627 1.92396 0.765625 3.37207V4.37109C0.765427 4.57788 0.597406 4.74585 0.390625 4.74609C0.183668 4.74606 0.0158225 4.57801 0.015625 4.37109V3.37207C0.0156265 1.50975 1.52538 3.29571e-05 3.3877 0H4.38672L4.46191 0.0078125Z" fill="white"/>
</g>
<defs>
<clipPath id="clip0_3963_2834">
<rect width="14" height="14" fill="white"/>
</clipPath>
</defs>
</svg>
