<svg width="12" height="13" viewBox="0 0 12 13" fill="none" xmlns="http://www.w3.org/2000/svg">
<path d="M4.93892 8.49814V8.39196C4.942 7.82875 4.99586 7.38095 5.1005 7.04856C5.20821 6.7131 5.36056 6.44226 5.55753 6.23606C5.75758 6.02986 5.99763 5.84058 6.2777 5.66824C6.46236 5.55436 6.62855 5.42664 6.77628 5.28507C6.92401 5.14042 7.04096 4.97884 7.12713 4.80034C7.2133 4.61876 7.25639 4.41563 7.25639 4.19096C7.25639 3.93552 7.19638 3.71239 7.07635 3.52157C6.95632 3.33076 6.79321 3.18457 6.587 3.08301C6.38388 2.97837 6.15767 2.92605 5.90838 2.92605C5.68371 2.92605 5.46828 2.97529 5.26207 3.07378C5.05587 3.16918 4.88506 3.31537 4.74964 3.51234C4.61423 3.70931 4.53883 3.96168 4.52344 4.26944H3C3.01847 3.70008 3.1585 3.2215 3.4201 2.83372C3.68478 2.44593 4.03409 2.15356 4.46804 1.95659C4.90507 1.75962 5.38826 1.66113 5.91761 1.66113C6.49313 1.66113 6.99941 1.76577 7.43643 1.97505C7.87346 2.18126 8.21354 2.47517 8.45668 2.8568C8.69981 3.23535 8.82138 3.67853 8.82138 4.18635C8.82138 4.5372 8.76598 4.85112 8.65518 5.12811C8.54439 5.40202 8.38743 5.64669 8.1843 5.86213C7.98118 6.07756 7.73958 6.26992 7.45952 6.43919C7.20407 6.59615 6.99633 6.7608 6.83629 6.93315C6.67933 7.10242 6.56238 7.30247 6.48544 7.53329C6.41158 7.76412 6.37311 8.05034 6.37003 8.39196V8.49814H4.93892ZM5.69141 11.3419C5.42365 11.3419 5.19437 11.248 5.00355 11.0603C4.81581 10.8695 4.72195 10.6402 4.72195 10.3724C4.72195 10.1077 4.81581 9.88154 5.00355 9.6938C5.19437 9.50299 5.42365 9.40758 5.69141 9.40758C5.95301 9.40758 6.17921 9.50299 6.37003 9.6938C6.56392 9.88154 6.66087 10.1077 6.66087 10.3724C6.66087 10.5479 6.61624 10.7094 6.52699 10.8572C6.43774 11.0049 6.31925 11.1234 6.17152 11.2126C6.02687 11.2988 5.86683 11.3419 5.69141 11.3419Z" fill="white"/>
</svg>
