<svg width="14" height="14" viewBox="0 0 14 14" fill="none" xmlns="http://www.w3.org/2000/svg">
<path d="M5.93892 9.1435V9.01962C5.942 8.36254 5.99586 7.84011 6.1005 7.45233C6.20822 7.06095 6.36056 6.74498 6.55753 6.50441C6.75758 6.26384 6.99763 6.04302 7.2777 5.84194C7.46236 5.70909 7.62855 5.56008 7.77628 5.39492C7.92401 5.22616 8.04096 5.03765 8.12713 4.8294C8.21331 4.61755 8.25639 4.38057 8.25639 4.11846C8.25639 3.82044 8.19638 3.56012 8.07635 3.33751C7.95632 3.11489 7.79321 2.94434 7.587 2.82585C7.38388 2.70377 7.15767 2.64273 6.90838 2.64273C6.68371 2.64273 6.46828 2.70018 6.26207 2.81508C6.05587 2.92638 5.88506 3.09694 5.74965 3.32673C5.61423 3.55653 5.53883 3.85096 5.52344 4.21002H4C4.01847 3.54576 4.1585 2.98742 4.4201 2.53501C4.68478 2.08259 5.03409 1.74149 5.46804 1.51169C5.90507 1.28189 6.38826 1.16699 6.91761 1.16699C7.49314 1.16699 7.99941 1.28907 8.43644 1.53323C8.87346 1.7738 9.21354 2.1167 9.45668 2.56194C9.69981 3.00358 9.82138 3.52063 9.82138 4.11307C9.82138 4.5224 9.76598 4.88864 9.65519 5.2118C9.54439 5.53136 9.38743 5.81681 9.1843 6.06815C8.98118 6.31949 8.73958 6.54391 8.45952 6.74139C8.20407 6.92451 7.99633 7.11661 7.83629 7.31768C7.67933 7.51516 7.56238 7.74855 7.48544 8.01784C7.41158 8.28714 7.37311 8.62106 7.37003 9.01962V9.1435H5.93892ZM6.69141 12.4612C6.42365 12.4612 6.19437 12.3517 6.00355 12.1327C5.81581 11.91 5.72195 11.6425 5.72195 11.3302C5.72195 11.0214 5.81581 10.7575 6.00355 10.5384C6.19437 10.3158 6.42365 10.2045 6.69141 10.2045C6.95301 10.2045 7.17921 10.3158 7.37003 10.5384C7.56392 10.7575 7.66087 11.0214 7.66087 11.3302C7.66087 11.5348 7.61624 11.7233 7.52699 11.8957C7.43774 12.068 7.31925 12.2063 7.17152 12.3104C7.02687 12.4109 6.86683 12.4612 6.69141 12.4612Z" fill="white"/>
</svg>
