<svg width="14" height="14" viewBox="0 0 14 14" fill="none" xmlns="http://www.w3.org/2000/svg">
<path d="M7 0C8.85652 0 10.6374 0.73705 11.9502 2.0498C13.2629 3.36256 14 5.14348 14 7C14 8.85652 13.2629 10.6374 11.9502 11.9502C10.6374 13.2629 8.85652 14 7 14C5.14348 14 3.36256 13.2629 2.0498 11.9502C0.73705 10.6374 0 8.85652 0 7C9.47121e-08 5.14348 0.73705 3.36256 2.0498 2.0498C3.36256 0.73705 5.14348 9.47115e-08 7 0ZM5.40039 5.59961V6.38379H6.74414V9.21582H5.2002V10H9V9.21582H7.58398V5.59961H5.40039ZM7.08008 3.74414C6.89341 3.74414 6.74384 3.79515 6.63184 3.89648C6.52007 3.99244 6.46389 4.12544 6.46387 4.2959C6.46387 4.46123 6.51984 4.59496 6.63184 4.69629C6.74383 4.79225 6.89345 4.83984 7.08008 4.83984C7.26669 4.83983 7.41634 4.79227 7.52832 4.69629C7.64029 4.59496 7.69629 4.46121 7.69629 4.2959C7.69627 4.1255 7.64 3.99244 7.52832 3.89648C7.41634 3.79517 7.26669 3.74416 7.08008 3.74414Z" fill="white"/>
</svg>
