<svg width="14" height="14" viewBox="0 0 14 14" fill="none" xmlns="http://www.w3.org/2000/svg">
<path d="M7 0C8.85652 0 10.6374 0.73705 11.9502 2.0498C13.2629 3.36256 14 5.14348 14 7C14 8.85652 13.2629 10.6374 11.9502 11.9502C10.6374 13.2629 8.85652 14 7 14C5.14348 14 3.36256 13.2629 2.0498 11.9502C0.73705 10.6374 0 8.85652 0 7C1.26283e-07 5.14348 0.73705 3.36256 2.0498 2.0498C3.36256 0.73705 5.14348 1.26282e-07 7 0ZM7 0.75C5.3424 0.75 3.75316 1.40895 2.58105 2.58105C1.40895 3.75316 0.75 5.3424 0.75 7C0.75 8.6576 1.40895 10.2468 2.58105 11.4189C3.75316 12.591 5.3424 13.25 7 13.25C8.6576 13.25 10.2468 12.591 11.4189 11.4189C12.591 10.2468 13.25 8.6576 13.25 7C13.25 5.3424 12.591 3.75316 11.4189 2.58105C10.2468 1.40895 8.6576 0.75 7 0.75ZM7.58398 9.21582H9V10H5.2002V9.21582H6.74414V6.38379H5.40039V5.59961H7.58398V9.21582ZM7.08008 3.74414C7.2667 3.74416 7.41634 3.79419 7.52832 3.89551C7.6403 3.99151 7.69629 4.12524 7.69629 4.2959C7.69628 4.46121 7.64031 4.59496 7.52832 4.69629C7.41634 4.79226 7.26669 4.83983 7.08008 4.83984C6.89349 4.83984 6.74382 4.79221 6.63184 4.69629C6.51984 4.59496 6.46388 4.46121 6.46387 4.2959C6.46387 4.12523 6.51984 3.99151 6.63184 3.89551C6.74383 3.79423 6.89347 3.74414 7.08008 3.74414Z" fill="white"/>
</svg>
