<svg width="14" height="14" viewBox="0 0 14 14" fill="none" xmlns="http://www.w3.org/2000/svg">
<g clip-path="url(#clip0_3709_10947)">
<path d="M14.1312 0.399414L10.7621 3.76758C12.5072 4.55742 13.5357 5.82411 13.9662 6.85547C13.9948 6.92408 14.0026 6.99936 13.9886 7.07129L13.9672 7.1416C13.2876 8.80067 11.1198 10.9852 7.00037 10.9854C5.84985 10.9854 4.85164 10.814 3.99548 10.5322L0.398804 14.1309L-0.13147 13.6006L3.23181 10.2363C1.66234 9.52975 0.673032 8.43632 0.178101 7.45801L0.0335693 7.1416C-0.00395981 7.04981 -0.00362834 6.947 0.0345459 6.85547C0.713632 5.22874 2.87862 3.01367 7.00037 3.01367C8.14819 3.01371 9.14396 3.18672 9.99841 3.46973L13.601 -0.130859L14.1312 0.399414ZM8.29626 6.2334C8.42945 6.45823 8.50818 6.71974 8.50818 7C8.50799 7.83258 7.83294 8.50759 7.00037 8.50781C6.71981 8.50781 6.45778 8.42934 6.23279 8.2959L4.59705 9.93066C5.29442 10.1216 6.09287 10.2354 7.00037 10.2354C10.6918 10.2352 12.5765 8.36217 13.2074 7.00098C12.7926 6.12139 11.8381 5.0034 10.1908 4.33789L8.29626 6.2334ZM7.00037 3.76367C3.31288 3.76367 1.42497 5.65954 0.792358 7.00098C1.20555 7.89277 2.15683 9.00447 3.80212 9.66504L5.70251 7.76562C5.56964 7.54104 5.49164 7.27984 5.49158 7C5.49158 6.16712 6.16749 5.49121 7.00037 5.49121C7.28019 5.49129 7.54142 5.56928 7.76599 5.70215L9.39685 4.07031C8.70097 3.87831 7.90486 3.7637 7.00037 3.76367Z" fill="white"/>
</g>
<defs>
<clipPath id="clip0_3709_10947">
<rect width="14" height="14" fill="white"/>
</clipPath>
</defs>
</svg>
