<svg width="18" height="18" viewBox="0 0 18 18" fill="none" xmlns="http://www.w3.org/2000/svg">
<path fill-rule="evenodd" clip-rule="evenodd" d="M15.2732 8.85722C15.3519 8.66595 15.571 8.57478 15.7625 8.65312C15.9538 8.73179 16.045 8.95089 15.9666 9.14238C15.7545 9.65985 15.3973 10.2279 14.8816 10.7654L15.8719 11.6648C16.0252 11.804 16.0364 12.0418 15.8972 12.1951C15.758 12.3481 15.5212 12.3596 15.3679 12.2205L14.3279 11.2762C13.8312 11.6834 13.2298 12.0527 12.5164 12.3436L13.1209 14.0828C13.1888 14.2784 13.085 14.4923 12.8894 14.5603C12.6938 14.6283 12.4798 14.5245 12.4119 14.3289L11.8084 12.5945C11.0937 12.81 10.2845 12.9493 9.37478 12.9793V14.7195C9.37468 14.9265 9.20682 15.0945 8.99978 15.0945C8.79284 15.0944 8.62489 14.9265 8.62478 14.7195V12.9793C7.71635 12.9493 6.9081 12.8106 6.19412 12.5955L5.58767 14.3406C5.51972 14.5363 5.30578 14.64 5.11014 14.5721C4.91459 14.5041 4.81075 14.2901 4.87869 14.0945L5.48611 12.3455C4.77414 12.0556 4.17379 11.687 3.67752 11.2811L2.63162 12.2322C2.47837 12.3713 2.24155 12.3599 2.10232 12.2068C1.96313 12.0535 1.97436 11.8158 2.12771 11.6766L3.12381 10.7713C2.60514 10.2321 2.2458 9.66174 2.03299 9.14238C1.95459 8.95098 2.04595 8.73189 2.23709 8.65312C2.42858 8.57469 2.64767 8.66591 2.72635 8.85722C3.28708 10.2261 5.17554 12.2361 8.99978 12.2361C12.824 12.2361 14.7124 10.2262 15.2732 8.85722Z" fill="white"/>
</svg>
