<svg width="14" height="14" viewBox="0 0 14 14" fill="none" xmlns="http://www.w3.org/2000/svg">
<g id="Icon/dataset">
<path id="Union" d="M7 1C8.5888 1 10.0449 1.25663 11.1172 1.68555C11.6521 1.89953 12.1099 2.16408 12.4404 2.47656C12.7718 2.78993 13 3.178 13 3.625C13 4.072 12.7718 4.46007 12.4404 4.77344C12.2285 4.97381 11.9635 5.15321 11.6602 5.31348C11.9633 5.47366 12.2286 5.6523 12.4404 5.85254C12.7717 6.16587 13 6.55408 13 7.00098C12.9999 7.44779 12.7717 7.83615 12.4404 8.14941C12.2292 8.34906 11.9652 8.52768 11.6631 8.6875C11.943 8.83547 12.1896 8.9993 12.3916 9.18066C12.7494 9.50205 12.9997 9.90573 13 10.374C13 10.8208 12.7716 11.2092 12.4404 11.5225C12.11 11.8349 11.652 12.0995 11.1172 12.3135C10.0449 12.7424 8.58874 12.999 7 12.999C6.27757 12.999 5.58416 12.9462 4.94336 12.8486C4.73882 12.8173 4.59776 12.6255 4.62891 12.4209C4.66063 12.2169 4.85237 12.0764 5.05664 12.1074C5.65849 12.199 6.31387 12.249 7 12.249C8.51757 12.249 9.87439 12.0025 10.8379 11.6172C11.3206 11.4241 11.6871 11.2033 11.9258 10.9775C12.1632 10.7528 12.25 10.5482 12.25 10.374C12.2497 10.1918 12.1542 9.97502 11.8906 9.73828C11.6299 9.50425 11.2335 9.27893 10.7168 9.08496C9.69496 9.42539 8.39913 9.62598 7 9.62598C6.79304 9.62598 6.62524 9.45788 6.625 9.25098C6.625 9.04387 6.79289 8.87598 7 8.87598C8.51752 8.87598 9.87437 8.62944 10.8379 8.24414C11.3206 8.05107 11.6871 7.83018 11.9258 7.60449C12.1634 7.37974 12.2499 7.17516 12.25 7.00098C12.25 6.82675 12.1634 6.62232 11.9258 6.39746C11.6871 6.17173 11.3206 5.95092 10.8379 5.75781C10.7966 5.74129 10.7537 5.72694 10.7109 5.71094C9.68999 6.05021 8.39651 6.25 7 6.25C5.60309 6.25 4.30917 6.05038 3.28809 5.71094C3.24565 5.72684 3.20314 5.7414 3.16211 5.75781C2.67937 5.95092 2.31291 6.17173 2.07422 6.39746C1.83659 6.62232 1.75 6.82675 1.75 7.00098C1.75012 7.1418 1.80645 7.29904 1.95117 7.47266C2.08355 7.63173 2.06133 7.86843 1.90234 8.00098C1.74336 8.13321 1.50757 8.11184 1.375 7.95312C1.14676 7.67936 1.00012 7.35773 1 7.00098C1 6.55408 1.22833 6.16587 1.55957 5.85254C1.77118 5.65246 2.03604 5.47356 2.33887 5.31348C2.0358 5.15331 1.77131 4.97364 1.55957 4.77344C1.22822 4.46007 1 4.072 1 3.625C1 3.178 1.22822 2.78993 1.55957 2.47656C1.89006 2.16408 2.34793 1.89953 2.88281 1.68555C3.95511 1.25663 5.4112 1 7 1ZM7 1.75C5.4824 1.75 4.12564 1.99651 3.16211 2.38184C2.67929 2.57496 2.31294 2.79573 2.07422 3.02148C1.83642 3.24643 1.75 3.45072 1.75 3.625C1.75 3.79928 1.83642 4.00357 2.07422 4.22852C2.31294 4.45427 2.67929 4.67504 3.16211 4.86816C4.12564 5.25349 5.4824 5.5 7 5.5C8.5176 5.5 9.87436 5.25349 10.8379 4.86816C11.3207 4.67504 11.6871 4.45427 11.9258 4.22852C12.1636 4.00357 12.25 3.79928 12.25 3.625C12.25 3.45072 12.1636 3.24643 11.9258 3.02148C11.6871 2.79573 11.3207 2.57496 10.8379 2.38184C9.87436 1.99651 8.5176 1.75 7 1.75Z" fill="white"/>
<path id="Vector" d="M2 9.3432C1.60058 9.65226 1.375 10.0031 1.375 10.375C1.375 10.5051 1.4026 10.6326 1.45559 10.7566" stroke="white" stroke-width="0.75" stroke-linecap="round" stroke-linejoin="round"/>
<path id="Vector_2" d="M5.5 8.5L1.5 12.5" stroke="#2A6CFF" stroke-width="0.75" stroke-linecap="round" stroke-linejoin="round"/>
<path id="Vector (Stroke)" d="M5.25 11V8.75H3C2.79289 8.75 2.625 8.58211 2.625 8.375C2.625 8.16789 2.79289 8 3 8H5.625C5.83193 8.00021 6 8.16802 6 8.375V11C5.99989 11.2069 5.83186 11.3748 5.625 11.375C5.41796 11.375 5.25011 11.207 5.25 11Z" fill="#2A6CFF"/>
<path id="Vector_3" d="M7 4.1875C7.77665 4.1875 8.40625 3.93566 8.40625 3.625C8.40625 3.31434 7.77665 3.0625 7 3.0625C6.22335 3.0625 5.59375 3.31434 5.59375 3.625C5.59375 3.93566 6.22335 4.1875 7 4.1875Z" fill="white"/>
</g>
</svg>
