<svg width="14" height="15" viewBox="0 0 14 15" fill="none" xmlns="http://www.w3.org/2000/svg">
<path d="M7 1.66113C10.3137 1.66113 13 4.34742 13 7.66113C13 10.9748 10.3137 13.6611 7 13.6611C3.68629 13.6611 1 10.9748 1 7.66113C1 4.34742 3.68629 1.66113 7 1.66113ZM7 2.41113C4.22663 2.41113 1.95698 4.5617 1.76465 7.28613H8.09473L6.34863 5.54004C6.20219 5.39359 6.20219 5.15621 6.34863 5.00977C6.49508 4.86332 6.73246 4.86332 6.87891 5.00977L9.26562 7.39551C9.41207 7.54195 9.41207 7.78031 9.26562 7.92676L6.87891 10.3125C6.73246 10.4589 6.49508 10.4589 6.34863 10.3125C6.20219 10.1661 6.20219 9.92867 6.34863 9.78223L8.09473 8.03613H1.76465C1.95698 10.7606 4.22663 12.9111 7 12.9111C9.8995 12.9111 12.25 10.5606 12.25 7.66113C12.25 4.76164 9.8995 2.41113 7 2.41113Z" fill="white"/>
</svg>
