<svg width="14" height="14" viewBox="0 0 14 14" fill="none" xmlns="http://www.w3.org/2000/svg">
<g transform="translate(1.125 2.125)"><path d="M5.875 9.375H10.375C10.9273 9.375 11.375 8.92728 11.375 8.375V5.375L9.56358 0.846457C9.44969 0.561713 9.1739 0.375 8.86723 0.375H2.88277C2.5761 0.375 2.30031 0.561713 2.18642 0.846457L0.375 5.375V8.375" stroke="black" stroke-width="0.75" stroke-linecap="round"/></g>
<g transform="translate(1.1244 7.1248)"><path d="M11.375 0.375H0.375" stroke="black" stroke-width="0.75" stroke-linecap="round" stroke-linejoin="round"/></g>
<g transform="translate(10.122 9.125)"><path d="M0.375 0.375H0.381667" stroke="black" stroke-width="0.75" stroke-linecap="round" stroke-linejoin="round"/></g>
<g transform="translate(8.122 9.125)"><path d="M0.375 0.375H0.381667" stroke="black" stroke-width="0.75" stroke-linecap="round" stroke-linejoin="round"/></g>
<g transform="translate(1.1244 8.6256)"><path d="M3.875 0.375L0.375 3.875" stroke="#2A6CFF" stroke-width="0.75" stroke-linecap="round" stroke-linejoin="round"/></g>
<g transform="translate(2.3996 8.2502)"><path d="M2.625 3V0.75H0.375C0.167893 0.75 0 0.582107 0 0.375C0 0.167893 0.167893 0 0.375 0H3C3.20693 0.000210899 3.375 0.168023 3.375 0.375V3C3.37489 3.20689 3.20686 3.37479 3 3.375C2.79296 3.375 2.62511 3.20702 2.625 3Z" fill="#2A6CFF"/></g>
</svg>
