<svg width="14" height="14" viewBox="0 0 14 14" fill="none" xmlns="http://www.w3.org/2000/svg">
<g id="Icon/recording">
<path id="Union" d="M7 1.125C8.06937 1.125 9.07304 1.41112 9.9375 1.91113C10.8293 2.427 11.573 3.17073 12.0889 4.0625C12.5889 4.92696 12.875 5.93063 12.875 7C12.875 10.2447 10.2447 12.875 7 12.875C6.12589 12.875 5.29532 12.6839 4.54883 12.3408C4.36071 12.2543 4.27884 12.0319 4.36523 11.8438C4.45173 11.6556 4.67413 11.5727 4.8623 11.6592C5.51251 11.958 6.23623 12.125 7 12.125C9.83046 12.125 12.125 9.83046 12.125 7C12.125 6.06589 11.8753 5.19094 11.4395 4.4375C10.9894 3.65952 10.3405 3.01064 9.5625 2.56055C8.80906 2.12471 7.93411 1.875 7 1.875C4.16954 1.875 1.875 4.16954 1.875 7C1.875 7.76377 2.04197 8.48749 2.34082 9.1377C2.42732 9.32587 2.34443 9.54827 2.15625 9.63477C1.96811 9.72116 1.74566 9.63929 1.65918 9.45117C1.31605 8.70468 1.125 7.87411 1.125 7C1.125 3.75533 3.75533 1.125 7 1.125ZM7.00098 5.46094C7.85204 5.46138 8.54199 6.15176 8.54199 7.00293C8.54182 7.85395 7.85193 8.54351 7.00098 8.54395C6.79387 8.54395 6.62598 8.37605 6.62598 8.16895C6.62615 7.96199 6.79398 7.79395 7.00098 7.79395C7.43772 7.79351 7.79182 7.43973 7.79199 7.00293C7.79199 6.56598 7.43783 6.21138 7.00098 6.21094C6.56375 6.21094 6.20898 6.5657 6.20898 7.00293C6.20881 7.20972 6.04076 7.37767 5.83398 7.37793C5.62699 7.37793 5.45916 7.20989 5.45898 7.00293C5.45898 6.15149 6.14954 5.46094 7.00098 5.46094Z" fill="white"/>
<path id="Vector" d="M5.5 8.5L1.5 12.5" stroke="#2A6CFF" stroke-width="0.75" stroke-linecap="round" stroke-linejoin="round"/>
<path id="Vector (Stroke)" d="M5.33333 10.625V8.75H3.33333C3.14924 8.75 3 8.58211 3 8.375C3 8.16789 3.14924 8 3.33333 8H5.66667C5.8506 8.00021 6 8.16802 6 8.375V10.625C5.99991 10.8319 5.85054 10.9998 5.66667 11C5.48263 11 5.33343 10.832 5.33333 10.625Z" fill="#2A6CFF"/>
</g>
</svg>
