<svg width="14" height="14" viewBox="0 0 14 14" fill="none" xmlns="http://www.w3.org/2000/svg">
<g id="Frame" clip-path="url(#clip0_0_4)">
<g id="Frame 427323394">
<path id="Vector" d="M5.5 7.5L1.5 11.5" stroke="#2A6CFF" stroke-width="0.75" stroke-linecap="round" stroke-linejoin="round"/>
<path id="Vector (Stroke)" d="M5.25 10V7.75H3C2.79289 7.75 2.625 7.58211 2.625 7.375C2.625 7.16789 2.79289 7 3 7H5.625C5.83193 7.00021 6 7.16802 6 7.375V10C5.99989 10.2069 5.83186 10.3748 5.625 10.375C5.41796 10.375 5.25011 10.207 5.25 10Z" fill="#2A6CFF"/>
</g>
<path id="Vector_2" d="M3.50001 11.501L11.2997 11.5064C11.618 11.5064 11.9232 11.38 12.1482 11.1549C12.3733 10.9299 12.4997 10.6246 12.4997 10.3064L12.4537 5.74C12.4537 5.42174 12.3273 5.11652 12.1022 4.89147C11.8772 4.66643 11.572 4.54 11.2537 4.54L7.01399 4.54C6.8133 4.54197 6.61532 4.49357 6.43817 4.39923C6.26103 4.30489 6.11037 4.16763 5.99999 4L5.49999 2.99994C5.39073 2.83402 5.24198 2.69783 5.06709 2.60358C4.89221 2.50933 4.69666 2.45998 4.49799 2.45994H2.65335C2.33509 2.45994 2.02987 2.58637 1.80482 2.81141C1.57978 3.03646 1.45335 3.34168 1.45335 3.65994L1.45042 9.50096" stroke="white" stroke-width="0.75" stroke-linecap="round" stroke-linejoin="round"/>
</g>
<defs>
<clipPath id="clip0_0_4">
<rect width="14" height="14" fill="white"/>
</clipPath>
</defs>
</svg>
