<svg width="14" height="14" viewBox="0 0 14 14" fill="none" xmlns="http://www.w3.org/2000/svg">
<path d="M7.25781 0.130859C9.90625 0.255075 12.041 2.28544 12.041 5V9C12.0408 11.8018 9.76616 13.8749 7 13.875C4.23386 13.8749 1.95818 11.8018 1.95801 9V5C1.95801 4.41891 2.05749 3.86967 2.2373 3.36328C2.5007 2.62165 2.93896 1.97313 3.50391 1.45508C3.77375 1.2076 4.07177 0.989423 4.39355 0.805664C4.53233 0.726422 4.67528 0.653216 4.82227 0.586914C4.94927 0.52962 5.07939 0.477836 5.21191 0.430664C5.76874 0.232466 6.37164 0.125042 7 0.125L7.25781 0.130859ZM2.70801 9C2.70818 11.3524 4.61192 13.1249 7 13.125C9.38806 13.1249 11.2908 11.3524 11.291 9V6.375H2.70801V9ZM7.375 5.625H11.291V5C11.291 2.77202 9.58445 1.06521 7.375 0.890625V5.625Z" fill="white"/>
</svg>
