<svg width="14" height="14" viewBox="0 0 14 14" fill="none" xmlns="http://www.w3.org/2000/svg">
<path d="M0.0899291 4.41148C-0.0295695 4.31155 -0.0295694 4.12785 0.0899292 4.02792L3.45022 1.21788C3.61297 1.08178 3.8606 1.1975 3.8606 1.40966V7.02974C3.8606 7.24191 3.61297 7.35763 3.45022 7.22152L0.0899291 4.41148Z" fill="white"/>
<path d="M1.65863 7.84652C1.65863 7.63941 1.49074 7.47152 1.28363 7.47152C1.07652 7.47152 0.908629 7.63941 0.908629 7.84652H1.65863ZM4.76263 11.3255V11.7005H10.0337V11.3255V10.9505H4.76263V11.3255ZM10.0337 4.21875V3.84375H3.148V4.21875V4.59375H10.0337V4.21875ZM13.5871 7.77214H13.9621C13.9621 5.60255 12.2033 3.84375 10.0337 3.84375V4.21875V4.59375C11.7891 4.59375 13.2121 6.01676 13.2121 7.77214H13.5871ZM10.0337 11.3255V11.7005C12.2033 11.7005 13.9621 9.94172 13.9621 7.77214H13.5871H13.2121C13.2121 9.52751 11.7891 10.9505 10.0337 10.9505V11.3255ZM1.28363 7.84652H0.908629C0.908629 9.97503 2.63413 11.7005 4.76263 11.7005V11.3255V10.9505C3.04834 10.9505 1.65863 9.56081 1.65863 7.84652H1.28363Z" fill="white"/>
</svg>
