<svg width="14" height="15" viewBox="0 0 14 15" fill="none" xmlns="http://www.w3.org/2000/svg">
<g clip-path="url(#clip0_3709_11225)">
<path d="M0.0899289 5.07194C-0.0295698 4.97201 -0.0295697 4.78831 0.089929 4.68838L3.45022 1.87833C3.61297 1.74223 3.8606 1.85795 3.8606 2.07011V7.6902C3.8606 7.90236 3.61297 8.01808 3.45022 7.88198L0.0899289 5.07194Z" fill="white"/>
<path d="M1.65863 8.50765C1.65863 8.30054 1.49074 8.13265 1.28363 8.13265C1.07652 8.13265 0.908629 8.30054 0.908629 8.50765H1.65863ZM4.76263 12.3617H10.0337V11.6117H4.76263V12.3617ZM10.0337 4.50488H3.148V5.25488H10.0337V4.50488ZM13.9621 8.43327C13.9621 6.26368 12.2033 4.50488 10.0337 4.50488V5.25488C11.7891 5.25488 13.2121 6.67789 13.2121 8.43327H13.9621ZM10.0337 12.3617C12.2033 12.3617 13.9621 10.6029 13.9621 8.43327H13.2121C13.2121 10.1886 11.7891 11.6117 10.0337 11.6117V12.3617ZM0.908629 8.50765C0.908629 10.6362 2.63413 12.3617 4.76263 12.3617V11.6117C3.04834 11.6117 1.65863 10.2219 1.65863 8.50765H0.908629Z" fill="white"/>
</g>
<defs>
<clipPath id="clip0_3709_11225">
<rect width="14" height="14" fill="white" transform="translate(0 0.661133)"/>
</clipPath>
</defs>
</svg>
