<svg width="12" height="12" viewBox="0 0 12 12" fill="none" xmlns="http://www.w3.org/2000/svg">
<path d="M0.0768205 3.61386C-0.0256069 3.5282 -0.0256068 3.37075 0.0768206 3.28509L2.95707 0.876485C3.09657 0.759826 3.30882 0.859016 3.30882 1.04087V5.85808C3.30882 6.03994 3.09657 6.13913 2.95707 6.02247L0.0768205 3.61386Z" fill="white"/>
<path d="M1.42142 6.55873C1.42142 6.38121 1.27752 6.23731 1.1 6.23731C0.922476 6.23731 0.778568 6.38121 0.778568 6.55873H1.42142ZM4.082 9.54074V9.86216H8.60007V9.54074V9.21931H4.082V9.54074ZM8.60007 3.44922V3.12779H2.69803V3.44922V3.77065H8.60007V3.44922ZM11.6458 6.49498H11.9673C11.9673 4.63533 10.4597 3.12779 8.60007 3.12779V3.44922V3.77065C10.1047 3.77065 11.3244 4.99037 11.3244 6.49498H11.6458ZM8.60007 9.54074V9.86216C10.4597 9.86216 11.9673 8.35462 11.9673 6.49498H11.6458H11.3244C11.3244 7.99958 10.1047 9.21931 8.60007 9.21931V9.54074ZM1.1 6.55873H0.778568C0.778568 8.38317 2.25756 9.86216 4.082 9.86216V9.54074V9.21931C2.6126 9.21931 1.42142 8.02813 1.42142 6.55873H1.1Z" fill="white"/>
</svg>
