<svg width="14" height="14" viewBox="0 0 14 14" fill="none" xmlns="http://www.w3.org/2000/svg">
<g clip-path="url(#clip0_3709_10948)">
<path d="M8.17764 6.3418C8.03213 6.43754 7.83494 6.42097 7.70694 6.29297C7.57898 6.16496 7.56236 5.96776 7.65811 5.82227L7.70694 5.76269L12.7206 0.749023L8.62589 0.749023C8.41884 0.748957 8.25089 0.581089 8.25089 0.374023C8.25089 0.166957 8.41884 -0.000911591 8.62589 -0.000977032L13.6259 -0.000976595C13.686 -0.000991651 13.7452 0.0152161 13.7997 0.0439453C13.8079 0.0482393 13.8163 0.0517779 13.8241 0.0566406C13.8353 0.0636534 13.8458 0.0717673 13.8564 0.0800781C13.8633 0.085522 13.8703 0.0907687 13.8769 0.0966797C13.8815 0.100843 13.8871 0.103966 13.8915 0.108398C13.8974 0.11431 13.9017 0.121733 13.9071 0.12793C13.9136 0.135248 13.9198 0.142585 13.9257 0.150391C13.9329 0.160032 13.94 0.169549 13.9462 0.179687C13.9526 0.190255 13.9574 0.201669 13.9628 0.212891C13.967 0.221744 13.972 0.230164 13.9755 0.239258C13.9917 0.281118 14.0009 0.326436 14.0009 0.374023L14.0009 5.37402C14.0009 5.58113 13.833 5.74902 13.6259 5.74902C13.4188 5.74896 13.2509 5.58109 13.2509 5.37402L13.2509 1.28027L8.23721 6.29297L8.17764 6.3418ZM0.372955 14.0059C0.273593 14.0059 0.177638 13.9667 0.10733 13.8965C0.0370042 13.8262 -0.00204465 13.7303 -0.00204464 13.6309L-0.00204421 8.63086C-0.00204415 8.42375 0.165849 8.25586 0.372956 8.25586C0.57988 8.25607 0.747956 8.42388 0.747956 8.63086L0.747955 12.7246L5.76456 7.70801L5.82413 7.66016C5.96953 7.56444 6.16681 7.58027 6.29483 7.70801C6.42276 7.83594 6.43925 8.03322 6.34366 8.17871L6.29483 8.23828L1.27823 13.2559L5.37296 13.2559C5.57988 13.2561 5.74796 13.4239 5.74796 13.6309C5.74796 13.8378 5.57988 14.0056 5.37296 14.0059L0.372955 14.0059Z" fill="white"/>
</g>
<defs>
<clipPath id="clip0_3709_10948">
<rect width="14" height="14" fill="white"/>
</clipPath>
</defs>
</svg>
