<svg width="14" height="14" viewBox="0 0 14 14" fill="none" xmlns="http://www.w3.org/2000/svg">
<g clip-path="url(#clip0_3709_10949)">
<path d="M6.04568 7.5957C6.06109 7.59639 6.07634 7.59802 6.09158 7.60059L6.10526 7.60254C6.10789 7.60308 6.11045 7.6039 6.11307 7.60449C6.12392 7.60698 6.13466 7.60983 6.14529 7.61328C6.15763 7.61727 6.16969 7.62176 6.18143 7.62695C6.18674 7.62931 6.19183 7.63215 6.19705 7.63477C6.21163 7.64205 6.22563 7.65013 6.23904 7.65918C6.24233 7.6614 6.24558 7.66368 6.24881 7.66602C6.2825 7.69033 6.31174 7.71998 6.33572 7.75391C6.33955 7.75932 6.34296 7.76494 6.34647 7.77051C6.35432 7.78297 6.3606 7.79618 6.36697 7.80957C6.37989 7.83676 6.39026 7.86456 6.39627 7.89355C6.40133 7.9181 6.40506 7.94368 6.40506 7.96973V12.9668C6.40487 13.1737 6.23698 13.3417 6.03006 13.3418C5.82307 13.3418 5.65525 13.1737 5.65506 12.9668V8.87402L0.636505 13.8896C0.489975 14.0355 0.25245 14.0359 0.106232 13.8896C-0.0398871 13.7433 -0.0388548 13.5058 0.107208 13.3594L5.12381 8.34473H1.03006C0.823068 8.34473 0.655247 8.17667 0.65506 7.96973C0.65506 7.76262 0.822953 7.59473 1.03006 7.59473H6.03006L6.04568 7.5957ZM13.4197 0.0605469C13.5653 -0.0353014 13.7634 -0.0187105 13.8914 0.109375C14.0371 0.255911 14.0367 0.493457 13.8904 0.639648L8.87772 5.64941H12.9715L13.0467 5.65723C13.2175 5.692 13.3462 5.84334 13.3465 6.02441C13.3465 6.20576 13.2177 6.35775 13.0467 6.39258L12.9715 6.39941H7.97147L7.97049 6.39844C7.94985 6.39837 7.92937 6.397 7.90897 6.39355C7.89493 6.39121 7.88157 6.38671 7.86795 6.38281C7.80888 6.36581 7.75234 6.3365 7.70584 6.29004C7.69782 6.28199 7.6915 6.27224 7.68436 6.26367C7.65694 6.2306 7.63451 6.19429 7.6199 6.1543C7.61884 6.15139 7.61796 6.14843 7.61697 6.14551C7.60391 6.10684 7.59647 6.0659 7.59647 6.02441V1.02734C7.59662 0.820365 7.76445 0.652344 7.97147 0.652344C8.15269 0.652363 8.30372 0.781246 8.33865 0.952148L8.34647 1.02734V5.12012L13.3601 0.108398L13.4197 0.0605469Z" fill="white"/>
</g>
<defs>
<clipPath id="clip0_3709_10949">
<rect width="14" height="14" fill="white"/>
</clipPath>
</defs>
</svg>
