<svg width="14" height="14" viewBox="0 0 14 14" fill="none" xmlns="http://www.w3.org/2000/svg">
<path d="M2.25 6C2.66421 6 3 6.33579 3 6.75C3 7.16421 2.66421 7.5 2.25 7.5C1.83579 7.5 1.5 7.16421 1.5 6.75C1.5 6.33579 1.83579 6 2.25 6ZM7 6C7.41421 6 7.75 6.33579 7.75 6.75C7.75 7.16421 7.41421 7.5 7 7.5C6.58579 7.5 6.25 7.16421 6.25 6.75C6.25 6.33579 6.58579 6 7 6ZM11.75 6C12.1642 6 12.5 6.33579 12.5 6.75C12.5 7.16421 12.1642 7.5 11.75 7.5C11.3358 7.5 11 7.16421 11 6.75C11 6.33579 11.3358 6 11.75 6Z" fill="white"/>
</svg>
