<svg width="15" height="14" viewBox="0 0 15 14" fill="none" xmlns="http://www.w3.org/2000/svg">
<path d="M2.25 6C2.66421 6 3 6.33579 3 6.75C3 7.16421 2.66421 7.5 2.25 7.5C1.83579 7.5 1.5 7.16421 1.5 6.75C1.5 6.33579 1.83579 6 2.25 6ZM7.25 6C7.66421 6 8 6.33579 8 6.75C8 7.16421 7.66421 7.5 7.25 7.5C6.83579 7.5 6.5 7.16421 6.5 6.75C6.5 6.33579 6.83579 6 7.25 6ZM12.75 6C13.1642 6 13.5 6.33579 13.5 6.75C13.5 7.16421 13.1642 7.5 12.75 7.5C12.3358 7.5 12 7.16421 12 6.75C12 6.33579 12.3358 6 12.75 6Z" fill="white"/>
</svg>
