<svg width="14" height="14" viewBox="0 0 14 14" fill="none" xmlns="http://www.w3.org/2000/svg">
<path d="M12.5 5.78418C12.9142 5.78418 13.25 6.11997 13.25 6.53418C13.2499 6.94834 12.9142 7.28418 12.5 7.28418C12.0858 7.28418 11.7501 6.94834 11.75 6.53418C11.75 6.11997 12.0858 5.78418 12.5 5.78418ZM7.49512 5.77051C7.90921 5.77051 8.24492 6.10646 8.24512 6.52051C8.24512 6.93472 7.90933 7.27051 7.49512 7.27051C7.08103 7.27036 6.74512 6.93463 6.74512 6.52051C6.74531 6.10655 7.08115 5.77066 7.49512 5.77051ZM2.5293 5.70801C2.94351 5.70801 3.2793 6.04379 3.2793 6.45801C3.27921 6.87215 2.94346 7.20801 2.5293 7.20801C2.11521 7.20792 1.77938 6.87209 1.7793 6.45801C1.7793 6.04385 2.11516 5.70809 2.5293 5.70801Z" fill="white"/>
</svg>
