<svg width="16" height="16" viewBox="0 0 16 16" fill="none" xmlns="http://www.w3.org/2000/svg">
<path d="M8.2728 1.00879C11.1126 1.18888 12.655 4.10664 12.8939 6.59961C12.9648 7.34011 13.0016 8.8542 13.5814 9.25391C14.699 10.0233 15.1422 11.0103 14.4105 11.5L14.2777 11.5684C13.4686 11.9065 10.5568 12.1946 8.94663 12.1992C9.22142 12.6376 9.39378 13.1947 9.39389 13.5996L9.38608 13.7432C9.31437 14.4491 8.71836 15 7.9935 15L7.85093 14.9932C7.19183 14.9264 6.66786 14.4022 6.60093 13.7432L6.59409 13.5996C6.5942 13.1947 6.76559 12.6376 7.04038 12.1992C5.43003 12.1945 2.51802 11.9066 1.70932 11.5684L1.57651 11.5C0.89086 11.0409 1.2369 10.1445 2.20346 9.40039L2.40561 9.25391C2.84066 8.95424 2.96989 8.0275 3.03745 7.27051L3.09409 6.59961C3.34076 4.0262 4.97564 1.0001 7.9935 1L8.2728 1.00879ZM7.9935 2.00488C6.8659 2.00493 5.97643 2.55522 5.30503 3.44141C4.70465 4.23389 4.31067 5.26302 4.14878 6.26758L4.09311 6.69531C4.06427 6.99644 4.02939 7.65658 3.93003 8.22754C3.87861 8.52286 3.80227 8.85266 3.6771 9.15723C3.57248 9.41171 3.40058 9.73058 3.10776 9.97949L2.97495 10.0811C2.62673 10.3208 2.41882 10.5458 2.31089 10.7061C2.3963 10.7284 2.49962 10.7544 2.62143 10.7793C2.98771 10.854 3.46249 10.9259 3.98862 10.9883C5.04285 11.1134 6.23204 11.193 7.04331 11.1953L7.9935 11.1973L8.9437 11.1953C9.75489 11.193 10.9442 11.1133 11.9984 10.9883C12.5246 10.9258 13.0002 10.8541 13.3666 10.7793C13.4881 10.7545 13.5908 10.7284 13.6761 10.7061C13.5864 10.5729 13.4279 10.395 13.1771 10.2012L13.0121 10.0811C12.637 9.82273 12.4304 9.44788 12.3109 9.15723C12.1857 8.85264 12.1084 8.52288 12.057 8.22754C12.0073 7.94206 11.9734 7.63419 11.9486 7.36035L11.8939 6.69531C11.7852 5.56147 11.368 4.34697 10.682 3.44141C10.0106 2.55526 9.12112 2.00488 7.9935 2.00488Z" fill="white"/>
</svg>
