<svg width="14" height="14" viewBox="0 0 14 14" fill="none" xmlns="http://www.w3.org/2000/svg">
<path d="M7 1.125C7.40191 1.125 7.79497 1.16508 8.1748 1.24219C8.37766 1.28344 8.5089 1.48168 8.46777 1.68457C8.42657 1.88754 8.22836 2.01874 8.02539 1.97754C7.69439 1.91035 7.35151 1.875 7 1.875C4.16954 1.875 1.875 4.16954 1.875 7C1.875 9.83046 4.16954 12.125 7 12.125C9.83046 12.125 12.125 9.83046 12.125 7C12.125 6.64848 12.0897 6.30561 12.0225 5.97461C11.9813 5.77164 12.1125 5.57343 12.3154 5.53223C12.5183 5.4911 12.7166 5.62234 12.7578 5.8252C12.8349 6.20503 12.875 6.59809 12.875 7C12.875 10.2447 10.2447 12.875 7 12.875C3.75533 12.875 1.125 10.2447 1.125 7C1.125 3.75533 3.75533 1.125 7 1.125ZM7 5.5C7.82843 5.5 8.5 6.17157 8.5 7C8.5 7.82843 7.82843 8.5 7 8.5C6.17157 8.5 5.5 7.82843 5.5 7C5.5 6.17157 6.17157 5.5 7 5.5ZM7 6.25C6.58579 6.25 6.25 6.58579 6.25 7C6.25 7.41421 6.58579 7.75 7 7.75C7.41421 7.75 7.75 7.41421 7.75 7C7.75 6.58579 7.41421 6.25 7 6.25ZM12.5 1.125C12.5962 1.125 12.6924 1.16115 12.7656 1.23438C12.8388 1.3076 12.875 1.4038 12.875 1.5V4C12.875 4.20711 12.7071 4.375 12.5 4.375C12.2929 4.375 12.125 4.20711 12.125 4V2.40625L9.76562 4.76562C9.61918 4.91207 9.38082 4.91207 9.23438 4.76562C9.08793 4.61918 9.08793 4.38082 9.23438 4.23438L11.5938 1.875H10C9.79289 1.875 9.625 1.70711 9.625 1.5C9.625 1.29289 9.79289 1.125 10 1.125H12.5Z" fill="white"/>
</svg>
