<svg width="14" height="14" viewBox="0 0 14 14" fill="none" xmlns="http://www.w3.org/2000/svg">
<path d="M5.25 1.375C5.41141 1.375 5.55443 1.47871 5.60547 1.63184L9.01953 11.875H12.25C12.4571 11.875 12.625 12.0429 12.625 12.25C12.625 12.4571 12.4571 12.625 12.25 12.625H8.75C8.58859 12.625 8.44557 12.5213 8.39453 12.3682L4.98047 2.125H1.75C1.54289 2.125 1.375 1.95711 1.375 1.75C1.375 1.54289 1.54289 1.375 1.75 1.375H5.25ZM12.25 1.375C12.457 1.37517 12.625 1.543 12.625 1.75C12.625 1.957 12.457 2.12483 12.25 2.125H8.16699C7.95989 2.125 7.79199 1.95711 7.79199 1.75C7.79199 1.54289 7.95989 1.375 8.16699 1.375H12.25Z" fill="white"/>
</svg>
