<svg width="12" height="14" viewBox="0 0 12 14" fill="none" xmlns="http://www.w3.org/2000/svg">
<path d="M9.36591 4.80335C9.54618 4.6211 9.83834 4.6211 10.0186 4.80335L11.8648 6.67002C12.045 6.85226 12.045 7.14767 11.8648 7.32992L10.0186 9.19658C9.83834 9.37879 9.54618 9.37879 9.36591 9.19658C9.1857 9.01434 9.1857 8.71893 9.36591 8.53669L10.8858 6.99996L9.36591 5.46325C9.1857 5.28101 9.1857 4.9856 9.36591 4.80335Z" fill="white"/>
<path d="M2.63398 4.80335C2.45374 4.6211 2.16157 4.6211 1.98133 4.80335L0.135181 6.67002C-0.0450605 6.85226 -0.0450605 7.14767 0.135181 7.32992L1.98133 9.19658C2.16157 9.37879 2.45374 9.37879 2.63398 9.19658C2.81423 9.01434 2.81423 8.71893 2.63398 8.53669L1.11415 6.99996L2.63398 5.46325C2.81423 5.28101 2.81423 4.9856 2.63398 4.80335Z" fill="white"/>
<path d="M5.53839 13.0667V3.26667C5.53839 3.00894 5.74503 2.8 5.99993 2.8C6.25483 2.8 6.46147 3.00894 6.46147 3.26667V13.0667C6.46147 13.3244 6.25483 13.5333 5.99993 13.5333C5.74503 13.5333 5.53839 13.3244 5.53839 13.0667Z" fill="white"/>
<path d="M8.76915 0C8.9558 0 9.12407 0.113673 9.19553 0.288021C9.26698 0.462402 9.22747 0.663149 9.09547 0.796615L6.32624 3.59662C6.146 3.77886 5.85383 3.77886 5.67359 3.59662L2.90436 0.796615C2.77236 0.663149 2.73287 0.462402 2.8043 0.288021C2.87576 0.113673 3.04403 0 3.23069 0H8.76915Z" fill="white"/>
</svg>
