<svg width="14" height="14" viewBox="0 0 14 14" fill="none" xmlns="http://www.w3.org/2000/svg">
<g clip-path="url(#clip0_5838_39)">
<path d="M7 0.789062C10.4284 0.789326 13.2088 3.56861 13.209 6.99707C13.209 10.4257 10.4285 13.2058 7 13.2061C3.57138 13.2059 0.791016 10.4257 0.791016 6.99707C0.791192 3.56856 3.57149 0.789239 7 0.789062ZM7 1.53906C3.9857 1.53924 1.54217 3.98277 1.54199 6.99707C1.54199 10.0115 3.9856 12.4559 7 12.4561C10.0143 12.4558 12.459 10.0115 12.459 6.99707C12.4588 3.98283 10.0142 1.53933 7 1.53906ZM7.00098 5.46094C7.85204 5.46138 8.54199 6.15176 8.54199 7.00293C8.54182 7.85395 7.85193 8.54351 7.00098 8.54395C6.14965 8.54395 5.45916 7.85422 5.45898 7.00293C5.45898 6.15149 6.14954 5.46094 7.00098 5.46094ZM7.00098 6.21094C6.56375 6.21094 6.20898 6.5657 6.20898 7.00293C6.20916 7.44001 6.56386 7.79395 7.00098 7.79395C7.43772 7.79351 7.79182 7.43973 7.79199 7.00293C7.79199 6.56598 7.43783 6.21138 7.00098 6.21094Z" fill="white"/>
</g>
<defs>
<clipPath id="clip0_5838_39">
<rect width="14" height="14" fill="white"/>
</clipPath>
</defs>
</svg>
