<svg width="25" height="16" viewBox="0 0 25 16" fill="none" xmlns="http://www.w3.org/2000/svg">
<path d="M1.92 5.58053L10.1575 0.5606L9.23751 -7.15256e-07L1.00007 5.01986L1 13.6122L1.91918 14.1723L1.92 5.58053ZM3.87934 6.77487L10.1614 2.94643L10.1615 4.21339L4.9186 7.40828V16H6.75832L5.83862 15.4395V14.172L8.83827 16H10.6771L5.83847 13.0515V11.7841L12.7569 16H14.5955L11.601 14.1752L15 12.1037V3.51144L14.0809 2.95142L14.0801 11.5432L10.6812 13.6144L9.64141 12.9808L13.0407 10.9093V2.31755L12.121 1.75708L12.1208 10.3488L8.72137 12.4202L7.6819 11.7869L11.0813 9.71527V1.26476L2.95935 6.2144L2.95927 14.8062L3.87886 15.3665L3.87934 6.77487ZM10.1615 5.33945L10.1615 9.14883L6.75763 11.2236L5.83847 10.6635V7.97465C6.34403 7.6666 10.1616 5.33012 10.1615 5.33945Z" fill="white"/>
<path d="M19.1032 6L23.8968 6C23.9763 6 24.0258 6.0796 23.9859 6.14307L21.5891 9.95264C21.5493 10.0158 21.4507 10.0158 21.4109 9.95264L19.0141 6.14307C18.9742 6.0796 19.0237 6 19.1032 6Z" fill="white"/>
</svg>
