<svg width="24" height="24" viewBox="0 0 24 24" fill="none" xmlns="http://www.w3.org/2000/svg">
<path d="M2.44571 8.37079L15.3903 0.8409L13.9447 0L1.00011 7.52979L1 20.4184L2.44443 21.2585L2.44571 8.37079ZM5.52468 10.1623L15.3965 4.41964L15.3967 6.32009L7.1578 11.1124V24H10.0488L8.60354 23.1593V21.258L13.3173 24H16.2068L8.60332 19.5772V17.6762L19.4751 24H22.3644L17.6588 21.2628L23 18.1555V5.26716L21.5557 4.42713L21.5545 17.3148L16.2133 20.4217L14.5794 19.4712L19.9211 16.364V3.47633L18.4759 2.63562L18.4756 15.5232L13.1336 18.6304L11.5001 17.6803L16.8421 14.5729V1.89713L4.07897 9.3216L4.07886 22.2094L5.52393 23.0498L5.52468 10.1623ZM15.3966 8.00918L15.3967 13.7232L10.0477 16.8354L8.60332 15.9952V11.962C9.39776 11.4999 15.3968 7.99518 15.3966 8.00918Z" fill="white"/>
</svg>
