<svg width="30" height="12" viewBox="0 0 30 12" fill="none" xmlns="http://www.w3.org/2000/svg">
<path d="M5.01074 4.73047C5.2985 4.73048 5.56643 4.7764 5.81445 4.86914C6.06439 4.96003 6.2822 5.0976 6.46777 5.28125C6.65527 5.46496 6.80111 5.6962 6.90527 5.97461C7.00942 6.25111 7.06152 6.57511 7.06152 6.94629V7.27832H4.08984V7.28125C4.08984 7.49716 4.13042 7.68362 4.20996 7.84082C4.2914 7.99796 4.40602 8.11889 4.55371 8.2041C4.70141 8.28927 4.87651 8.33203 5.0791 8.33203C5.21347 8.33201 5.33657 8.31324 5.44824 8.27539C5.55991 8.23752 5.65585 8.18118 5.73535 8.10547C5.81481 8.02979 5.87533 7.93684 5.91699 7.82715L7.03613 7.90039C6.97931 8.16933 6.86266 8.40471 6.68652 8.60547C6.51232 8.80417 6.2871 8.95961 6.01074 9.07129C5.73612 9.18113 5.41844 9.23535 5.05859 9.23535C4.60988 9.2353 4.22319 9.14466 3.89941 8.96289C3.57764 8.77919 3.32944 8.51965 3.15527 8.18457C2.98109 7.84749 2.89453 7.44843 2.89453 6.98828C2.89458 6.53957 2.98108 6.14557 3.15527 5.80664C3.32951 5.46764 3.57532 5.20404 3.8916 5.01465C4.20978 4.82526 4.58271 4.73047 5.01074 4.73047ZM27.6123 4.73047C28.0535 4.73048 28.4339 4.82529 28.7539 5.01465C29.0759 5.20214 29.3248 5.46471 29.499 5.80371C29.6732 6.14072 29.7597 6.53478 29.7598 6.98535C29.7598 7.43232 29.6733 7.82602 29.499 8.16504C29.3248 8.50215 29.0759 8.76471 28.7539 8.9541C28.4339 9.14156 28.0535 9.23534 27.6123 9.23535C27.1711 9.23535 26.7897 9.14155 26.4678 8.9541C26.1477 8.76473 25.8998 8.50211 25.7256 8.16504C25.5513 7.82602 25.4648 7.43232 25.4648 6.98535C25.4649 6.53478 25.5514 6.14072 25.7256 5.80371C25.8998 5.46475 26.1477 5.20213 26.4678 5.01465C26.7897 4.82531 27.1711 4.73047 27.6123 4.73047ZM21.7852 7.86621C21.967 7.86621 22.1263 7.93286 22.2627 8.06543C22.3991 8.19801 22.4678 8.35736 22.4678 8.54297C22.4677 8.66783 22.4354 8.78265 22.3711 8.88672C22.3086 8.98888 22.2262 9.07132 22.124 9.13379C22.0218 9.1944 21.9083 9.22461 21.7852 9.22461C21.5978 9.22453 21.4371 9.15788 21.3027 9.02539C21.1702 8.89101 21.1036 8.73032 21.1035 8.54297C21.1035 8.35736 21.1702 8.19801 21.3027 8.06543C21.4371 7.93297 21.5978 7.86629 21.7852 7.86621ZM12.335 7.34961C12.3369 7.6071 12.4066 7.81037 12.543 7.95996C12.6793 8.10954 12.8617 8.18455 13.0908 8.18457C13.2367 8.18457 13.3731 8.15125 13.5 8.08496C13.6268 8.0168 13.729 7.91665 13.8066 7.78418C13.8861 7.65168 13.9247 7.48789 13.9229 7.29297V4.78711H15.1338V9.15039H13.9717V8.3584H13.9258C13.8273 8.61385 13.6636 8.81941 13.4346 8.97461C13.2074 9.12981 12.93 9.20699 12.6025 9.20703C12.3109 9.20703 12.0536 9.14137 11.832 9.00879C11.6106 8.87624 11.4375 8.68756 11.3125 8.44336C11.1894 8.19906 11.1269 7.9063 11.125 7.56543V4.78711H12.335V7.34961ZM2.46289 4.73535C2.53281 4.74291 2.59451 4.75339 2.64746 4.7666V5.84082C2.59071 5.82382 2.51222 5.80913 2.41211 5.7959C2.31187 5.78266 2.21996 5.77541 2.13672 5.77539C1.9588 5.77539 1.79927 5.81404 1.65918 5.8916C1.52092 5.96736 1.41054 6.0736 1.3291 6.20996C1.24958 6.34628 1.20999 6.50368 1.20996 6.68164V9.15039H0V4.78711H1.17285V5.54785H1.21875C1.2983 5.27726 1.43177 5.07276 1.61914 4.93457C1.80653 4.7945 2.02247 4.72469 2.2666 4.72461C2.32714 4.72461 2.3929 4.72779 2.46289 4.73535ZM10.3145 4.73535C10.3844 4.74291 10.4461 4.75339 10.499 4.7666V5.84082C10.4423 5.82382 10.3638 5.80913 10.2637 5.7959C10.1634 5.78266 10.0715 5.77541 9.98828 5.77539C9.81036 5.77539 9.65083 5.81404 9.51074 5.8916C9.37249 5.96736 9.2621 6.0736 9.18066 6.20996C9.10114 6.34628 9.06155 6.50368 9.06152 6.68164V9.15039H7.85156V4.78711H9.02441V5.54785H9.07031C9.14986 5.27726 9.28334 5.07276 9.4707 4.93457C9.65809 4.7945 9.87403 4.72469 10.1182 4.72461C10.1787 4.72461 10.2445 4.72779 10.3145 4.73535ZM18.6182 4.73047C18.9211 4.73047 19.1858 4.79621 19.4111 4.92871C19.6365 5.06125 19.8115 5.25095 19.9365 5.49707C20.0615 5.74137 20.124 6.03309 20.124 6.37207V9.15039H18.9141V6.58789C18.9159 6.32101 18.8481 6.11247 18.71 5.96289C18.5717 5.81141 18.381 5.73539 18.1387 5.73535C17.9759 5.73535 17.832 5.77086 17.707 5.84082C17.584 5.91085 17.4871 6.01311 17.417 6.14746C17.3488 6.28004 17.3134 6.44043 17.3115 6.62793V9.15039H16.1016V4.78711H17.2549V5.55664H17.3057C17.4023 5.30286 17.5647 5.10183 17.792 4.9541C18.0191 4.80467 18.2946 4.73054 18.6182 4.73047ZM24.6709 9.15039H23.4609V4.78711H24.6709V9.15039ZM27.6182 5.65332C27.4155 5.65332 27.2447 5.71162 27.1064 5.82715C26.9703 5.94258 26.8669 6.09931 26.7969 6.29785C26.7287 6.49672 26.6943 6.72375 26.6943 6.97754C26.6944 7.23122 26.7287 7.45746 26.7969 7.65625C26.8669 7.85511 26.9701 8.0124 27.1064 8.12793C27.2447 8.24157 27.4155 8.29785 27.6182 8.29785C27.8188 8.2978 27.9867 8.24152 28.1211 8.12793C28.2555 8.01241 28.3566 7.85503 28.4248 7.65625C28.4949 7.45746 28.5302 7.23121 28.5303 6.97754C28.5303 6.72375 28.4949 6.49672 28.4248 6.29785C28.3567 6.09937 28.2553 5.94257 28.1211 5.82715C27.9867 5.71167 27.8188 5.65337 27.6182 5.65332ZM5.03027 5.63379C4.84667 5.63383 4.68397 5.67653 4.54199 5.76172C4.40188 5.84505 4.29144 5.95759 4.21191 6.09961C4.13867 6.22877 4.10008 6.37182 4.09277 6.52832H5.92285C5.92284 6.35411 5.88434 6.19988 5.80859 6.06543C5.73284 5.931 5.62761 5.82574 5.49316 5.75C5.36066 5.67248 5.20626 5.63379 5.03027 5.63379ZM24.0693 3C24.2491 3.0001 24.4025 3.06053 24.5293 3.18164C24.658 3.30085 24.7225 3.44388 24.7227 3.61035C24.7227 3.77891 24.6581 3.92469 24.5293 4.0459C24.4025 4.16504 24.249 4.22451 24.0693 4.22461C23.8894 4.22461 23.7343 4.1652 23.6055 4.0459C23.4786 3.92469 23.415 3.77891 23.415 3.61035C23.4152 3.44392 23.4788 3.30083 23.6055 3.18164C23.7343 3.06043 23.8894 3 24.0693 3Z" fill="white"/>
</svg>
