<svg width="744" height="180" viewBox="0 0 744 180" fill="none" xmlns="http://www.w3.org/2000/svg">
    <path d="M743.278 50.6963V179.624H703.753V81.3203L703.739 80.0361C703.157 53.202 684.315 34.9865 656.271 34.2266H653.705L652.377 34.2754C625.068 35.5663 606.81 53.6273 606.237 80.0352L606.224 81.3203V179.624H566.698V138.701C566.698 135.392 562.768 133.689 560.326 135.74L517.42 179.882H439.396L390.118 129.186V22.2773C389.327 19.6246 385.83 18.5487 383.707 20.7227L370.282 34.4736H362.913C334.87 35.2336 316.028 53.4487 315.445 80.2822L315.432 81.5674V179.871H275.906V113.23L275.902 113.012C275.865 111.932 275.517 111.033 274.825 110.398C274.144 109.654 273.02 109.167 271.834 109.18L263.33 109.16V109.159H127.967C127.98 109.224 136.139 149.387 181.238 149.387C206.057 149.387 226.364 132.608 229.079 117.979H267.144V136.01L220.597 180H139.383L89.3164 129.203V54.4668L103.667 39.999C104.826 37.8564 103.64 35.0944 101.27 34.4736H87.0068C58.9633 35.2336 40.1213 53.4487 39.5391 80.2822L39.5254 81.5674V179.871H0V0.24707H39.5967V11.2764C39.5967 14.7221 43.768 16.4285 46.1729 13.9658L59.5654 0.24707H122.99V11.2764C122.99 14.486 126.607 16.1846 129.047 14.4121L134.192 9.22559L142.959 0.24707H151.767V0.257812H219.613L263.33 50.1172V50.0205L269.494 56.9414C271.617 59.1157 275.115 58.0405 275.906 55.3877V0.24707H315.503V11.2764C315.503 14.7221 319.674 16.4285 322.079 13.9658L335.472 0.24707H427.673V0.257812H429.644V98.5615L429.657 99.8467C430.24 126.68 449.082 144.895 477.125 145.655H479.691C508.18 144.883 527.173 126.097 527.173 98.5615V0.257812H566.698V42.5361C567.6 45.0435 571.256 45.9366 573.325 43.8174L574.649 42.4619H574.702L615.977 0H694L743.278 50.6963ZM179.203 30.0938C146.877 30.0938 125.52 57.8835 124.819 77.3359H234.212C235.4 60.848 212.819 30.0963 179.205 30.0938H179.203Z" fill="white"/>
</svg>
