<svg width="14" height="14" viewBox="0 0 14 14" fill="none" xmlns="http://www.w3.org/2000/svg">
<path d="M6.33203 0.0917969C6.49478 -0.0438282 6.74194 0.0714463 6.74219 0.283203V2.56738H7L7.29395 2.5752C10.306 2.72821 12.7011 5.21848 12.7012 8.26855C12.7011 11.4172 10.1486 13.9696 7 13.9697C3.85137 13.9696 1.29891 11.4172 1.29883 8.26855V8.09961C1.29883 7.8925 1.46672 7.72461 1.67383 7.72461C1.88082 7.72474 2.04883 7.89258 2.04883 8.09961V8.26855C2.04891 11.003 4.26558 13.2196 7 13.2197C9.73439 13.2196 11.9511 11.003 11.9512 8.26855C11.9511 5.61959 9.87089 3.45692 7.25488 3.32422L7 3.31738H6.74219V5.90918C6.74182 6.12082 6.49474 6.23613 6.33203 6.10059L2.95703 3.28809C2.83709 3.18814 2.83709 3.00425 2.95703 2.9043L6.33203 0.0917969Z" fill="white"/>
</svg>
