<svg width="14" height="15" viewBox="0 0 14 15" fill="none" xmlns="http://www.w3.org/2000/svg">
<g clip-path="url(#clip0_3709_10953)">
<path d="M2.95672 3.94954C2.83679 3.84959 2.83679 3.66538 2.95672 3.56543L6.33184 0.752838C6.49467 0.617145 6.74188 0.732934 6.74188 0.944893V6.57008C6.74188 6.78204 6.49467 6.89783 6.33184 6.76213L2.95672 3.94954Z" fill="white"/>
<path d="M2.04858 8.76056C2.04858 8.55345 1.88069 8.38556 1.67358 8.38556C1.46648 8.38556 1.29858 8.55345 1.29858 8.76056H2.04858ZM1.29858 8.76056V8.92987H2.04858V8.76056H1.29858ZM6.99994 3.22852H6.41276V3.97852H6.99994V3.22852ZM12.7013 8.92987C12.7013 5.7811 10.1487 3.22852 6.99994 3.22852V3.97852C9.7345 3.97852 11.9513 6.19531 11.9513 8.92987H12.7013ZM6.99994 14.6312C10.1487 14.6312 12.7013 12.0786 12.7013 8.92987H11.9513C11.9513 11.6644 9.7345 13.8812 6.99994 13.8812V14.6312ZM1.29858 8.92987C1.29858 12.0786 3.85117 14.6312 6.99994 14.6312V13.8812C4.26538 13.8812 2.04858 11.6644 2.04858 8.92987H1.29858Z" fill="white"/>
</g>
<defs>
<clipPath id="clip0_3709_10953">
<rect width="14" height="14" fill="white" transform="translate(0 0.661133)"/>
</clipPath>
</defs>
</svg>
