<svg width="16" height="16" viewBox="0 0 16 16" fill="none" xmlns="http://www.w3.org/2000/svg">
<path d="M14 2C15.1046 2 16 2.89543 16 4V12L15.9893 12.2041C15.9761 12.3336 15.9497 12.4591 15.9131 12.5801C15.9032 12.6128 15.8914 12.6448 15.8799 12.6768C15.8702 12.7037 15.8604 12.7305 15.8496 12.7568C15.8375 12.7863 15.824 12.815 15.8105 12.8438C15.7971 12.8726 15.7843 12.9016 15.7695 12.9297C15.7555 12.9563 15.7398 12.9819 15.7246 13.0078C15.7078 13.0365 15.691 13.065 15.6729 13.0928C15.6586 13.1146 15.644 13.136 15.6289 13.1572C15.6079 13.1868 15.5861 13.2158 15.5635 13.2441C15.5468 13.2651 15.5293 13.2854 15.5117 13.3057C15.4873 13.334 15.4625 13.3618 15.4365 13.3887C15.4195 13.4062 15.4024 13.4235 15.3848 13.4404C15.3582 13.466 15.3307 13.4906 15.3027 13.5146C15.2831 13.5315 15.2634 13.5483 15.2432 13.5645C15.2146 13.5872 15.1851 13.6087 15.1553 13.6299C15.1325 13.646 15.1094 13.6615 15.0859 13.6768C15.0618 13.6925 15.0376 13.708 15.0127 13.7227C14.9847 13.7391 14.9566 13.7554 14.9277 13.7705C14.8936 13.7884 14.8585 13.8043 14.8232 13.8203C14.8018 13.83 14.7807 13.8406 14.7588 13.8496C14.7224 13.8646 14.6849 13.8768 14.6475 13.8896C14.6247 13.8974 14.6022 13.9061 14.5791 13.9131C14.5386 13.9253 14.4976 13.9356 14.4561 13.9453C14.4346 13.9503 14.4133 13.9557 14.3916 13.96C14.2649 13.9851 14.1341 14 14 14H2L1.7959 13.9893C0.854346 13.8938 0.1062 13.1457 0.0107422 12.2041L0 12V4C1.20813e-07 2.96435 0.787223 2.113 1.7959 2.01074L2 2H14ZM2 2.75C1.30964 2.75 0.75 3.30964 0.75 4V12C0.75 12.6904 1.30964 13.25 2 13.25H11V2.75H2Z" fill="white"/>
</svg>
