<svg width="14" height="14" viewBox="0 0 14 14" fill="none" xmlns="http://www.w3.org/2000/svg">
<path d="M7 0.125C9.76618 0.125122 12.042 2.19796 12.042 5V6C12.042 6.00294 12.0411 6.00586 12.041 6.00879V9C12.0408 11.8018 9.76611 13.8748 7 13.875C4.23385 13.8749 1.95818 11.8018 1.95801 9V5C1.95801 2.19795 4.23383 0.125122 7 0.125ZM2.70801 9C2.70818 11.3524 4.61193 13.1249 7 13.125C9.38803 13.1248 11.2908 11.3523 11.291 9V6.375H2.70801V9ZM6.625 0.890625C4.41558 1.06532 2.70801 2.77211 2.70801 5V5.625H6.625V0.890625Z" fill="white"/>
</svg>
