<svg width="12" height="14" viewBox="0 0 12 14" fill="none" xmlns="http://www.w3.org/2000/svg">
<g clip-path="url(#clip0_5765_2903)">
<path d="M6 0.125C8.76619 0.125122 11.041 2.19797 11.041 5V9C11.0408 11.8018 8.76616 13.8749 6 13.875C3.23386 13.8749 0.958184 11.8018 0.958008 9V5C0.958008 2.19795 3.23383 0.125122 6 0.125ZM6 0.875C3.61174 0.875121 1.70801 2.64755 1.70801 5V9C1.70818 11.3524 3.61192 13.1249 6 13.125C8.38806 13.1249 10.2908 11.3524 10.291 9V5C10.291 2.64754 8.38824 0.875121 6 0.875ZM5.80078 2.80078C5.91061 2.69095 6.08939 2.69095 6.19922 2.80078L7.69922 4.30078C7.80902 4.41061 7.80904 4.58939 7.69922 4.69922C7.58939 4.809 7.4106 4.80901 7.30078 4.69922L6.28125 3.67969V10.3203L7.30078 9.30078C7.41061 9.19095 7.58939 9.19096 7.69922 9.30078C7.80905 9.41062 7.80906 9.58939 7.69922 9.69922L6.19922 11.1992C6.08939 11.309 5.91061 11.309 5.80078 11.1992L4.30078 9.69922C4.19096 9.58939 4.19096 9.41061 4.30078 9.30078C4.41061 9.19095 4.58938 9.19095 4.69922 9.30078L5.71875 10.3203V3.67969L4.69922 4.69922C4.58939 4.809 4.4106 4.80901 4.30078 4.69922C4.19097 4.5894 4.19099 4.41062 4.30078 4.30078L5.80078 2.80078Z" fill="white"/>
</g>
<defs>
<clipPath id="clip0_5765_2903">
<rect width="12" height="14" fill="white"/>
</clipPath>
</defs>
</svg>
