<svg width="14" height="14" viewBox="0 0 14 14" fill="none" xmlns="http://www.w3.org/2000/svg">
<path d="M6 1C8.76142 1 11 3.23858 11 6C11 7.20064 10.5764 8.30213 9.87109 9.16406L12.7686 12.0615C12.9637 12.2568 12.9638 12.5733 12.7686 12.7686C12.5733 12.9636 12.2567 12.9636 12.0615 12.7686L9.16406 9.87109C8.30213 10.5764 7.20064 11 6 11C3.23858 11 1 8.76142 1 6C1 3.23858 3.23858 1 6 1ZM6 2C3.79086 2 2 3.79086 2 6C2 8.20914 3.79086 10 6 10C8.20914 10 10 8.20914 10 6C10 3.79086 8.20914 2 6 2Z" fill="white"/>
</svg>
