<svg width="14" height="14" viewBox="0 0 14 14" fill="none" xmlns="http://www.w3.org/2000/svg">
<path d="M7.12198 1H6.87802C6.58391 1 6.30184 1.12643 6.09387 1.35147C5.88591 1.57652 5.76907 1.88174 5.76907 2.2V2.308C5.76887 2.51844 5.71754 2.72511 5.62022 2.9073C5.5229 3.08949 5.38301 3.24078 5.2146 3.346L4.97618 3.496C4.80759 3.60132 4.61636 3.65677 4.4217 3.65677C4.22704 3.65677 4.03581 3.60132 3.86723 3.496L3.78406 3.448C3.52959 3.28916 3.22728 3.24607 2.94348 3.32818C2.65968 3.4103 2.41759 3.61092 2.27035 3.886L2.14837 4.114C2.00158 4.38936 1.96175 4.7165 2.03764 5.0236C2.11353 5.3307 2.29892 5.59267 2.55313 5.752L2.6363 5.812C2.80391 5.91671 2.94327 6.06705 3.04054 6.2481C3.13781 6.42914 3.18961 6.63458 3.19077 6.844V7.15C3.19155 7.36145 3.14068 7.56937 3.04331 7.7527C2.94594 7.93604 2.80553 8.08827 2.6363 8.194L2.55313 8.248C2.29892 8.40733 2.11353 8.6693 2.03764 8.9764C1.96175 9.2835 2.00158 9.61064 2.14837 9.886L2.27035 10.114C2.41759 10.3891 2.65968 10.5897 2.94348 10.6718C3.22728 10.7539 3.52959 10.7108 3.78406 10.552L3.86723 10.504C4.03581 10.3987 4.22704 10.3432 4.4217 10.3432C4.61636 10.3432 4.80759 10.3987 4.97618 10.504L5.2146 10.654C5.38301 10.7592 5.5229 10.9105 5.62022 11.0927C5.71754 11.2749 5.76887 11.4816 5.76907 11.692V11.8C5.76907 12.1183 5.88591 12.4235 6.09387 12.6485C6.30184 12.8736 6.58391 13 6.87802 13H7.12198C7.41609 13 7.69816 12.8736 7.90613 12.6485C8.11409 12.4235 8.23093 12.1183 8.23093 11.8V11.692C8.23113 11.4816 8.28246 11.2749 8.37978 11.0927C8.4771 10.9105 8.61699 10.7592 8.7854 10.654L9.02382 10.504C9.19241 10.3987 9.38364 10.3432 9.5783 10.3432C9.77296 10.3432 9.96419 10.3987 10.1328 10.504L10.2159 10.552C10.4704 10.7108 10.7727 10.7539 11.0565 10.6718C11.3403 10.5897 11.5824 10.3891 11.7297 10.114L11.8516 9.88C11.9984 9.60464 12.0382 9.2775 11.9624 8.9704C11.8865 8.6633 11.7011 8.40133 11.4469 8.242L11.3637 8.194C11.1945 8.08827 11.0541 7.93604 10.9567 7.7527C10.8593 7.56937 10.8085 7.36145 10.8092 7.15V6.85C10.8085 6.63855 10.8593 6.43063 10.9567 6.2473C11.0541 6.06396 11.1945 5.91173 11.3637 5.806L11.4469 5.752C11.7011 5.59267 11.8865 5.3307 11.9624 5.0236C12.0382 4.7165 11.9984 4.38936 11.8516 4.114L11.7297 3.886C11.5824 3.61092 11.3403 3.4103 11.0565 3.32818C10.7727 3.24607 10.4704 3.28916 10.2159 3.448L10.1328 3.496C9.96419 3.60132 9.77296 3.65677 9.5783 3.65677C9.38364 3.65677 9.19241 3.60132 9.02382 3.496L8.7854 3.346C8.61699 3.24078 8.4771 3.08949 8.37978 2.9073C8.28246 2.72511 8.23113 2.51844 8.23093 2.308V2.2C8.23093 1.88174 8.11409 1.57652 7.90613 1.35147C7.69816 1.12643 7.41609 1 7.12198 1Z" stroke="white" stroke-width="0.75" stroke-linecap="round" stroke-linejoin="round"/>
<path d="M7 8.75C7.9665 8.75 8.75 7.9665 8.75 7C8.75 6.0335 7.9665 5.25 7 5.25C6.0335 5.25 5.25 6.0335 5.25 7C5.25 7.9665 6.0335 8.75 7 8.75Z" stroke="white" stroke-width="0.75" stroke-linecap="round" stroke-linejoin="round"/>
</svg>
