<svg width="14" height="14" viewBox="0 0 14 14" fill="none" xmlns="http://www.w3.org/2000/svg">
<path d="M6.73518 2.06738C6.88156 1.92149 7.11913 1.92141 7.26546 2.06738L11.9324 6.73438C12.0395 6.84156 12.0714 7.00356 12.0135 7.14355C11.9554 7.28335 11.8182 7.37482 11.6668 7.375H9.37581V11C9.37563 11.2067 9.20745 11.3746 9.00081 11.375H5.00081C4.79381 11.375 4.62598 11.207 4.62581 11V7.375H2.33382C2.18225 7.375 2.04525 7.28352 1.98714 7.14355C1.92912 7.0035 1.96107 6.84162 2.06819 6.73438L2.33382 7V6.99902L2.06819 6.73438L6.73518 2.06738L6.99983 2.33301H7.00081L6.73518 2.06738ZM3.23909 6.625H5.00081C5.20752 6.62541 5.37574 6.79321 5.37581 7V10.625H8.62581V7C8.62588 6.79295 8.79374 6.625 9.00081 6.625H10.7625L6.99983 2.86328L3.23909 6.625Z" fill="white"/>
</svg>
