<svg width="14" height="14" viewBox="0 0 14 14" fill="none" xmlns="http://www.w3.org/2000/svg">
<g clip-path="url(#clip0_5602_43038)">
<path fill-rule="evenodd" clip-rule="evenodd" d="M11.4194 11.4194C10.2473 12.5915 8.6576 13.25 7 13.25C5.3424 13.25 3.75269 12.5915 2.58058 11.4194C1.40848 10.2473 0.75 8.6576 0.75 7C0.75 5.3424 1.40848 3.75268 2.58058 2.58058C3.75268 1.40848 5.3424 0.75 7 0.75C8.6576 0.75 10.2473 1.40848 11.4194 2.58058C12.5915 3.75269 13.25 5.3424 13.25 7C13.25 8.6576 12.5915 10.2473 11.4194 11.4194ZM7 14C8.85652 14 10.637 13.2625 11.9497 11.9497C13.2625 10.637 14 8.85652 14 7C14 5.14349 13.2625 3.36301 11.9497 2.05025C10.637 0.737498 8.85652 0 7 0C5.14349 0 3.36301 0.737498 2.05025 2.05025C0.737498 3.36301 0 5.14349 0 7C0 8.85652 0.737498 10.637 2.05025 11.9497C3.36301 13.2625 5.14349 14 7 14ZM10.7902 4.73746C10.9214 4.57717 10.8978 4.34091 10.7375 4.20977C10.5772 4.07862 10.3409 4.10224 10.2098 4.26254L5.97216 9.44183L3.76517 7.23483C3.61872 7.08839 3.38128 7.08839 3.23483 7.23483C3.08839 7.38128 3.08839 7.61872 3.23483 7.76517L5.73483 10.2652L6.02784 10.5582L6.29023 10.2375L10.7902 4.73746Z" fill="white"/>
</g>
<defs>
<clipPath id="clip0_5602_43038">
<rect width="14" height="14" fill="white"/>
</clipPath>
</defs>
</svg>
