<svg width="14" height="14" viewBox="0 0 14 14" fill="none" xmlns="http://www.w3.org/2000/svg">
<path d="M7 0C8.85652 0 10.6374 0.73705 11.9502 2.0498C13.2629 3.36256 14 5.14348 14 7C14 8.85652 13.2629 10.6374 11.9502 11.9502C10.6374 13.2629 8.85652 14 7 14C5.14348 14 3.36256 13.2629 2.0498 11.9502C0.73705 10.6374 0 8.85652 0 7C9.47121e-08 5.14348 0.73705 3.36256 2.0498 2.0498C3.36256 0.73705 5.14348 9.47115e-08 7 0ZM10.8164 4.11328C10.6027 3.93842 10.2881 3.96987 10.1133 4.18359L5.96289 9.25586L3.85352 7.14648C3.65825 6.95122 3.34175 6.95122 3.14648 7.14648C2.95122 7.34175 2.95122 7.65825 3.14648 7.85352L6.03711 10.7441L6.38672 10.3164L10.8867 4.81641C11.0616 4.60268 11.0301 4.28815 10.8164 4.11328Z" fill="white"/>
</svg>
