<svg width="14" height="15" viewBox="0 0 14 15" fill="none" xmlns="http://www.w3.org/2000/svg">
<g clip-path="url(#clip0_5602_43038)">
<path fill-rule="evenodd" clip-rule="evenodd" d="M11.4194 12.0806C10.2473 13.2527 8.6576 13.9111 7 13.9111C5.3424 13.9111 3.75269 13.2527 2.58058 12.0806C1.40848 10.9084 0.75 9.31874 0.75 7.66113C0.75 6.00353 1.40848 4.41382 2.58058 3.24172C3.75268 2.06961 5.3424 1.41113 7 1.41113C8.6576 1.41113 10.2473 2.06961 11.4194 3.24172C12.5915 4.41382 13.25 6.00353 13.25 7.66113C13.25 9.31874 12.5915 10.9084 11.4194 12.0806ZM7 14.6611C8.85652 14.6611 10.637 13.9236 11.9497 12.6109C13.2625 11.2981 14 9.51765 14 7.66113C14 5.80462 13.2625 4.02414 11.9497 2.71139C10.637 1.39863 8.85652 0.661133 7 0.661133C5.14349 0.661133 3.36301 1.39863 2.05025 2.71139C0.737498 4.02414 0 5.80462 0 7.66113C0 9.51765 0.737498 11.2981 2.05025 12.6109C3.36301 13.9236 5.14349 14.6611 7 14.6611ZM10.7902 5.3986C10.9214 5.23831 10.8978 5.00205 10.7375 4.8709C10.5772 4.73975 10.3409 4.76338 10.2098 4.92367L5.97216 10.103L3.76517 7.89597C3.61872 7.74952 3.38128 7.74952 3.23483 7.89597C3.08839 8.04241 3.08839 8.27985 3.23483 8.4263L5.73483 10.9263L6.02784 11.2193L6.29023 10.8986L10.7902 5.3986Z" fill="white"/>
</g>
<defs>
<clipPath id="clip0_5602_43038">
<rect width="14" height="14" fill="white" transform="translate(0 0.661133)"/>
</clipPath>
</defs>
</svg>
