<svg width="14" height="14" viewBox="0 0 14 14" fill="none" xmlns="http://www.w3.org/2000/svg">
<path fill-rule="evenodd" clip-rule="evenodd" d="M11.875 2.97222C11.875 2.53436 11.4774 2.125 10.9167 2.125L3.08332 2.125C2.52267 2.125 2.12499 2.53436 2.12499 2.97222L2.12499 4.875L11.875 4.875L11.875 2.97222ZM2.12499 8.375L2.12499 5.625L4.87502 5.625L4.87501 8.375L2.12499 8.375ZM8.37502 5.625L5.62502 5.625L5.62501 8.375L8.37501 8.375L8.37502 5.625ZM9.12502 5.625L11.875 5.625L11.875 8.375L9.12502 8.375L9.12502 5.625ZM8.37502 9.125L5.62502 9.125L5.62502 11.875L8.37502 11.875L8.37502 9.125ZM9.12502 11.875L9.12502 9.125L11.875 9.125L11.875 11.0278C11.875 11.4656 11.4774 11.875 10.9167 11.875L9.12502 11.875ZM2.12499 9.125L4.87502 9.125L4.87502 11.875L3.08332 11.875C2.52267 11.875 2.12499 11.4656 2.12499 11.0278L2.12499 9.125ZM12.625 8.75L12.625 11.0278C12.625 11.9399 11.8288 12.625 10.9167 12.625L3.08332 12.625C2.17122 12.625 1.37499 11.9399 1.37499 11.0278L1.37499 2.97222C1.37499 2.06005 2.17122 1.375 3.08332 1.375L10.9167 1.375C11.8288 1.375 12.625 2.06005 12.625 2.97222L12.625 5.25L12.625 8.75Z" fill="white"/>
</svg>
