<svg width="16" height="16" viewBox="0 0 16 16" fill="none" xmlns="http://www.w3.org/2000/svg">
<path d="M6 2H2.66667C2.29848 2 2 2.29848 2 2.66667V6C2 6.36819 2.29848 6.66667 2.66667 6.66667H6C6.36819 6.66667 6.66667 6.36819 6.66667 6V2.66667C6.66667 2.29848 6.36819 2 6 2Z" stroke="white" stroke-linecap="round" stroke-linejoin="round"/>
<path d="M13.3333 2H9.99992C9.63173 2 9.33325 2.29848 9.33325 2.66667V6C9.33325 6.36819 9.63173 6.66667 9.99992 6.66667H13.3333C13.7014 6.66667 13.9999 6.36819 13.9999 6V2.66667C13.9999 2.29848 13.7014 2 13.3333 2Z" stroke="white" stroke-linecap="round" stroke-linejoin="round"/>
<path d="M13.3333 9.33301H9.99992C9.63173 9.33301 9.33325 9.63148 9.33325 9.99967V13.333C9.33325 13.7012 9.63173 13.9997 9.99992 13.9997H13.3333C13.7014 13.9997 13.9999 13.7012 13.9999 13.333V9.99967C13.9999 9.63148 13.7014 9.33301 13.3333 9.33301Z" stroke="white" stroke-linecap="round" stroke-linejoin="round"/>
<path d="M6 9.33301H2.66667C2.29848 9.33301 2 9.63148 2 9.99967V13.333C2 13.7012 2.29848 13.9997 2.66667 13.9997H6C6.36819 13.9997 6.66667 13.7012 6.66667 13.333V9.99967C6.66667 9.63148 6.36819 9.33301 6 9.33301Z" stroke="white" stroke-linecap="round" stroke-linejoin="round"/>
</svg>
