<svg width="14" height="14" viewBox="0 0 14 14" fill="none" xmlns="http://www.w3.org/2000/svg">
<path d="M7.5 1C8.32843 1 9 1.67157 9 2.5V3.02539H12L12.0752 3.0332C12.2461 3.06816 12.375 3.21917 12.375 3.40039C12.3748 3.58149 12.246 3.7327 12.0752 3.76758L12 3.77539H10.75V11C10.75 11.9665 9.9665 12.75 9 12.75H5C4.0335 12.75 3.25 11.9665 3.25 11V3.77539H2C1.79302 3.77539 1.62521 3.60732 1.625 3.40039C1.625 3.19328 1.79289 3.02539 2 3.02539H5V2.5C5 1.67157 5.67157 1 6.5 1H7.5ZM4 3.77539V11L4.00488 11.1025C4.05278 11.573 4.42703 11.9472 4.89746 11.9951L5 12H9C9.51768 12 9.94378 11.6067 9.99512 11.1025L10 11V3.77539H4ZM6.5 1.75C6.08579 1.75 5.75 2.08579 5.75 2.5V3H8.25V2.5C8.25 2.08579 7.91421 1.75 7.5 1.75H6.5Z" fill="white"/>
</svg>
