<svg width="40" height="40" viewBox="0 0 40 40" fill="none" xmlns="http://www.w3.org/2000/svg">
<path d="M33.5977 0.702954C33.7615 0.480959 34.0747 0.433889 34.2969 0.597485C34.5187 0.761383 34.566 1.07456 34.4023 1.2967L30.0469 7.20686C31.7336 7.29159 33.2667 7.38662 34.585 7.47932C37.4715 7.68247 39.7205 9.95149 39.8418 12.8426C39.9286 14.9153 40 17.6245 40 20.9412L39.9863 23.4422C39.9597 25.8144 39.8972 27.8002 39.8271 29.3856L39.8105 29.6405C39.5784 32.249 37.5813 34.2773 34.9414 34.4754L33.6885 34.5623C30.5735 34.7636 26.0992 34.9412 20 34.9412L17.4971 34.9305C14.475 34.9052 11.9082 34.8347 9.75586 34.744L6.40234 39.2967C6.23851 39.5186 5.92528 39.5657 5.70312 39.4022C5.48122 39.2383 5.43408 38.9251 5.59766 38.703L8.55469 34.6893C7.75827 34.6501 7.02669 34.6092 6.35742 34.5662L5.10547 34.4793C2.44376 34.2807 0.431189 32.2261 0.196289 29.5955L0.179688 29.3387C0.107401 27.7187 0.042555 25.7128 0.0146484 23.3807L0 20.9412C0 18.5335 0.0417776 16.4004 0.100586 14.5926L0.164062 12.8944C0.283997 10.0715 2.41693 7.8247 5.19531 7.50178L5.46582 7.47639C9.11255 7.22078 14.3831 6.94124 20 6.94124L22.0967 6.95393C24.4753 6.98215 26.7596 7.05559 28.8467 7.14924L33.5977 0.702954ZM22.0078 18.116L26.8701 20.786C27.0434 20.8814 27.0434 21.1183 26.8701 21.2137L16.3936 26.9656C16.2191 27.0614 16.0001 26.9424 16 26.7518V26.2713L10.4717 33.7723C13.0597 33.8721 16.2144 33.9412 20 33.9412C26.9487 33.9412 31.7717 33.7105 34.8662 33.4783C37.0739 33.3127 38.7292 31.5787 38.8281 29.3416L38.8945 27.6336C38.9559 25.7938 39 23.5583 39 20.9412C39 17.6387 38.929 14.9437 38.8428 12.8846C38.7433 10.5125 36.9042 8.6455 34.5146 8.47737C33.0312 8.37305 31.2753 8.26553 29.335 8.17366L22.0078 18.116ZM20 7.94124C14.4138 7.94124 9.16745 8.21886 5.53516 8.47346C3.12639 8.64252 1.26489 10.5391 1.16309 12.9373C1.0739 15.0384 1 17.7463 1 20.9412C1 24.3163 1.08291 27.148 1.17871 29.2948C1.27987 31.5573 2.95294 33.3161 5.17969 33.4823L6.42188 33.5682C7.26752 33.6225 8.21436 33.6729 9.26758 33.7205L16 24.5848V15.2479C16 15.0572 16.219 14.9382 16.3936 15.034L21.124 17.6307L28.1328 8.11897C25.6244 8.01387 22.8567 7.94124 20 7.94124Z" fill="white"/>
</svg>
