<svg width="14" height="14" viewBox="0 0 14 14" fill="none" xmlns="http://www.w3.org/2000/svg">
<path d="M11 0C12.6569 0 14 1.34315 14 3V11C14 12.6569 12.6569 14 11 14H3L2.8457 13.9961C1.26056 13.9158 0 12.6051 0 11V3C1.28851e-07 1.34315 1.34315 0 3 0H11ZM9.36328 5.375C8.89669 5.3751 8.54467 5.56579 8.22754 5.8877C7.89672 6.2236 7.62437 6.68084 7.32324 7.19043C7.03357 7.68064 6.71434 8.2237 6.30664 8.6377C5.88536 9.06546 5.35145 9.3749 4.63672 9.375C3.91657 9.375 3.41066 9.0603 3.03809 8.61523C2.68387 8.19205 2.44158 7.63971 2.22559 7.15234C1.99846 6.63986 1.79691 6.19191 1.52344 5.86523C1.31742 5.61924 1.07746 5.4532 0.75 5.39746V11C0.75 12.2426 1.75736 13.25 3 13.25H11C12.2426 13.25 13.25 12.2426 13.25 11V9.36035C12.6884 9.2926 12.2762 8.99743 11.9609 8.6123C11.6173 8.19242 11.3706 7.64275 11.1465 7.15723C10.9113 6.64771 10.6965 6.19881 10.4121 5.87109C10.1443 5.56252 9.8264 5.375 9.36328 5.375ZM3 0.75C1.75736 0.75 0.75 1.75736 0.75 3V4.63867C1.33956 4.70278 1.77075 4.99309 2.09863 5.38477C2.4528 5.80797 2.69516 6.36032 2.91113 6.84766C3.13826 7.36014 3.33981 7.80809 3.61328 8.13477C3.86847 8.4394 4.1753 8.625 4.63672 8.625C5.10331 8.6249 5.45533 8.43421 5.77246 8.1123C6.10328 7.7764 6.37563 7.31916 6.67676 6.80957C6.96643 6.31936 7.28566 5.7763 7.69336 5.3623C8.11464 4.93454 8.64855 4.6251 9.36328 4.625C10.0818 4.625 10.5954 4.93762 10.9785 5.37891C11.345 5.80117 11.6017 6.35236 11.8281 6.84277C12.0656 7.35709 12.2708 7.80764 12.541 8.1377C12.7405 8.38132 12.9622 8.54158 13.25 8.59961V3C13.25 1.75736 12.2426 0.75 11 0.75H3Z" fill="white"/>
</svg>
