<svg width="14" height="15" viewBox="0 0 14 15" fill="none" xmlns="http://www.w3.org/2000/svg">
<g clip-path="url(#clip0_3709_10910)">
<rect x="0.375" y="1.03613" width="13.25" height="13.25" rx="2.625" stroke="white" stroke-width="0.75"/>
<path fill-rule="evenodd" clip-rule="evenodd" d="M3 4.55002C3 4.33524 3.14924 4.16113 3.33333 4.16113H10.6667C10.8508 4.16113 11 4.33524 11 4.55002C11 4.7648 10.8508 4.93891 10.6667 4.93891H3.33333C3.14924 4.93891 3 4.7648 3 4.55002Z" fill="white"/>
<path fill-rule="evenodd" clip-rule="evenodd" d="M3 6.10569C3 5.89091 3.14924 5.7168 3.33333 5.7168H10.6667C10.8508 5.7168 11 5.89091 11 6.10569C11 6.32046 10.8508 6.49457 10.6667 6.49457H3.33333C3.14924 6.49457 3 6.32046 3 6.10569Z" fill="white"/>
<path fill-rule="evenodd" clip-rule="evenodd" d="M3 7.66135C3 7.44657 3.14924 7.27246 3.33333 7.27246H10.6667C10.8508 7.27246 11 7.44657 11 7.66135C11 7.87613 10.8508 8.05024 10.6667 8.05024H3.33333C3.14924 8.05024 3 7.87613 3 7.66135Z" fill="white"/>
<path fill-rule="evenodd" clip-rule="evenodd" d="M3 9.21701C3 9.00224 3.14924 8.82812 3.33333 8.82812H10.6667C10.8508 8.82812 11 9.00224 11 9.21701C11 9.43179 10.8508 9.6059 10.6667 9.6059H3.33333C3.14924 9.6059 3 9.43179 3 9.21701Z" fill="white"/>
<path fill-rule="evenodd" clip-rule="evenodd" d="M3 10.7727C3 10.5579 3.14924 10.3838 3.33333 10.3838H6.66667C6.85076 10.3838 7 10.5579 7 10.7727C7 10.9875 6.85076 11.1616 6.66667 11.1616H3.33333C3.14924 11.1616 3 10.9875 3 10.7727Z" fill="white"/>
</g>
<defs>
<clipPath id="clip0_3709_10910">
<rect width="14" height="14" fill="white" transform="translate(0 0.661133)"/>
</clipPath>
</defs>
</svg>
