<svg width="14" height="15" viewBox="0 0 14 15" fill="none" xmlns="http://www.w3.org/2000/svg">
<g clip-path="url(#clip0_3963_2835)">
<path d="M3 1.03613H11C12.4497 1.03613 13.625 2.21139 13.625 3.66113V11.6611C13.625 13.1109 12.4497 14.2861 11 14.2861H3C1.55025 14.2861 0.375 13.1109 0.375 11.6611V3.66113C0.375 2.21139 1.55025 1.03613 3 1.03613Z" stroke="white" stroke-width="0.75"/>
<path d="M5.01685 6.05694L5.01626 5.99086C5.0073 4.98297 5.82187 4.16113 6.8298 4.16113V4.16113C8.54416 4.16113 9.30144 6.31998 7.96275 7.39093L7.72135 7.58405C7.26542 7.9488 7 8.50103 7 9.08492V9.16113" stroke="white" stroke-width="0.75" stroke-linecap="round"/>
<path d="M6.58308 11.7281C6.70029 11.8453 6.85926 11.9111 7.02502 11.9111C7.19078 11.9111 7.34976 11.8453 7.46697 11.7281C7.58418 11.6109 7.65002 11.4519 7.65002 11.2861C7.65002 11.1204 7.58418 10.9614 7.46697 10.8442C7.34976 10.727 7.19078 10.6611 7.02502 10.6611C6.85926 10.6611 6.70029 10.727 6.58308 10.8442C6.46587 10.9614 6.40002 11.1204 6.40002 11.2861C6.40002 11.4519 6.46587 11.6109 6.58308 11.7281Z" fill="white"/>
</g>
<defs>
<clipPath id="clip0_3963_2835">
<rect width="14" height="14" fill="white" transform="translate(0 0.661133)"/>
</clipPath>
</defs>
</svg>
