<svg width="14" height="15" viewBox="0 0 14 15" fill="none" xmlns="http://www.w3.org/2000/svg">
<g clip-path="url(#clip0_5477_2929)">
<rect x="0.375" y="1.03613" width="13.25" height="13.25" rx="2.625" stroke="white" stroke-width="0.75"/>
<path d="M7 3.03613C7.90115 3.03613 8.76769 3.37174 9.43262 3.97363L9.56348 4.09766C10.2433 4.77747 10.625 5.69973 10.625 6.66113C10.625 7.78295 9.99526 8.97393 9.2002 10.0186C8.42356 11.039 7.53305 11.8626 7.07227 12.2617C7.05104 12.277 7.02618 12.2861 7 12.2861C6.97354 12.2861 6.94811 12.2773 6.92676 12.2617C6.4658 11.8624 5.5761 11.0385 4.7998 10.0186C4.00476 8.97395 3.375 7.78294 3.375 6.66113C3.37501 5.75998 3.71059 4.89344 4.3125 4.22852L4.43652 4.09766C5.11634 3.41784 6.0386 3.03615 7 3.03613Z" stroke="white" stroke-width="0.75" stroke-linecap="round" stroke-linejoin="round"/>
<path d="M7.00006 5.53613C7.62139 5.53613 8.12505 6.03981 8.12506 6.66113C8.12506 7.28246 7.62139 7.78613 7.00006 7.78613C6.37874 7.78612 5.87506 7.28246 5.87506 6.66113C5.87507 6.03982 6.37875 5.53614 7.00006 5.53613Z" stroke="white" stroke-width="0.75" stroke-linecap="round" stroke-linejoin="round"/>
</g>
<defs>
<clipPath id="clip0_5477_2929">
<rect width="14" height="14" fill="white" transform="translate(0 0.661133)"/>
</clipPath>
</defs>
</svg>
