<svg width="14" height="14" viewBox="0 0 14 14" fill="none" xmlns="http://www.w3.org/2000/svg">
<g clip-path="url(#clip0_3709_10909)">
<path d="M11 0C12.6569 0 14 1.34315 14 3V11C14 12.6569 12.6569 14 11 14H3L2.8457 13.9961C1.26056 13.9158 0 12.6051 0 11V3C1.28851e-07 1.34315 1.34315 0 3 0H11ZM0.75 11C0.75 12.2426 1.75736 13.25 3 13.25H3.375V11H0.75ZM10.625 11V13.25H11C12.2426 13.25 13.25 12.2426 13.25 11H10.625ZM4.125 13.25H6.625V11H4.125V13.25ZM7.375 13.25H9.875V11H7.375V13.25ZM10.625 8V10.25H13.25V8H10.625ZM0.75 10.25H3.375V8H0.75V10.25ZM4.125 10.25H6.625V8H4.125V10.25ZM7.375 10.25H9.875V8H7.375V10.25ZM10.625 5V7.25H13.25V5H10.625ZM0.75 7.25H3.375V5H0.75V7.25ZM4.125 7.25H6.625V5H4.125V7.25ZM7.375 7.25H9.875V5H7.375V7.25ZM3 0.75C1.75736 0.75 0.75 1.75736 0.75 3V4.25H13.25V3C13.25 1.75736 12.2426 0.75 11 0.75H3Z" fill="white"/>
</g>
<defs>
<clipPath id="clip0_3709_10909">
<rect width="14" height="14" fill="white"/>
</clipPath>
</defs>
</svg>
