<svg width="14" height="15" viewBox="0 0 14 15" fill="none" xmlns="http://www.w3.org/2000/svg">
<g clip-path="url(#clip0_3709_10894)">
<rect x="0.375" y="1.03613" width="13.25" height="13.25" rx="2.625" stroke="white" stroke-width="0.75"/>
<path d="M3.55553 3.07728C3.61655 3.01626 3.71548 3.01626 3.7765 3.07728L5.16705 4.46783C5.26548 4.56626 5.19577 4.73456 5.05656 4.73456L2.27547 4.73456C2.13627 4.73456 2.06655 4.56626 2.16498 4.46783L3.55553 3.07728Z" fill="white"/>
<path d="M9.01941 5.49905C9.10571 5.4985 9.17611 5.568 9.17667 5.65429L9.18934 7.62078C9.19024 7.75998 9.02238 7.83078 8.92332 7.73298L6.94416 5.77917C6.8451 5.68137 6.91372 5.51262 7.05292 5.51173L9.01941 5.49905Z" fill="white"/>
<path d="M11.6227 10.8915C11.6837 10.9525 11.6837 11.0514 11.6227 11.1124L10.2321 12.503C10.1337 12.6014 9.96539 12.5317 9.96539 12.3925L9.96539 9.61141C9.96539 9.4722 10.1337 9.40249 10.2321 9.50092L11.6227 10.8915Z" fill="white"/>
<path d="M3.66614 4.00195V10.252C3.66614 10.6662 4.00192 11.002 4.41614 11.002H10.6661" stroke="white" stroke-width="0.75" stroke-linecap="round"/>
<line x1="3.90879" y1="10.7368" x2="8.17136" y2="6.47421" stroke="white" stroke-width="0.75"/>
</g>
<defs>
<clipPath id="clip0_3709_10894">
<rect width="14" height="14" fill="white" transform="translate(0 0.661133)"/>
</clipPath>
</defs>
</svg>
