<svg width="14" height="14" viewBox="0 0 14 14" fill="none" xmlns="http://www.w3.org/2000/svg">
<g clip-path="url(#clip0_3709_10910)">
<path d="M11.1543 0.00390625C12.7394 0.0842145 14 1.39489 14 3V11L13.9961 11.1543C13.9184 12.6883 12.6883 13.9184 11.1543 13.9961L11 14H3L2.8457 13.9961C1.31166 13.9184 0.0816253 12.6883 0.00390625 11.1543L0 11V3C1.24829e-07 1.39489 1.26055 0.0842144 2.8457 0.00390625L3 0H11L11.1543 0.00390625ZM3 0.75C1.75736 0.75 0.75 1.75736 0.75 3V11C0.75 12.2426 1.75736 13.25 3 13.25H11C12.2426 13.25 13.25 12.2426 13.25 11V3C13.25 1.75736 12.2426 0.75 11 0.75H3ZM7 9.625C7.20711 9.625 7.375 9.79289 7.375 10C7.375 10.2071 7.20711 10.375 7 10.375H3.5C3.29289 10.375 3.125 10.2071 3.125 10C3.125 9.79289 3.29289 9.625 3.5 9.625H7ZM10.5 7.625C10.7071 7.625 10.875 7.79289 10.875 8C10.875 8.20711 10.7071 8.375 10.5 8.375H3.5C3.29289 8.375 3.125 8.20711 3.125 8C3.125 7.79289 3.29289 7.625 3.5 7.625H10.5ZM10.5 5.625C10.7071 5.625 10.875 5.79289 10.875 6C10.875 6.20711 10.7071 6.375 10.5 6.375H3.5C3.29289 6.375 3.125 6.20711 3.125 6C3.125 5.79289 3.29289 5.625 3.5 5.625H10.5ZM10.5 3.625C10.7071 3.625 10.875 3.79289 10.875 4C10.875 4.20711 10.7071 4.375 10.5 4.375H3.5C3.29289 4.375 3.125 4.20711 3.125 4C3.125 3.79289 3.29289 3.625 3.5 3.625H10.5Z" fill="white"/>
</g>
<defs>
<clipPath id="clip0_3709_10910">
<rect width="14" height="14" fill="white"/>
</clipPath>
</defs>
</svg>
