<svg width="14" height="14" viewBox="0 0 14 14" fill="none" xmlns="http://www.w3.org/2000/svg">
<g clip-path="url(#clip0_3963_2835)">
<path d="M11 0C12.6569 0 14 1.34315 14 3V11C14 12.6569 12.6569 14 11 14H3L2.8457 13.9961C1.26056 13.9158 0 12.6051 0 11V3C1.28851e-07 1.34315 1.34315 0 3 0H11ZM3 0.75C1.75736 0.75 0.75 1.75736 0.75 3V11C0.75 12.2426 1.75736 13.25 3 13.25H11C12.2426 13.25 13.25 12.2426 13.25 11V3C13.25 1.75736 12.2426 0.75 11 0.75H3ZM7.02539 10C7.19088 10.0001 7.3497 10.0657 7.4668 10.1826C7.58401 10.2998 7.65039 10.4592 7.65039 10.625C7.65039 10.7908 7.58401 10.9502 7.4668 11.0674C7.3497 11.1843 7.19088 11.2499 7.02539 11.25C6.85972 11.25 6.7002 11.1845 6.58301 11.0674C6.4658 10.9502 6.40039 10.7908 6.40039 10.625C6.40039 10.4592 6.4658 10.2998 6.58301 10.1826C6.7002 10.0655 6.85972 10 7.02539 10ZM6.83008 3.125C8.83373 3.12535 9.75412 5.56966 8.3418 6.89746L8.19727 7.02246L7.95605 7.21582C7.58908 7.50941 7.375 7.95387 7.375 8.42383V8.5C7.375 8.70696 7.20691 8.87477 7 8.875C6.79308 8.87478 6.625 8.70697 6.625 8.5V8.42383C6.625 7.72603 6.94242 7.0658 7.4873 6.62988L7.72852 6.43652L7.82324 6.35449C8.75172 5.48176 8.14706 3.87535 6.83008 3.875C6.03069 3.87507 5.38462 4.52683 5.3916 5.32617L5.39258 5.39258L5.38574 5.46777C5.35248 5.63903 5.20167 5.7687 5.02051 5.77051C4.81354 5.7723 4.64457 5.60635 4.64258 5.39941L4.6416 5.33301C4.63082 4.11679 5.61382 3.12507 6.83008 3.125Z" fill="white"/>
</g>
<defs>
<clipPath id="clip0_3963_2835">
<rect width="14" height="14" fill="white"/>
</clipPath>
</defs>
</svg>
