<svg width="14" height="14" viewBox="0 0 14 14" fill="none" xmlns="http://www.w3.org/2000/svg">
<g clip-path="url(#clip0_3963_2836)">
<path d="M11 0C12.6569 0 14 1.34315 14 3V11C14 12.6569 12.6569 14 11 14H3L2.8457 13.9961C1.26056 13.9158 0 12.6051 0 11V3C1.28851e-07 1.34315 1.34315 0 3 0H11ZM3 0.75C1.75736 0.75 0.75 1.75736 0.75 3V11C0.75 12.2426 1.75736 13.25 3 13.25H11C12.2426 13.25 13.25 12.2426 13.25 11V3C13.25 1.75736 12.2426 0.75 11 0.75H3ZM4 6.25C4.41421 6.25 4.75 6.58579 4.75 7C4.75 7.41421 4.41421 7.75 4 7.75C3.5858 7.74998 3.25 7.4142 3.25 7C3.25 6.5858 3.5858 6.25002 4 6.25ZM7 6.25C7.41421 6.25 7.75 6.58579 7.75 7C7.75 7.41421 7.41421 7.75 7 7.75C6.5858 7.74998 6.25 7.4142 6.25 7C6.25 6.5858 6.5858 6.25002 7 6.25ZM10 6.25C10.4142 6.25 10.75 6.58579 10.75 7C10.75 7.41421 10.4142 7.75 10 7.75C9.5858 7.74998 9.25 7.4142 9.25 7C9.25 6.5858 9.5858 6.25002 10 6.25Z" fill="white"/>
</g>
<defs>
<clipPath id="clip0_3963_2836">
<rect width="14" height="14" fill="white"/>
</clipPath>
</defs>
</svg>
