<svg width="14" height="14" viewBox="0 0 14 14" fill="none" xmlns="http://www.w3.org/2000/svg">
<g clip-path="url(#clip0_3709_10894)">
<path d="M11 0C12.6569 0 14 1.34315 14 3V11C14 12.6569 12.6569 14 11 14H3L2.8457 13.9961C1.26056 13.9158 0 12.6051 0 11V3C1.28851e-07 1.34315 1.34315 0 3 0H11ZM3 0.75C1.75736 0.75 0.75 1.75736 0.75 3V11C0.75 12.2426 1.75736 13.25 3 13.25H11C12.2426 13.25 13.25 12.2426 13.25 11V3C13.25 1.75736 12.2426 0.75 11 0.75H3ZM3.55566 2.41602C3.61665 2.35517 3.71538 2.35517 3.77637 2.41602L5.16699 3.80664C5.26541 3.90505 5.19579 4.07318 5.05664 4.07324H4.04102V9.41309L7.64355 5.80957L6.94434 5.11816C6.84532 5.02041 6.91366 4.85163 7.05273 4.85059L9.01953 4.83789C9.10577 4.8374 9.1762 4.90691 9.17676 4.99316L9.18945 6.95996C9.1901 7.09896 9.02184 7.16999 8.92285 7.07227L8.17773 6.33594L4.54883 9.96582H9.96582V8.9502C9.96588 8.81104 10.134 8.74143 10.2324 8.83984L11.623 10.2305C11.6837 10.2914 11.6837 10.3902 11.623 10.4512L10.2324 11.8418C10.134 11.9402 9.96588 11.8706 9.96582 11.7314V10.7158H4.41602C3.79475 10.7158 3.29102 10.2121 3.29102 9.59082V4.07324H2.27539C2.13624 4.07318 2.06663 3.90505 2.16504 3.80664L3.55566 2.41602Z" fill="white"/>
</g>
<defs>
<clipPath id="clip0_3709_10894">
<rect width="14" height="14" fill="white"/>
</clipPath>
</defs>
</svg>
