<svg width="14" height="15" viewBox="0 0 14 15" fill="none" xmlns="http://www.w3.org/2000/svg">
<g clip-path="url(#clip0_3709_10895)">
<rect x="0.375" y="1.03613" width="13.25" height="13.25" rx="2.625" stroke="white" stroke-width="0.75"/>
<path d="M3.55193 3.01576C3.61295 2.95474 3.71188 2.95474 3.7729 3.01576L5.16345 4.40631C5.26188 4.50474 5.19216 4.67304 5.05296 4.67304L2.27187 4.67304C2.13266 4.67304 2.06295 4.50474 2.16138 4.4063L3.55193 3.01576Z" fill="white"/>
<path d="M11.6225 10.8934C11.6836 10.9544 11.6836 11.0534 11.6225 11.1144L10.232 12.5049C10.1336 12.6034 9.96527 12.5337 9.96527 12.3945L9.96527 9.61336C9.96527 9.47416 10.1336 9.40444 10.232 9.50287L11.6225 10.8934Z" fill="white"/>
<path d="M3.66254 4.00391V10.2539C3.66254 10.6681 3.99832 11.0039 4.41254 11.0039H10.6625" stroke="white" stroke-width="0.75" stroke-linecap="round"/>
</g>
<defs>
<clipPath id="clip0_3709_10895">
<rect width="14" height="14" fill="white" transform="translate(0 0.661133)"/>
</clipPath>
</defs>
</svg>
