<svg width="14" height="14" viewBox="0 0 14 14" fill="none" xmlns="http://www.w3.org/2000/svg">
<g clip-path="url(#clip0_3709_10911)">
<path d="M11 0C12.6569 0 14 1.34315 14 3V11C14 12.6569 12.6569 14 11 14H3L2.8457 13.9961C1.26056 13.9158 0 12.6051 0 11V3C1.28851e-07 1.34315 1.34315 0 3 0H11ZM3 0.75C1.75736 0.75 0.75 1.75736 0.75 3V11C0.75 12.2426 1.75736 13.25 3 13.25H11C12.2426 13.25 13.25 12.2426 13.25 11V3C13.25 1.75736 12.2426 0.75 11 0.75H3ZM5 2.625C5.20711 2.625 5.375 2.79289 5.375 3C5.375 3.20711 5.20711 3.375 5 3.375H4C3.65482 3.375 3.375 3.65482 3.375 4V10C3.375 10.3452 3.65482 10.625 4 10.625H5C5.20711 10.625 5.375 10.7929 5.375 11C5.375 11.2071 5.20711 11.375 5 11.375H4C3.24061 11.375 2.625 10.7594 2.625 10V4C2.625 3.24061 3.24061 2.625 4 2.625H5ZM10 2.625C10.7594 2.625 11.375 3.24061 11.375 4V10C11.375 10.7594 10.7594 11.375 10 11.375H9C8.79289 11.375 8.625 11.2071 8.625 11C8.625 10.7929 8.79289 10.625 9 10.625H10C10.3452 10.625 10.625 10.3452 10.625 10V4C10.625 3.65482 10.3452 3.375 10 3.375H9C8.79289 3.375 8.625 3.20711 8.625 3C8.625 2.79289 8.79289 2.625 9 2.625H10ZM7 8.5C7.27614 8.5 7.5 8.72386 7.5 9C7.5 9.27614 7.27614 9.5 7 9.5C6.72386 9.5 6.5 9.27614 6.5 9C6.5 8.72386 6.72386 8.5 7 8.5ZM7 6.5C7.27614 6.5 7.5 6.72386 7.5 7C7.5 7.27614 7.27614 7.5 7 7.5C6.72386 7.5 6.5 7.27614 6.5 7C6.5 6.72386 6.72386 6.5 7 6.5ZM7 4.5C7.27614 4.5 7.5 4.72386 7.5 5C7.5 5.27614 7.27614 5.5 7 5.5C6.72386 5.5 6.5 5.27614 6.5 5C6.5 4.72386 6.72386 4.5 7 4.5Z" fill="white"/>
</g>
<defs>
<clipPath id="clip0_3709_10911">
<rect width="14" height="14" fill="white"/>
</clipPath>
</defs>
</svg>
