<svg width="14" height="14" viewBox="0 0 14 14" fill="none" xmlns="http://www.w3.org/2000/svg">
<g clip-path="url(#clip0_3709_10908)">
<path d="M11 0C12.6569 0 14 1.34315 14 3V11C14 12.6569 12.6569 14 11 14H3L2.8457 13.9961C1.26056 13.9158 0 12.6051 0 11V3C1.28851e-07 1.34315 1.34315 0 3 0H11ZM3 0.75C1.75736 0.75 0.75 1.75736 0.75 3V11C0.75 12.2426 1.75736 13.25 3 13.25H11C12.2426 13.25 13.25 12.2426 13.25 11V3C13.25 1.75736 12.2426 0.75 11 0.75H3ZM3 9.5C3.27614 9.5 3.5 9.72386 3.5 10V11C3.5 11.2761 3.27614 11.5 3 11.5C2.72386 11.5 2.5 11.2761 2.5 11V10C2.5 9.72386 2.72386 9.5 3 9.5ZM5 8.58008C5.27614 8.58008 5.5 8.80394 5.5 9.08008V11C5.5 11.2761 5.27614 11.5 5 11.5C4.72386 11.5 4.5 11.2761 4.5 11V9.08008C4.5 8.80394 4.72386 8.58008 5 8.58008ZM7 7.30859C7.27614 7.30859 7.5 7.53245 7.5 7.80859V11C7.5 11.2761 7.27614 11.5 7 11.5C6.72386 11.5 6.5 11.2761 6.5 11V7.80859C6.5 7.53245 6.72386 7.30859 7 7.30859ZM9 5.30957C9.27614 5.30957 9.5 5.53343 9.5 5.80957V11C9.5 11.2761 9.27614 11.5 9 11.5C8.72386 11.5 8.5 11.2761 8.5 11V5.80957C8.5 5.53343 8.72386 5.30957 9 5.30957ZM11 2.5C11.2761 2.5 11.5 2.72386 11.5 3V11C11.5 11.2761 11.2761 11.5 11 11.5C10.7239 11.5 10.5 11.2761 10.5 11V3C10.5 2.72386 10.7239 2.5 11 2.5Z" fill="white"/>
</g>
<defs>
<clipPath id="clip0_3709_10908">
<rect width="14" height="14" fill="white"/>
</clipPath>
</defs>
</svg>
