<svg width="14" height="14" viewBox="0 0 14 14" fill="none" xmlns="http://www.w3.org/2000/svg">
<g clip-path="url(#clip0_3709_10895)">
<path d="M11 0C12.6569 0 14 1.34315 14 3V11C14 12.6569 12.6569 14 11 14H3L2.8457 13.9961C1.26056 13.9158 0 12.6051 0 11V3C1.28853e-07 1.34315 1.34315 0 3 0H11ZM3 0.75C1.75736 0.75 0.75 1.75736 0.75 3V11C0.75 12.2426 1.75736 13.25 3 13.25H11C12.2426 13.25 13.25 12.2426 13.25 11V3C13.25 1.75736 12.2426 0.75 11 0.75H3ZM3.55176 2.35449C3.61268 2.29357 3.71142 2.29376 3.77246 2.35449L5.16309 3.74512C5.26152 3.84355 5.19194 4.01172 5.05273 4.01172H4.03711V9.59277C4.03711 9.79974 4.2052 9.96754 4.41211 9.96777H9.96484V8.95215C9.96491 8.813 10.134 8.74338 10.2324 8.8418L11.6221 10.2324C11.6831 10.2934 11.6831 10.3921 11.6221 10.4531L10.2324 11.8438C10.134 11.9422 9.96491 11.8726 9.96484 11.7334V10.7178H4.41211C3.79099 10.7175 3.28711 10.214 3.28711 9.59277V4.01172H2.27148C2.13258 4.01141 2.06293 3.84347 2.16113 3.74512L3.55176 2.35449Z" fill="white"/>
</g>
<defs>
<clipPath id="clip0_3709_10895">
<rect width="14" height="14" fill="white"/>
</clipPath>
</defs>
</svg>
