<svg width="14" height="15" viewBox="0 0 14 15" fill="none" xmlns="http://www.w3.org/2000/svg">
<path d="M0.379883 7.66113C1 9.17516 3.02793 11.2721 7 11.2721C10.9721 11.2721 13 9.17516 13.6201 7.66113" stroke="white" stroke-width="0.75" stroke-linecap="round" stroke-linejoin="round"/>
<path d="M6.625 13.3809C6.625 13.588 6.79289 13.7559 7 13.7559C7.20711 13.7559 7.375 13.588 7.375 13.3809L6.625 13.3809ZM6.625 11.2725L6.625 13.3809L7.375 13.3809L7.375 11.2725L6.625 11.2725Z" fill="white"/>
<path d="M10.4122 12.9912C10.4801 13.1868 10.6938 13.2904 10.8895 13.2224C11.0851 13.1544 11.1886 12.9408 11.1207 12.7451L10.4122 12.9912ZM9.78431 11.1836L10.4122 12.9912L11.1207 12.7451L10.4928 10.9375L9.78431 11.1836Z" fill="white"/>
<path d="M3.58739 13.0029C3.51944 13.1986 3.30575 13.3021 3.11011 13.2341C2.91447 13.1662 2.81096 12.9525 2.87892 12.7568L3.58739 13.0029ZM4.21526 11.1953L3.58739 13.0029L2.87892 12.7568L3.50678 10.9492L4.21526 11.1953Z" fill="white"/>
<path d="M13.3681 10.8822C13.5214 11.0214 13.7586 11.0099 13.8978 10.8565C14.037 10.7032 14.0255 10.466 13.8721 10.3268L13.3681 10.8822ZM12.3201 9.931L13.3681 10.8822L13.8721 10.3268L12.8242 9.37564L12.3201 9.931Z" fill="white"/>
<path d="M0.631486 10.8939C0.478127 11.0331 0.240968 11.0216 0.101776 10.8682C-0.0374162 10.7149 -0.0259326 10.4777 0.127426 10.3385L0.631486 10.8939ZM1.67946 9.94272L0.631486 10.8939L0.127426 10.3385L1.1754 9.38736L1.67946 9.94272Z" fill="white"/>
</svg>
