<svg width="14" height="14" viewBox="0 0 14 14" fill="none" xmlns="http://www.w3.org/2000/svg">
<path d="M7.00037 3.01367C11.1223 3.01381 13.2873 5.22875 13.9662 6.85547C13.9948 6.92416 14.0026 6.9993 13.9886 7.07129L13.9672 7.1416C13.2876 8.80067 11.1198 10.9852 7.00037 10.9854C3.13805 10.9854 0.991226 9.06513 0.178101 7.45801L0.0335693 7.1416C-0.00403829 7.04976 -0.00365474 6.94707 0.0345459 6.85547C0.713481 5.22872 2.87835 3.01367 7.00037 3.01367ZM7.00037 3.76367C3.3126 3.76367 1.42482 5.65952 0.792358 7.00098C1.42314 8.36224 3.30845 10.2354 7.00037 10.2354C10.6918 10.2352 12.5765 8.36217 13.2074 7.00098C12.5748 5.65958 10.6877 3.7638 7.00037 3.76367ZM7.00037 5.49121C7.83299 5.49142 8.50805 6.16638 8.50818 6.99902C8.50818 7.83177 7.83307 8.50761 7.00037 8.50781C6.16749 8.50781 5.49158 7.8319 5.49158 6.99902C5.49171 6.16626 6.16757 5.49121 7.00037 5.49121Z" fill="white"/>
</svg>
