<svg width="14" height="14" viewBox="0 0 14 14" fill="none" xmlns="http://www.w3.org/2000/svg">
<path d="M7.0006 3.01367C11.1226 3.01374 13.2876 5.22873 13.9664 6.85547C14.0046 6.94703 14.005 7.0498 13.9674 7.1416C13.2879 8.80069 11.1201 10.9853 7.0006 10.9854C2.88099 10.9854 0.713375 8.80071 0.0338015 7.1416C-0.00380616 7.04976 -0.0034226 6.94707 0.0347781 6.85547C0.713682 5.22871 2.87852 3.01367 7.0006 3.01367ZM7.0006 3.76367C3.31277 3.76367 1.42502 5.65951 0.792591 7.00098C1.42334 8.36224 3.30862 10.2354 7.0006 10.2354C10.6922 10.2353 12.5767 8.36219 13.2076 7.00098C12.5751 5.65955 10.688 3.76374 7.0006 3.76367ZM7.0006 5.49121C7.83331 5.49131 8.50828 6.16632 8.50841 6.99902C8.50841 7.83184 7.83339 8.50771 7.0006 8.50781C6.16772 8.50781 5.49279 7.8319 5.49279 6.99902C5.49292 6.16626 6.1678 5.49121 7.0006 5.49121Z" fill="white"/>
</svg>
