<svg width="14" height="15" viewBox="0 0 14 15" fill="none" xmlns="http://www.w3.org/2000/svg">
<path fill-rule="evenodd" clip-rule="evenodd" d="M7 13.9111C8.6576 13.9111 10.2473 13.2527 11.4194 12.0806C12.5915 10.9084 13.25 9.31874 13.25 7.66113C13.25 6.00353 12.5915 4.41382 11.4194 3.24172C10.2473 2.06961 8.6576 1.41113 7 1.41113C5.3424 1.41113 3.75268 2.06961 2.58058 3.24172C1.40848 4.41382 0.75 6.00353 0.75 7.66113C0.75 9.31874 1.40848 10.9084 2.58058 12.0806C3.75269 13.2527 5.3424 13.9111 7 13.9111ZM11.9497 12.6109C10.637 13.9236 8.85652 14.6611 7 14.6611C5.14349 14.6611 3.36301 13.9236 2.05025 12.6109C0.737498 11.2981 0 9.51765 0 7.66113C0 5.80462 0.737498 4.02414 2.05025 2.71139C3.36301 1.39863 5.14349 0.661133 7 0.661133C8.85652 0.661133 10.637 1.39863 11.9497 2.71139C13.2625 4.02414 14 5.80462 14 7.66113C14 9.51765 13.2625 11.2981 11.9497 12.6109ZM7.81502 4.21089L7.40731 8.28799C7.38613 8.49982 7.20788 8.66113 6.995 8.66113C6.78212 8.66113 6.60387 8.49982 6.58269 8.28799L6.17497 4.21088C6.14554 3.91654 6.37668 3.66113 6.67249 3.66113H7.31751C7.61332 3.66113 7.84446 3.91654 7.81502 4.21089ZM7 11.1611C6.80109 11.1611 6.61032 11.0821 6.46967 10.9415C6.32902 10.8008 6.25 10.61 6.25 10.4111C6.25 10.2122 6.32902 10.0215 6.46967 9.8808C6.61032 9.74015 6.80109 9.66113 7 9.66113C7.19891 9.66113 7.38968 9.74015 7.53033 9.8808C7.67098 10.0215 7.75 10.2122 7.75 10.4111C7.75 10.61 7.67098 10.8008 7.53033 10.9415C7.38968 11.0821 7.19891 11.1611 7 11.1611Z" fill="white"/>
</svg>
