<svg width="14" height="14" viewBox="0 0 14 14" fill="none" xmlns="http://www.w3.org/2000/svg">
<path fill-rule="evenodd" clip-rule="evenodd" d="M7 13.25C8.6576 13.25 10.2473 12.5915 11.4194 11.4194C12.5915 10.2473 13.25 8.6576 13.25 7C13.25 5.3424 12.5915 3.75269 11.4194 2.58058C10.2473 1.40848 8.6576 0.75 7 0.75C5.3424 0.75 3.75268 1.40848 2.58058 2.58058C1.40848 3.75268 0.75 5.3424 0.75 7C0.75 8.6576 1.40848 10.2473 2.58058 11.4194C3.75269 12.5915 5.3424 13.25 7 13.25ZM11.9497 11.9497C10.637 13.2625 8.85652 14 7 14C5.14349 14 3.36301 13.2625 2.05025 11.9497C0.737498 10.637 0 8.85652 0 7C0 5.14349 0.737498 3.36301 2.05025 2.05025C3.36301 0.737498 5.14349 0 7 0C8.85652 0 10.637 0.737498 11.9497 2.05025C13.2625 3.36301 14 5.14349 14 7C14 8.85652 13.2625 10.637 11.9497 11.9497ZM7.81502 3.54975L7.40731 7.62686C7.38613 7.83869 7.20788 8 6.995 8C6.78212 8 6.60387 7.83869 6.58269 7.62686L6.17497 3.54975C6.14554 3.25541 6.37668 3 6.67249 3H7.31751C7.61332 3 7.84446 3.25541 7.81502 3.54975ZM7 10.5C6.80109 10.5 6.61032 10.421 6.46967 10.2803C6.32902 10.1397 6.25 9.94891 6.25 9.75C6.25 9.55109 6.32902 9.36032 6.46967 9.21967C6.61032 9.07902 6.80109 9 7 9C7.19891 9 7.38968 9.07902 7.53033 9.21967C7.67098 9.36032 7.75 9.55109 7.75 9.75C7.75 9.94891 7.67098 10.1397 7.53033 10.2803C7.38968 10.421 7.19891 10.5 7 10.5Z" fill="white"/>
</svg>
